SplineFontDB: 3.0
FontName: InconsolataGo-Regular
FullName: InconsolataGo
FamilyName: InconsolataGo
Weight: Regular
Copyright: Copyright (c) 2006-2012, Raph Levien (firstname.lastname@gmail.com), Copyright (c) 2011-2012, Cyreal (cyreal.org)
Version: 1.014
ItalicAngle: 0
UnderlinePosition: -200
UnderlineWidth: 50
Ascent: 800
Descent: 200
InvalidEm: 0
sfntRevision: 0x000102d1
LayerCount: 2
Layer: 0 1 "Back" 1
Layer: 1 1 "Fore" 0
XUID: [1021 655 1983812493 3808588]
FSType: 8
OS2Version: 3
OS2_WeightWidthSlopeOnly: 0
OS2_UseTypoMetrics: 1
CreationTime: 1288905181
ModificationTime: 1432510296
PfmFamily: 17
TTFWeight: 400
TTFWidth: 5
LineGap: 0
VLineGap: 0
Panose: 2 11 6 9 3 0 3 0 0 0
OS2TypoAscent: 859
OS2TypoAOffset: 0
OS2TypoDescent: -190
OS2TypoDOffset: 0
OS2TypoLinegap: 0
OS2WinAscent: 859
OS2WinAOffset: 0
OS2WinDescent: 190
OS2WinDOffset: 0
HheadAscent: 859
HheadAOffset: 0
HheadDescent: -190
HheadDOffset: 0
OS2SubXSize: 650
OS2SubYSize: 700
OS2SubXOff: 0
OS2SubYOff: 140
OS2SupXSize: 650
OS2SupYSize: 700
OS2SupXOff: 0
OS2SupYOff: 480
OS2StrikeYSize: 49
OS2StrikeYPos: 258
OS2CapHeight: 623
OS2XHeight: 457
OS2Vendor: 'PfEd'
OS2CodePages: 00000013.00000000
OS2UnicodeRanges: 8000002f.0000016b.00000000.00000000
MarkAttachClasses: 1
DEI: 91125
TtTable: prep
PUSHB_1
 0
CALL
SVTCA[y-axis]
PUSHB_3
 1
 4
 2
CALL
SVTCA[x-axis]
PUSHB_3
 5
 3
 2
CALL
SVTCA[x-axis]
PUSHB_8
 5
 77
 66
 55
 39
 23
 0
 8
CALL
PUSHB_8
 6
 90
 72
 55
 39
 23
 0
 8
CALL
PUSHB_8
 7
 120
 98
 77
 55
 33
 0
 8
CALL
SVTCA[y-axis]
PUSHB_8
 1
 90
 72
 55
 39
 23
 0
 8
CALL
PUSHB_8
 2
 90
 72
 55
 39
 23
 0
 8
CALL
PUSHB_8
 3
 106
 87
 68
 49
 29
 0
 8
CALL
PUSHB_8
 4
 131
 108
 84
 60
 33
 0
 8
CALL
SVTCA[y-axis]
PUSHB_3
 8
 5
 7
CALL
PUSHB_1
 0
DUP
RCVT
RDTG
ROUND[Black]
RTG
WCVTP
PUSHB_3
 96
 10
 1
DELTAC1
PUSHB_3
 192
 10
 1
DELTAC1
PUSHB_3
 32
 10
 1
DELTAC2
PUSHB_3
 79
 12
 1
DELTAC1
PUSHB_3
 31
 12
 1
DELTAC2
PUSHB_3
 127
 12
 1
DELTAC3
PUSHB_3
 159
 12
 1
DELTAC3
PUSHB_3
 47
 14
 1
DELTAC1
PUSHB_3
 79

StartChar: exclam
Encoding: 33 33 4
Width: 500
Flags: W
LayerCount: 2
Back
Fore
SplineSet
281 89 m 256,0,1
 299 71 299 71 299 47 c 0,2,3
 299 24 299 24 281 6.5 c 128,-1,4
 263 -11 263 -11 239 -11 c 256,5,6
 215 -11 215 -11 197.5 6 c 128,-1,7
 180 23 180 23 180 47 c 256,8,9
 180 71 180 71 197.5 89 c 128,-1,10
 215 107 215 107 239 107 c 256,11,12
 263 107 263 107 281 89 c 256,0,1
241 668 m 0,13,14
 264 668 264 668 278 648.5 c 128,-1,15
 292 629 292 629 292 584 c 0,16,17
 292 573 292 573 291 557.5 c 128,-1,18
 290 542 290 542 288 522 c 2,19,-1
 283 470 l 1,20,-1
 265 194 l 1,21,-1
 215 194 l 1,22,-1
 200 470 l 2,23,24
 199 486 199 486 197.5 503.5 c 128,-1,25
 196 521 196 521 194.5 537.5 c 128,-1,26
 193 554 193 554 191.5 569 c 128,-1,27
 190 584 190 584 190 594 c 0,28,29
 190 629 190 629 203.5 648.5 c 128,-1,30
 217 668 217 668 241 668 c 0,13,14
EndSplineSet
EndChar

StartChar: quotedbl
Encoding: 34 34 5
Width: 500
Flags: W
LayerCount: 2
Back
SplineSet
315 548 m 6,0,-1
 309 611 l 6,1,2
 309 639 309 639 322 652.5 c 132,-1,3
 335 666 335 666 352 666 c 260,4,5
 369 666 369 666 383 651 c 132,-1,6
 397 636 397 636 397 603 c 4,7,8
 397 572 397 572 363 478 c 6,9,-1
 339 412 l 5,10,-1
 284 425 l 5,11,-1
 306 493 l 6,12,13
 315 523 315 523 315 548 c 6,0,-1
143 548 m 6,14,-1
 136 611 l 6,15,16
 136 639 136 639 149 652.5 c 132,-1,17
 162 666 162 666 179 666 c 260,18,19
 196 666 196 666 210 651 c 132,-1,20
 224 636 224 636 224 603 c 4,21,22
 224 569 224 569 191 478 c 6,23,-1
 167 412 l 5,24,-1
 111 425 l 5,25,-1
 133 493 l 6,26,27
 138 508 138 508 140.5 521.5 c 132,-1,28
 143 535 143 535 143 548 c 6,14,-1
EndSplineSet
Fore
Refer: 10 39 S 1 0 0 1 83 -1 2
Refer: 10 39 N 1 0 0 1 -88 0 2
EndChar

StartChar: numbersign
Encoding: 35 35 6
Width: 500
Flags: W
LayerCount: 2
Back
Fore
SplineSet
173 624 m 1,0,-1
 234 626 l 1,1,-1
 213 455 l 1,2,-1
 323 455 l 1,3,-1
 343 622 l 1,4,-1
 405 623 l 1,5,-1
 385 457 l 1,6,-1
 476 457 l 1,7,-1
 470 410 l 1,8,-1
 379 410 l 1,9,-1
 358 241 l 1,10,-1
 457 241 l 1,11,-1
 452 196 l 1,12,-1
 353 196 l 1,13,-1
 331 14 l 1,14,-1
 270 10 l 1,15,-1
 292 193 l 1,16,-1
 181 193 l 1,17,-1
 160 14 l 1,18,-1
 101 13 l 1,19,-1
 122 191 l 1,20,-1
 25 191 l 1,21,-1
 29 236 l 1,22,-1
 128 236 l 1,23,-1
 148 407 l 1,24,-1
 39 407 l 1,25,-1
 42 453 l 1,26,-1
 153 453 l 1,27,-1
 173 624 l 1,0,-1
207 408 m 1,28,-1
 187 238 l 1,29,-1
 297 238 l 1,30,-1
 318 408 l 1,31,-1
 207 408 l 1,28,-1
EndSplineSet
EndChar

StartChar: dollar
Encoding: 36 36 7
Width: 500
Flags: W
LayerCount: 2
Back
Fore
SplineSet
235 651 m 1,0,-1
 299 651 l 2,1,2
 300 650 300 650 300 648 c 256,3,4
 300 646 300 646 297 641.5 c 128,-1,5
 294 637 294 637 293 630 c 2,6,-1
 293 592 l 1,7,8
 387 581 387 581 442 515 c 1,9,-1
 399 461 l 1,10,11
 394 463 394 463 393.5 470 c 128,-1,12
 393 477 393 477 388 482 c 0,13,14
 353 523 353 523 293 533 c 1,15,-1
 293 340 l 1,16,17
 336 326 336 326 367.5 311 c 128,-1,18
 399 296 399 296 419.5 277.5 c 128,-1,19
 440 259 440 259 450 235.5 c 128,-1,20
 460 212 460 212 460 181 c 0,21,22
 460 152 460 152 448.5 125 c 128,-1,23
 437 98 437 98 415.5 75.5 c 128,-1,24
 394 53 394 53 363 37 c 128,-1,25
 332 21 332 21 293 16 c 1,26,-1
 293 -47 l 1,27,-1
 235 -47 l 1,28,-1
 235 14 l 1,29,30
 127 22 127 22 60 94 c 1,31,-1
 103 154 l 1,32,33
 107 151 107 151 107 144 c 128,-1,34
 107 137 107 137 110 133 c 0,35,36
 160 79 160 79 235 72 c 1,37,-1
 235 292 l 1,38,39
 157 318 157 318 118 354.5 c 128,-1,40
 79 391 79 391 79 446 c 0,41,42
 79 473 79 473 90.5 497.5 c 128,-1,43
 102 522 102 522 122.5 541 c 128,-1,44
 143 560 143 560 171.5 573 c 128,-1,45
 200 586 200 586 235 591 c 1,46,-1
 235 651 l 1,0,-1
293 273 m 1,47,-1
 293 74 l 1,48,49
 341 83 341 83 368 112.5 c 128,-1,50
 395 142 395 142 395 177 c 0,51,52
 395 213 395 213 371 234.5 c 128,-1,53
 347 256 347 256 293 273 c 1,47,-1
235 361 m 1,54,-1
 235 534 l 1,55,56
 190 529 190 529 167.5 506 c 128,-1,57
 145 483 145 483 145 454 c 0,58,59
 145 397 145 397 235 361 c 1,54,-1
EndSplineSet
EndChar

StartChar: percent
Encoding: 37 37 8
Width: 500
Flags: W
LayerCount: 2
Back
Fore
SplineSet
391 623 m 1,0,-1
 458 623 l 1,1,-1
 110 0 l 1,2,-1
 46 0 l 1,3,-1
 391 623 l 1,0,-1
28 504 m 0,4,5
 28 531 28 531 37 555 c 128,-1,6
 46 579 46 579 61 596.5 c 128,-1,7
 76 614 76 614 96.5 624 c 128,-1,8
 117 634 117 634 140 634 c 256,9,10
 163 634 163 634 183.5 624 c 128,-1,11
 204 614 204 614 219 596 c 128,-1,12
 234 578 234 578 243 554 c 128,-1,13
 252 530 252 530 252 503 c 0,14,15
 252 446 252 446 220 409.5 c 128,-1,16
 188 373 188 373 140 373 c 0,17,18
 117 373 117 373 96.5 383 c 128,-1,19
 76 393 76 393 61 410.5 c 128,-1,20
 46 428 46 428 37 452 c 128,-1,21
 28 476 28 476 28 504 c 0,4,5
189 504 m 256,22,23
 189 547 189 547 173 564.5 c 128,-1,24
 157 582 157 582 138 582 c 0,25,26
 120 582 120 582 104.5 564.5 c 128,-1,27
 89 547 89 547 89 504 c 0,28,29
 89 462 89 462 105 444 c 128,-1,30
 121 426 121 426 140 426 c 256,31,32
 159 426 159 426 174 443.5 c 128,-1,33
 189 461 189 461 189 504 c 256,22,23
371 249 m 256,34,35
 394 249 394 249 414.5 239 c 128,-1,36
 435 229 435 229 450 211 c 128,-1,37
 465 193 465 193 473.5 169.5 c 128,-1,38
 482 146 482 146 482 119 c 256,39,40
 482 92 482 92 473 68 c 128,-1,41
 464 44 464 44 449 27 c 128,-1,42
 434 10 434 10 414 0 c 128,-1,43
 394 -10 394 -10 371 -10 c 256,44,45
 348 -10 348 -10 327.5 0 c 128,-1,46
 307 10 307 10 292 27 c 128,-1,47
 277 44 277 44 268 68 c 128,-1,48
 259 92 259 92 259 119 c 256,49,50
 259 146 259 146 268 170 c 128,-1,51
 277 194 277 194 292 211.5 c 128,-1,52
 307 229 307 229 327.5 239 c 128,-1,53
 348 249 348 249 371 249 c 256,34,35
406 179 m 0,54,55
 389 198 389 198 370 198 c 0,56,57
 350 198 350 198 334 180 c 128,-1,58
 318 162 318 162 318 120 c 0,59,60
 318 77 318 77 335 58.5 c 128,-1,61
 352 40 352 40 372 40 c 256,62,63
 392 40 392 40 407.5 59 c 128,-1,64
 423 78 423 78 423 118 c 0,65,66
 423 159 423 159 406 179 c 0,54,55
EndSplineSet
EndChar

StartChar: ampersand
Encoding: 38 38 9
Width: 500
Flags: W
LayerCount: 2
Back
Fore
SplineSet
413 262 m 1,0,-1
 412 274 l 2,1,2
 412 280 412 280 416 284 c 1,3,-1
 481 239 l 1,4,5
 447 179 447 179 405 123 c 1,6,-1
 475 32 l 1,7,-1
 416 -12 l 1,8,-1
 361 76 l 1,9,10
 330 37 330 37 285.5 13.5 c 128,-1,11
 241 -10 241 -10 192 -10 c 0,12,13
 158 -10 158 -10 129.5 2 c 128,-1,14
 101 14 101 14 80 34.5 c 128,-1,15
 59 55 59 55 47.5 82.5 c 128,-1,16
 36 110 36 110 36 141 c 0,17,18
 36 204 36 204 70.5 257.5 c 128,-1,19
 105 311 105 311 162 343 c 1,20,21
 91 429 91 429 91 498 c 0,22,23
 91 526 91 526 102 550 c 128,-1,24
 113 574 113 574 131.5 591.5 c 128,-1,25
 150 609 150 609 175 619 c 128,-1,26
 200 629 200 629 228 629 c 0,27,28
 258 629 258 629 283 618 c 128,-1,29
 308 607 308 607 326 588.5 c 128,-1,30
 344 570 344 570 353.5 546.5 c 128,-1,31
 363 523 363 523 363 498 c 256,32,33
 363 473 363 473 355 448 c 128,-1,34
 347 423 347 423 332.5 400.5 c 128,-1,35
 318 378 318 378 298.5 359.5 c 128,-1,36
 279 341 279 341 255 330 c 1,37,-1
 367 173 l 1,38,39
 381 190 381 190 395.5 215 c 128,-1,40
 410 240 410 240 413 262 c 1,0,-1
160 497 m 0,41,42
 160 449 160 449 221 373 c 1,43,44
 257 390 257 390 277 424.5 c 128,-1,45
 297 459 297 459 297 492 c 256,46,47
 297 525 297 525 276.5 547.5 c 128,-1,48
 256 570 256 570 229 570 c 0,49,50
 201 570 201 570 180.5 550 c 128,-1,51
 160 530 160 530 160 497 c 0,41,42
197 296 m 1,52,53
 157 271 157 271 134.5 231 c 128,-1,54
 112 191 112 191 112 152 c 0,55,56
 112 131 112 131 119 113.5 c 128,-1,57
 126 96 126 96 138 82.5 c 128,-1,58
 150 69 150 69 165.5 61.5 c 128,-1,59
 181 54 181 54 199 54 c 0,60,61
 215 54 215 54 232 59 c 128,-1,62
 249 64 249 64 263.5 71.5 c 128,-1,63
 278 79 278 79 290 88.5 c 128,-1,64
 302 98 302 98 309 106 c 2,65,-1
 324 123 l 1,66,-1
 197 296 l 1,52,53
EndSplineSet
EndChar

StartChar: quotesingle
Encoding: 39 39 10
Width: 500
Flags: WO
LayerCount: 2
Back
SplineSet
238 548 m 6,0,-1
 231 611 l 6,1,2
 231 639 231 639 244 652.5 c 132,-1,3
 257 666 257 666 274 666 c 260,4,5
 291 666 291 666 305 651 c 132,-1,6
 319 636 319 636 319 603 c 4,7,8
 318 586 318 586 310.5 555 c 132,-1,9
 303 524 303 524 286 478 c 6,10,-1
 261 412 l 5,11,-1
 206 425 l 5,12,-1
 228 493 l 6,13,14
 233 508 233 508 235.5 521.5 c 132,-1,15
 238 535 238 535 238 548 c 6,0,-1
EndSplineSet
Fore
SplineSet
224 665 m 1,0,-1
 304 665 l 1,1,-1
 293 417 l 5,2,-1
 235 417 l 5,3,-1
 224 665 l 1,0,-1
EndSplineSet
EndChar

StartChar: parenleft
Encoding: 40 40 11
Width: 500
Flags: W
LayerCount: 2
Back
Fore
SplineSet
414 603 m 2,0,-1
 403 604 l 2,1,2
 400 604 400 604 394 601 c 0,3,4
 306 549 306 549 257 459.5 c 128,-1,5
 208 370 208 370 208 256 c 0,6,7
 208 200 208 200 223 145.5 c 128,-1,8
 238 91 238 91 266 41.5 c 128,-1,9
 294 -8 294 -8 334.5 -49.5 c 128,-1,10
 375 -91 375 -91 425 -120 c 1,11,-1
 393 -173 l 1,12,13
 333 -142 333 -142 286 -96.5 c 128,-1,14
 239 -51 239 -51 206.5 5 c 128,-1,15
 174 61 174 61 156.5 125.5 c 128,-1,16
 139 190 139 190 139 258 c 256,17,18
 139 326 139 326 156.5 388.5 c 128,-1,19
 174 451 174 451 207 504.5 c 128,-1,20
 240 558 240 558 286.5 599 c 128,-1,21
 333 640 333 640 392 666 c 1,22,-1
 422 605 l 1,23,24
 416 603 416 603 414 603 c 2,0,-1
EndSplineSet
EndChar

StartChar: parenright
Encoding: 41 41 12
Width: 500
Flags: W
LayerCount: 2
Back
Fore
SplineSet
78 603 m 1,0,-1
 97 665 l 1,1,2
 157 637 157 637 207 593.5 c 128,-1,3
 257 550 257 550 291.5 495.5 c 128,-1,4
 326 441 326 441 345 378.5 c 128,-1,5
 364 316 364 316 364 250 c 0,6,7
 364 183 364 183 344.5 119.5 c 128,-1,8
 325 56 325 56 289.5 0.5 c 128,-1,9
 254 -55 254 -55 203.5 -100 c 128,-1,10
 153 -145 153 -145 91 -174 c 1,11,-1
 72 -114 l 1,12,13
 123 -87 123 -87 163.5 -48.5 c 128,-1,14
 204 -10 204 -10 233 37.5 c 128,-1,15
 262 85 262 85 277.5 138 c 128,-1,16
 293 191 293 191 293 247 c 256,17,18
 293 303 293 303 277.5 356 c 128,-1,19
 262 409 262 409 234 455 c 128,-1,20
 206 501 206 501 166 539 c 128,-1,21
 126 577 126 577 78 603 c 1,0,-1
EndSplineSet
EndChar

StartChar: asterisk
Encoding: 42 42 13
Width: 500
Flags: W
LayerCount: 2
Back
Fore
SplineSet
213 519 m 1,0,-1
 294 519 l 1,1,2
 293 513 293 513 291 505.5 c 128,-1,3
 289 498 289 498 288 492 c 2,4,-1
 273 342 l 1,5,-1
 432 414 l 1,6,-1
 458 353 l 1,7,-1
 287 301 l 1,8,-1
 413 150 l 1,9,-1
 358 107 l 1,10,-1
 250 273 l 1,11,-1
 138 106 l 1,12,-1
 84 150 l 1,13,-1
 214 300 l 1,14,-1
 41 353 l 1,15,-1
 67 418 l 1,16,-1
 229 342 l 1,17,-1
 213 519 l 1,0,-1
EndSplineSet
EndChar

StartChar: plus
Encoding: 43 43 14
Width: 500
Flags: W
LayerCount: 2
Back
Fore
SplineSet
222 523 m 1,0,-1
 285 523 l 1,1,-1
 285 352 l 1,2,-1
 456 352 l 1,3,-1
 456 291 l 1,4,-1
 285 291 l 1,5,-1
 285 104 l 1,6,-1
 222 104 l 1,7,-1
 222 291 l 1,8,-1
 45 291 l 1,9,-1
 45 352 l 1,10,-1
 222 352 l 1,11,-1
 222 523 l 1,0,-1
EndSplineSet
EndChar

StartChar: comma
Encoding: 44 44 15
Width: 500
Flags: W
LayerCount: 2
Back
Fore
SplineSet
306 20 m 0,0,1
 306 -59 306 -59 199 -168 c 1,2,-1
 165 -138 l 1,3,4
 193 -112 193 -112 211.5 -82 c 128,-1,5
 230 -52 230 -52 230 -33 c 0,6,7
 230 -23 230 -23 222 -14.5 c 128,-1,8
 214 -6 214 -6 204.5 2 c 128,-1,9
 195 10 195 10 187 20.5 c 128,-1,10
 179 31 179 31 179 44 c 0,11,12
 179 69 179 69 195.5 86 c 128,-1,13
 212 103 212 103 238 103 c 256,14,15
 264 103 264 103 285 80 c 128,-1,16
 306 57 306 57 306 20 c 0,0,1
EndSplineSet
EndChar

StartChar: hyphen
Encoding: 45 45 16
Width: 500
Flags: W
LayerCount: 2
Back
Fore
SplineSet
71 348 m 1,0,-1
 431 348 l 1,1,-1
 431 281 l 1,2,-1
 71 281 l 1,3,-1
 71 348 l 1,0,-1
EndSplineSet
EndChar

StartChar: period
Encoding: 46 46 17
Width: 500
Flags: W
LayerCount: 2
Back
Fore
SplineSet
280 87 m 0,0,1
 298 69 298 69 298 46 c 256,2,3
 298 23 298 23 280.5 6 c 128,-1,4
 263 -11 263 -11 238 -11 c 256,5,6
 213 -11 213 -11 196 5.5 c 128,-1,7
 179 22 179 22 179 46 c 256,8,9
 179 70 179 70 197 87 c 128,-1,10
 215 104 215 104 238 104 c 256,11,12
 261 104 261 104 280 87 c 0,0,1
EndSplineSet
EndChar

StartChar: slash
Encoding: 47 47 18
Width: 500
Flags: W
LayerCount: 2
Back
Fore
SplineSet
64 -13 m 1,0,-1
 377 665 l 1,1,-1
 437 634 l 1,2,-1
 123 -42 l 1,3,-1
 64 -13 l 1,0,-1
EndSplineSet
EndChar

StartChar: zero
Encoding: 48 48 19
Width: 500
Flags: W
LayerCount: 2
Back
Fore
SplineSet
386 544 m 0,0,1
 415 505 415 505 432.5 442 c 128,-1,2
 450 379 450 379 450 301 c 0,3,4
 450 222 450 222 432.5 163.5 c 128,-1,5
 415 105 415 105 386.5 66 c 128,-1,6
 358 27 358 27 322 8 c 128,-1,7
 286 -11 286 -11 249 -11 c 0,8,9
 211 -11 211 -11 175 12 c 128,-1,10
 139 35 139 35 111 76.5 c 128,-1,11
 83 118 83 118 66.5 176.5 c 128,-1,12
 50 235 50 235 50 306 c 256,13,14
 50 377 50 377 66.5 436 c 128,-1,15
 83 495 83 495 111 537.5 c 128,-1,16
 139 580 139 580 175 603.5 c 128,-1,17
 211 627 211 627 249 627 c 0,18,19
 327 627 327 627 386 544 c 0,0,1
349 485 m 1,20,21
 329 525 329 525 303 545.5 c 128,-1,22
 277 566 277 566 250 566 c 0,23,24
 225 566 225 566 200.5 548 c 128,-1,25
 176 530 176 530 157 498 c 128,-1,26
 138 466 138 466 126.5 420 c 128,-1,27
 115 374 115 374 115 319 c 0,28,29
 115 257 115 257 129 201 c 1,30,-1
 349 485 l 1,20,21
372 418 m 1,31,-1
 152 138 l 1,32,33
 176 93 176 93 202.5 73 c 128,-1,34
 229 53 229 53 255 53 c 0,35,36
 282 53 282 53 305.5 69.5 c 128,-1,37
 329 86 329 86 346.5 117 c 128,-1,38
 364 148 364 148 374.5 192.5 c 128,-1,39
 385 237 385 237 385 293 c 0,40,41
 385 328 385 328 382 359 c 128,-1,42
 379 390 379 390 372 418 c 1,31,-1
EndSplineSet
EndChar

StartChar: one
Encoding: 49 49 20
Width: 500
Flags: W
LayerCount: 2
Back
Fore
SplineSet
299 624 m 1,0,-1
 299 0 l 1,1,-1
 230 0 l 1,2,-1
 230 537 l 1,3,-1
 104 500 l 1,4,-1
 88 539 l 1,5,-1
 251 624 l 1,6,-1
 299 624 l 1,0,-1
EndSplineSet
EndChar

StartChar: two
Encoding: 50 50 21
Width: 500
Flags: W
LayerCount: 2
Back
Fore
SplineSet
78 526 m 1,0,1
 105 574 105 574 151.5 600.5 c 128,-1,2
 198 627 198 627 252 627 c 0,3,4
 289 627 289 627 322 613.5 c 128,-1,5
 355 600 355 600 380 576 c 128,-1,6
 405 552 405 552 419 520 c 128,-1,7
 433 488 433 488 433 452 c 0,8,9
 433 423 433 423 424.5 397 c 128,-1,10
 416 371 416 371 402 347.5 c 128,-1,11
 388 324 388 324 369.5 302.5 c 128,-1,12
 351 281 351 281 331 263 c 2,13,-1
 271 207 l 2,14,15
 258 195 258 195 242 178.5 c 128,-1,16
 226 162 226 162 210.5 143 c 128,-1,17
 195 124 195 124 180 103 c 128,-1,18
 165 82 165 82 154 61 c 1,19,-1
 415 61 l 2,20,21
 420 61 420 61 425.5 65.5 c 128,-1,22
 431 70 431 70 436 70 c 2,23,-1
 439 70 l 1,24,-1
 439 0 l 1,25,-1
 73 0 l 1,26,-1
 73 44 l 1,27,28
 110 117 110 117 153 170 c 128,-1,29
 196 223 196 223 236 259 c 2,30,-1
 284 303 l 2,31,32
 309 326 309 326 324.5 345.5 c 128,-1,33
 340 365 340 365 349 383 c 128,-1,34
 358 401 358 401 361 417.5 c 128,-1,35
 364 434 364 434 364 451 c 0,36,37
 364 473 364 473 355 493.5 c 128,-1,38
 346 514 346 514 329.5 530.5 c 128,-1,39
 313 547 313 547 292.5 556.5 c 128,-1,40
 272 566 272 566 250 566 c 0,41,42
 224 566 224 566 203.5 558.5 c 128,-1,43
 183 551 183 551 167.5 540.5 c 128,-1,44
 152 530 152 530 143 518.5 c 128,-1,45
 134 507 134 507 133 498 c 0,46,47
 131 489 131 489 129 486 c 2,48,-1
 78 526 l 1,0,1
EndSplineSet
EndChar

StartChar: three
Encoding: 51 51 22
Width: 500
Flags: W
LayerCount: 2
Back
Fore
SplineSet
411 467 m 0,0,1
 411 422 411 422 385.5 385 c 128,-1,2
 360 348 360 348 318 332 c 1,3,4
 366 315 366 315 395.5 271 c 128,-1,5
 425 227 425 227 425 171 c 0,6,7
 425 134 425 134 411.5 101 c 128,-1,8
 398 68 398 68 372.5 43 c 128,-1,9
 347 18 347 18 310 3.5 c 128,-1,10
 273 -11 273 -11 226 -11 c 0,11,12
 134 -11 134 -11 69 60 c 1,13,-1
 122 123 l 1,14,15
 126 119 126 119 128 109.5 c 128,-1,16
 130 100 130 100 135 94 c 2,17,-1
 149 81 l 2,18,19
 157 73 157 73 181.5 63 c 128,-1,20
 206 53 206 53 232 53 c 0,21,22
 259 53 259 53 282 63 c 128,-1,23
 305 73 305 73 322 90.5 c 128,-1,24
 339 108 339 108 348.5 131.5 c 128,-1,25
 358 155 358 155 358 181 c 0,26,27
 358 235 358 235 317.5 266.5 c 128,-1,28
 277 298 277 298 211 298 c 0,29,30
 203 298 203 298 195.5 297.5 c 128,-1,31
 188 297 188 297 180 296 c 1,32,-1
 180 352 l 1,33,34
 226 352 226 352 257 361.5 c 128,-1,35
 288 371 288 371 307.5 387 c 128,-1,36
 327 403 327 403 335.5 424.5 c 128,-1,37
 344 446 344 446 344 471 c 0,38,39
 344 489 344 489 336 505.5 c 128,-1,40
 328 522 328 522 314 534.5 c 128,-1,41
 300 547 300 547 280 555 c 128,-1,42
 260 563 260 563 236 563 c 0,43,44
 172 563 172 563 129 515 c 1,45,-1
 90 558 l 1,46,47
 151 625 151 625 239 625 c 0,48,49
 275 625 275 625 306.5 612.5 c 128,-1,50
 338 600 338 600 361 578 c 128,-1,51
 384 556 384 556 397.5 527.5 c 128,-1,52
 411 499 411 499 411 467 c 0,0,1
EndSplineSet
EndChar

StartChar: four
Encoding: 52 52 23
Width: 500
Flags: W
LayerCount: 2
Back
Fore
SplineSet
313 624 m 1,0,-1
 372 624 l 1,1,-1
 372 234 l 1,2,-1
 452 234 l 1,3,-1
 452 172 l 1,4,-1
 372 172 l 1,5,-1
 372 0 l 1,6,-1
 299 0 l 1,7,-1
 299 173 l 1,8,-1
 48 173 l 1,9,-1
 48 224 l 1,10,-1
 313 624 l 1,0,-1
300 513 m 1,11,-1
 117 234 l 1,12,-1
 300 234 l 1,13,-1
 300 513 l 1,11,-1
EndSplineSet
EndChar

StartChar: five
Encoding: 53 53 24
Width: 500
Flags: W
LayerCount: 2
Back
Fore
SplineSet
106 623 m 1,0,-1
 422 623 l 1,1,-1
 422 560 l 1,2,-1
 165 560 l 1,3,-1
 155 381 l 1,4,5
 204 405 204 405 257 405 c 0,6,7
 297 405 297 405 331.5 390.5 c 128,-1,8
 366 376 366 376 391.5 348.5 c 128,-1,9
 417 321 417 321 431 282.5 c 128,-1,10
 445 244 445 244 445 196 c 256,11,12
 445 148 445 148 430 109.5 c 128,-1,13
 415 71 415 71 388.5 44 c 128,-1,14
 362 17 362 17 326.5 3 c 128,-1,15
 291 -11 291 -11 249 -11 c 0,16,17
 192 -11 192 -11 143.5 14 c 128,-1,18
 95 39 95 39 64 85 c 1,19,-1
 126 131 l 1,20,21
 131 128 131 128 131.5 119 c 128,-1,22
 132 110 132 110 133 108 c 0,23,24
 137 101 137 101 147 91 c 128,-1,25
 157 81 157 81 172.5 72 c 128,-1,26
 188 63 188 63 208.5 56.5 c 128,-1,27
 229 50 229 50 253 50 c 256,28,29
 277 50 277 50 299 60.5 c 128,-1,30
 321 71 321 71 337.5 90 c 128,-1,31
 354 109 354 109 364 136.5 c 128,-1,32
 374 164 374 164 374 199 c 256,33,34
 374 234 374 234 364 261.5 c 128,-1,35
 354 289 354 289 336.5 308 c 128,-1,36
 319 327 319 327 296 337 c 128,-1,37
 273 347 273 347 246 347 c 0,38,39
 214 347 214 347 183 331.5 c 128,-1,40
 152 316 152 316 129 288 c 1,41,-1
 85 306 l 1,42,-1
 106 623 l 1,0,-1
EndSplineSet
EndChar

StartChar: six
Encoding: 54 54 25
Width: 500
Flags: W
LayerCount: 2
Back
Fore
SplineSet
287 630 m 0,0,1
 365 630 365 630 424 573 c 1,2,-1
 375 520 l 1,3,4
 366 528 366 528 363 537.5 c 128,-1,5
 360 547 360 547 349 551 c 0,6,7
 334 561 334 561 318.5 564.5 c 128,-1,8
 303 568 303 568 289 568 c 0,9,10
 269 568 269 568 242.5 558.5 c 128,-1,11
 216 549 216 549 193 523 c 128,-1,12
 170 497 170 497 153.5 449.5 c 128,-1,13
 137 402 137 402 136 327 c 1,14,15
 157 362 157 362 192.5 382 c 128,-1,16
 228 402 228 402 268 402 c 0,17,18
 303 402 303 402 334 387.5 c 128,-1,19
 365 373 365 373 388.5 346 c 128,-1,20
 412 319 412 319 425.5 281.5 c 128,-1,21
 439 244 439 244 439 198 c 256,22,23
 439 152 439 152 425 113.5 c 128,-1,24
 411 75 411 75 387 47.5 c 128,-1,25
 363 20 363 20 330.5 5 c 128,-1,26
 298 -10 298 -10 261 -10 c 0,27,28
 214 -10 214 -10 178 10.5 c 128,-1,29
 142 31 142 31 117.5 69 c 128,-1,30
 93 107 93 107 80 161.5 c 128,-1,31
 67 216 67 216 67 284 c 0,32,33
 67 368 67 368 82.5 432.5 c 128,-1,34
 98 497 98 497 127 541 c 128,-1,35
 156 585 156 585 196.5 607.5 c 128,-1,36
 237 630 237 630 287 630 c 0,0,1
140 257 m 0,37,38
 139 251 139 251 139 245 c 128,-1,39
 139 239 139 239 139 233 c 0,40,41
 139 194 139 194 148.5 161 c 128,-1,42
 158 128 158 128 175 104 c 128,-1,43
 192 80 192 80 215 66 c 128,-1,44
 238 52 238 52 264 52 c 0,45,46
 307 52 307 52 339 89 c 128,-1,47
 371 126 371 126 371 197 c 0,48,49
 371 235 371 235 361 262 c 128,-1,50
 351 289 351 289 335.5 306.5 c 128,-1,51
 320 324 320 324 300.5 332.5 c 128,-1,52
 281 341 281 341 262 341 c 0,53,54
 226 341 226 341 193 316.5 c 128,-1,55
 160 292 160 292 140 257 c 0,37,38
EndSplineSet
EndChar

StartChar: seven
Encoding: 55 55 26
Width: 500
Flags: W
LayerCount: 2
Back
Fore
SplineSet
432 584 m 1,0,1
 369 440 369 440 314.5 295 c 128,-1,2
 260 150 260 150 214 0 c 1,3,-1
 135 0 l 1,4,5
 183 143 183 143 235 281 c 128,-1,6
 287 419 287 419 345 557 c 1,7,-1
 79 557 l 1,8,-1
 79 623 l 1,9,-1
 432 623 l 1,10,-1
 432 584 l 1,0,1
EndSplineSet
EndChar

StartChar: eight
Encoding: 56 56 27
Width: 500
Flags: W
LayerCount: 2
Back
Fore
SplineSet
420 483 m 0,0,1
 420 438 420 438 393 397.5 c 128,-1,2
 366 357 366 357 321 333 c 1,3,4
 375 308 375 308 408 261.5 c 128,-1,5
 441 215 441 215 441 161 c 0,6,7
 441 125 441 125 426 93.5 c 128,-1,8
 411 62 411 62 385.5 39 c 128,-1,9
 360 16 360 16 325 3 c 128,-1,10
 290 -10 290 -10 250 -10 c 256,11,12
 210 -10 210 -10 175 3 c 128,-1,13
 140 16 140 16 114.5 38.5 c 128,-1,14
 89 61 89 61 74.5 91.5 c 128,-1,15
 60 122 60 122 60 157 c 0,16,17
 60 211 60 211 94 258 c 128,-1,18
 128 305 128 305 185 331 c 1,19,20
 142 353 142 353 116 392.5 c 128,-1,21
 90 432 90 432 90 477 c 0,22,23
 90 509 90 509 103 537 c 128,-1,24
 116 565 116 565 139 586 c 128,-1,25
 162 607 162 607 192 619 c 128,-1,26
 222 631 222 631 257 631 c 256,27,28
 292 631 292 631 322 619.5 c 128,-1,29
 352 608 352 608 373.5 587.5 c 128,-1,30
 395 567 395 567 407.5 540 c 128,-1,31
 420 513 420 513 420 483 c 0,0,1
237 303 m 1,32,33
 192 284 192 284 162 246.5 c 128,-1,34
 132 209 132 209 132 164 c 0,35,36
 132 141 132 141 141.5 121 c 128,-1,37
 151 101 151 101 167.5 86 c 128,-1,38
 184 71 184 71 205.5 62 c 128,-1,39
 227 53 227 53 252 53 c 256,40,41
 277 53 277 53 298.5 61.5 c 128,-1,42
 320 70 320 70 336 84.5 c 128,-1,43
 352 99 352 99 361 118.5 c 128,-1,44
 370 138 370 138 370 161 c 0,45,46
 370 207 370 207 334 245.5 c 128,-1,47
 298 284 298 284 237 303 c 1,32,33
174 429 m 0,48,49
 186 409 186 409 205.5 394.5 c 128,-1,50
 225 380 225 380 250 367 c 2,51,-1
 267 358 l 1,52,53
 304 378 304 378 328 412 c 128,-1,54
 352 446 352 446 352 481 c 0,55,56
 352 499 352 499 344.5 515 c 128,-1,57
 337 531 337 531 323.5 544 c 128,-1,58
 310 557 310 557 292 564.5 c 128,-1,59
 274 572 274 572 253 572 c 256,60,61
 232 572 232 572 214.5 564.5 c 128,-1,62
 197 557 197 557 184 545 c 128,-1,63
 171 533 171 533 164 517 c 128,-1,64
 157 501 157 501 157 484 c 0,65,66
 157 454 157 454 174 429 c 0,48,49
EndSplineSet
EndChar

StartChar: nine
Encoding: 57 57 28
Width: 500
Flags: W
LayerCount: 2
Back
Fore
SplineSet
217 -10 m 0,0,1
 137 -10 137 -10 79 47 c 1,2,-1
 128 100 l 1,3,4
 133 97 133 97 136.5 88 c 128,-1,5
 140 79 140 79 144 76 c 0,6,7
 173 53 173 53 215 53 c 0,8,9
 290 53 290 53 327 109.5 c 128,-1,10
 364 166 364 166 368 293 c 1,11,12
 346 262 346 262 312 244 c 128,-1,13
 278 226 278 226 239 226 c 0,14,15
 204 226 204 226 173 240.5 c 128,-1,16
 142 255 142 255 118.5 281 c 128,-1,17
 95 307 95 307 81.5 343.5 c 128,-1,18
 68 380 68 380 68 424 c 256,19,20
 68 468 68 468 82 505.5 c 128,-1,21
 96 543 96 543 120.5 570.5 c 128,-1,22
 145 598 145 598 177.5 613.5 c 128,-1,23
 210 629 210 629 247 629 c 0,24,25
 338 629 338 629 387.5 550.5 c 128,-1,26
 437 472 437 472 437 299 c 0,27,28
 437 220 437 220 419.5 162 c 128,-1,29
 402 104 402 104 372 66.5 c 128,-1,30
 342 29 342 29 302 10 c 128,-1,31
 262 -9 262 -9 217 -10 c 0,0,1
364 363 m 0,32,33
 365 371 365 371 365 378.5 c 128,-1,34
 365 386 365 386 365 394 c 0,35,36
 365 433 365 433 355.5 465 c 128,-1,37
 346 497 346 497 330 519.5 c 128,-1,38
 314 542 314 542 293 554.5 c 128,-1,39
 272 567 272 567 250 567 c 0,40,41
 199 567 199 567 167.5 529 c 128,-1,42
 136 491 136 491 136 425 c 0,43,44
 136 393 136 393 145 367.5 c 128,-1,45
 154 342 154 342 168.5 324 c 128,-1,46
 183 306 183 306 201.5 296.5 c 128,-1,47
 220 287 220 287 240 287 c 0,48,49
 280 287 280 287 311.5 307.5 c 128,-1,50
 343 328 343 328 364 363 c 0,32,33
EndSplineSet
EndChar

StartChar: colon
Encoding: 58 58 29
Width: 500
Flags: W
LayerCount: 2
Back
Fore
SplineSet
280 406 m 0,0,1
 298 388 298 388 298 365 c 256,2,3
 298 342 298 342 280 325 c 128,-1,4
 262 308 262 308 238 308 c 0,5,6
 215 308 215 308 197 325 c 128,-1,7
 179 342 179 342 179 365 c 0,8,9
 179 389 179 389 197 406 c 128,-1,10
 215 423 215 423 238 423 c 256,11,12
 261 423 261 423 280 406 c 0,0,1
280 87 m 0,13,14
 298 69 298 69 298 46 c 256,15,16
 298 23 298 23 280.5 6 c 128,-1,17
 263 -11 263 -11 238 -11 c 256,18,19
 213 -11 213 -11 196 5.5 c 128,-1,20
 179 22 179 22 179 46 c 256,21,22
 179 70 179 70 197 87 c 128,-1,23
 215 104 215 104 238 104 c 256,24,25
 261 104 261 104 280 87 c 0,13,14
EndSplineSet
EndChar

StartChar: semicolon
Encoding: 59 59 30
Width: 500
Flags: W
LayerCount: 2
Back
Fore
SplineSet
306 20 m 0,0,1
 306 -59 306 -59 199 -168 c 1,2,-1
 165 -138 l 1,3,4
 193 -112 193 -112 211.5 -82 c 128,-1,5
 230 -52 230 -52 230 -33 c 0,6,7
 230 -23 230 -23 222 -14.5 c 128,-1,8
 214 -6 214 -6 204.5 2 c 128,-1,9
 195 10 195 10 187 20.5 c 128,-1,10
 179 31 179 31 179 44 c 0,11,12
 179 69 179 69 195.5 86 c 128,-1,13
 212 103 212 103 238 103 c 256,14,15
 264 103 264 103 285 80 c 128,-1,16
 306 57 306 57 306 20 c 0,0,1
280 406 m 0,17,18
 298 388 298 388 298 365 c 256,19,20
 298 342 298 342 280 325 c 128,-1,21
 262 308 262 308 238 308 c 0,22,23
 215 308 215 308 197 325 c 128,-1,24
 179 342 179 342 179 365 c 0,25,26
 179 389 179 389 197 406 c 128,-1,27
 215 423 215 423 238 423 c 256,28,29
 261 423 261 423 280 406 c 0,17,18
EndSplineSet
EndChar

StartChar: less
Encoding: 60 60 31
Width: 500
Flags: W
LayerCount: 2
Back
Fore
SplineSet
458 496 m 1,0,-1
 111 319 l 1,1,-1
 461 123 l 1,2,-1
 461 47 l 1,3,-1
 35 296 l 1,4,-1
 35 344 l 1,5,-1
 458 567 l 1,6,-1
 458 496 l 1,0,-1
EndSplineSet
EndChar

StartChar: equal
Encoding: 61 61 32
Width: 500
Flags: W
LayerCount: 2
Back
Fore
SplineSet
45 438 m 1,0,-1
 456 438 l 1,1,-1
 456 377 l 1,2,-1
 45 377 l 1,3,-1
 45 438 l 1,0,-1
45 231 m 1,4,-1
 456 231 l 1,5,-1
 456 170 l 1,6,-1
 45 170 l 1,7,-1
 45 231 l 1,4,-1
EndSplineSet
EndChar

StartChar: greater
Encoding: 62 62 33
Width: 500
Flags: W
LayerCount: 2
Back
Fore
SplineSet
42 496 m 1,0,-1
 42 567 l 1,1,-1
 466 344 l 1,2,-1
 466 296 l 1,3,-1
 40 47 l 1,4,-1
 40 123 l 1,5,-1
 389 319 l 1,6,-1
 42 496 l 1,0,-1
EndSplineSet
EndChar

StartChar: question
Encoding: 63 63 34
Width: 500
Flags: W
LayerCount: 2
Back
Fore
SplineSet
303 85 m 0,0,1
 320 66 320 66 320 44 c 0,2,3
 320 21 320 21 302.5 4 c 128,-1,4
 285 -13 285 -13 261 -13 c 256,5,6
 237 -13 237 -13 219.5 4 c 128,-1,7
 202 21 202 21 202 44 c 256,8,9
 202 67 202 67 219.5 84.5 c 128,-1,10
 237 102 237 102 261 102 c 0,11,12
 284 102 284 102 303 85 c 0,0,1
64 561 m 1,13,14
 96 610 96 610 148 637.5 c 128,-1,15
 200 665 200 665 257 665 c 0,16,17
 297 665 297 665 329.5 651 c 128,-1,18
 362 637 362 637 385 613 c 128,-1,19
 408 589 408 589 421 557 c 128,-1,20
 434 525 434 525 434 489 c 0,21,22
 434 461 434 461 427 439.5 c 128,-1,23
 420 418 420 418 409.5 401 c 128,-1,24
 399 384 399 384 385 371 c 128,-1,25
 371 358 371 358 357 346 c 2,26,-1
 335 328 l 2,27,28
 306 305 306 305 299 281.5 c 128,-1,29
 292 258 292 258 292 226 c 2,30,-1
 292 185 l 1,31,-1
 226 185 l 1,32,-1
 226 226 l 2,33,34
 226 247 226 247 227.5 264 c 128,-1,35
 229 281 229 281 235.5 297.5 c 128,-1,36
 242 314 242 314 255.5 332.5 c 128,-1,37
 269 351 269 351 293 375 c 0,38,39
 328 410 328 410 341.5 438 c 128,-1,40
 355 466 355 466 355 494 c 0,41,42
 355 516 355 516 347 535.5 c 128,-1,43
 339 555 339 555 325 569.5 c 128,-1,44
 311 584 311 584 292.5 592 c 128,-1,45
 274 600 274 600 253 600 c 0,46,47
 211 600 211 600 174.5 576.5 c 128,-1,48
 138 553 138 553 115 513 c 1,49,-1
 64 561 l 1,13,14
EndSplineSet
EndChar

StartChar: at
Encoding: 64 64 35
Width: 500
Flags: W
LayerCount: 2
Back
Fore
SplineSet
435 30 m 1,0,1
 370 -11 370 -11 295 -11 c 0,2,3
 245 -11 245 -11 198 8.5 c 128,-1,4
 151 28 151 28 113.5 67.5 c 128,-1,5
 76 107 76 107 53.5 168 c 128,-1,6
 31 229 31 229 31 313 c 0,7,8
 31 396 31 396 52.5 456.5 c 128,-1,9
 74 517 74 517 108.5 556 c 128,-1,10
 143 595 143 595 185.5 614 c 128,-1,11
 228 633 228 633 271 633 c 0,12,13
 313 633 313 633 348.5 618.5 c 128,-1,14
 384 604 384 604 410 573 c 128,-1,15
 436 542 436 542 450.5 493.5 c 128,-1,16
 465 445 465 445 465 378 c 2,17,-1
 465 175 l 1,18,-1
 405 175 l 1,19,-1
 405 213 l 1,20,21
 366 167 366 167 308 167 c 0,22,23
 279 167 279 167 255 177.5 c 128,-1,24
 231 188 231 188 213 205.5 c 128,-1,25
 195 223 195 223 185 245 c 128,-1,26
 175 267 175 267 175 291 c 0,27,28
 175 364 175 364 225.5 404 c 128,-1,29
 276 444 276 444 387 444 c 2,30,-1
 402 444 l 1,31,32
 402 472 402 472 391.5 496.5 c 128,-1,33
 381 521 381 521 362.5 539.5 c 128,-1,34
 344 558 344 558 319.5 568.5 c 128,-1,35
 295 579 295 579 268 579 c 0,36,37
 236 579 236 579 204 563.5 c 128,-1,38
 172 548 172 548 146.5 516 c 128,-1,39
 121 484 121 484 105 434 c 128,-1,40
 89 384 89 384 89 314 c 0,41,42
 89 246 89 246 107.5 195.5 c 128,-1,43
 126 145 126 145 156 112 c 128,-1,44
 186 79 186 79 224 62.5 c 128,-1,45
 262 46 262 46 301 46 c 0,46,47
 358 46 358 46 408 79 c 1,48,-1
 435 30 l 1,0,1
405 394 m 1,49,-1
 388 394 l 2,50,51
 310 394 310 394 273.5 369 c 128,-1,52
 237 344 237 344 237 305 c 0,53,54
 237 267 237 267 260 244.5 c 128,-1,55
 283 222 283 222 311 222 c 0,56,57
 368 222 368 222 386.5 259.5 c 128,-1,58
 405 297 405 297 405 375 c 2,59,-1
 405 394 l 1,49,-1
EndSplineSet
EndChar

StartChar: A
Encoding: 65 65 36
Width: 500
Flags: W
LayerCount: 2
Back
Fore
SplineSet
15 0 m 1,0,-1
 235 634 l 1,1,-1
 243 634 l 1,2,-1
 483 0 l 1,3,-1
 411 0 l 1,4,-1
 342 182 l 1,5,-1
 144 182 l 1,6,-1
 84 0 l 1,7,-1
 15 0 l 1,0,-1
326 236 m 1,8,-1
 238 474 l 1,9,-1
 158 236 l 1,10,-1
 326 236 l 1,8,-1
EndSplineSet
EndChar

StartChar: B
Encoding: 66 66 37
Width: 500
Flags: W
LayerCount: 2
Back
Fore
SplineSet
48 623 m 1,0,-1
 225 623 l 2,1,2
 279 623 279 623 318.5 612.5 c 128,-1,3
 358 602 358 602 382 581 c 128,-1,4
 406 560 406 560 419 532.5 c 128,-1,5
 432 505 432 505 432 472 c 0,6,7
 432 428 432 428 408 389 c 128,-1,8
 384 350 384 350 340 334 c 1,9,10
 366 325 366 325 387.5 308.5 c 128,-1,11
 409 292 409 292 425 271 c 128,-1,12
 441 250 441 250 449 225.5 c 128,-1,13
 457 201 457 201 457 175 c 0,14,15
 457 96 457 96 401 48 c 128,-1,16
 345 0 345 0 224 0 c 2,17,-1
 48 0 l 1,18,-1
 48 623 l 1,0,-1
117 564 m 1,19,-1
 117 365 l 1,20,-1
 215 365 l 2,21,22
 257 365 257 365 284 372.5 c 128,-1,23
 311 380 311 380 327.5 393 c 128,-1,24
 344 406 344 406 352 424.5 c 128,-1,25
 360 443 360 443 362 464 c 0,26,27
 360 485 360 485 352.5 503 c 128,-1,28
 345 521 345 521 329 534.5 c 128,-1,29
 313 548 313 548 288 556 c 128,-1,30
 263 564 263 564 226 564 c 2,31,-1
 117 564 l 1,19,-1
117 306 m 1,32,-1
 117 61 l 1,33,-1
 236 61 l 2,34,35
 316 61 316 61 347.5 94.5 c 128,-1,36
 379 128 379 128 383 179 c 1,37,38
 381 207 381 207 372 230 c 128,-1,39
 363 253 363 253 344.5 270.5 c 128,-1,40
 326 288 326 288 294.5 297 c 128,-1,41
 263 306 263 306 219 306 c 2,42,-1
 117 306 l 1,32,-1
EndSplineSet
EndChar

StartChar: C
Encoding: 67 67 38
Width: 500
Flags: W
LayerCount: 2
Back
Fore
SplineSet
398 482 m 0,0,1
 398 494 398 494 395 500 c 0,2,3
 375 533 375 533 343 552.5 c 128,-1,4
 311 572 311 572 275 572 c 0,5,6
 241 572 241 572 211 554.5 c 128,-1,7
 181 537 181 537 158 503.5 c 128,-1,8
 135 470 135 470 122 422 c 128,-1,9
 109 374 109 374 109 313 c 0,10,11
 109 254 109 254 122 205.5 c 128,-1,12
 135 157 135 157 158.5 122.5 c 128,-1,13
 182 88 182 88 213.5 69 c 128,-1,14
 245 50 245 50 281 50 c 0,15,16
 318 50 318 50 352.5 70.5 c 128,-1,17
 387 91 387 91 408 126 c 1,18,-1
 460 92 l 1,19,20
 445 67 445 67 424 48 c 128,-1,21
 403 29 403 29 379.5 16 c 128,-1,22
 356 3 356 3 332.5 -3.5 c 128,-1,23
 309 -10 309 -10 285 -10 c 0,24,25
 231 -10 231 -10 189.5 8.5 c 128,-1,26
 148 27 148 27 113.5 66 c 128,-1,27
 79 105 79 105 60 165 c 128,-1,28
 41 225 41 225 41 308 c 0,29,30
 41 400 41 400 63 461.5 c 128,-1,31
 85 523 85 523 121 560 c 128,-1,32
 157 597 157 597 197.5 612.5 c 128,-1,33
 238 628 238 628 276 628 c 0,34,35
 307 628 307 628 336.5 619 c 128,-1,36
 366 610 366 610 391.5 594 c 128,-1,37
 417 578 417 578 437 555.5 c 128,-1,38
 457 533 457 533 469 505 c 1,39,-1
 402 472 l 1,40,41
 398 475 398 475 398 482 c 0,0,1
EndSplineSet
EndChar

StartChar: D
Encoding: 68 68 39
Width: 500
Flags: W
LayerCount: 2
Back
Fore
SplineSet
54 623 m 1,0,-1
 199 623 l 2,1,2
 279 623 279 623 323.5 601 c 128,-1,3
 368 579 368 579 399 538 c 128,-1,4
 430 497 430 497 445 439 c 128,-1,5
 460 381 460 381 460 308 c 0,6,7
 460 236 460 236 442 179 c 128,-1,8
 424 122 424 122 392.5 81.5 c 128,-1,9
 361 41 361 41 311 20 c 128,-1,10
 261 -1 261 -1 187 -1 c 2,11,-1
 54 -1 l 1,12,-1
 54 623 l 1,0,-1
120 564 m 1,13,-1
 120 54 l 1,14,-1
 184 54 l 2,15,16
 291 54 291 54 340.5 118.5 c 128,-1,17
 390 183 390 183 390 304 c 0,18,19
 389 426 389 426 344.5 495 c 128,-1,20
 300 564 300 564 195 564 c 2,21,-1
 120 564 l 1,13,-1
EndSplineSet
EndChar

StartChar: E
Encoding: 69 69 40
Width: 500
Flags: W
LayerCount: 2
Back
Fore
SplineSet
59 624 m 1,0,-1
 441 624 l 1,1,-1
 441 562 l 1,2,-1
 125 562 l 1,3,-1
 125 357 l 1,4,-1
 386 357 l 1,5,-1
 386 293 l 1,6,-1
 125 293 l 1,7,-1
 125 62 l 1,8,-1
 438 62 l 1,9,-1
 438 0 l 1,10,-1
 59 0 l 1,11,-1
 59 624 l 1,0,-1
EndSplineSet
EndChar

StartChar: F
Encoding: 70 70 41
Width: 500
Flags: W
LayerCount: 2
Back
Fore
SplineSet
78 624 m 1,0,-1
 437 624 l 1,1,-1
 437 563 l 1,2,-1
 148 563 l 1,3,-1
 148 367 l 1,4,-1
 381 367 l 1,5,-1
 381 306 l 1,6,-1
 148 306 l 1,7,-1
 148 0 l 1,8,-1
 78 0 l 1,9,-1
 78 624 l 1,0,-1
EndSplineSet
EndChar

StartChar: G
Encoding: 71 71 42
Width: 500
Flags: W
LayerCount: 2
Back
Fore
SplineSet
458 525 m 1,0,-1
 409 475 l 1,1,2
 403 479 403 479 396 494 c 0,3,4
 381 527 381 527 349.5 547.5 c 128,-1,5
 318 568 318 568 276 568 c 0,6,7
 247 568 247 568 216.5 556 c 128,-1,8
 186 544 186 544 161 515 c 128,-1,9
 136 486 136 486 120.5 438.5 c 128,-1,10
 105 391 105 391 105 319 c 0,11,12
 105 254 105 254 118 204 c 128,-1,13
 131 154 131 154 154 120.5 c 128,-1,14
 177 87 177 87 208.5 69.5 c 128,-1,15
 240 52 240 52 277 52 c 0,16,17
 342 52 342 52 395 90 c 1,18,-1
 395 238 l 1,19,-1
 282 238 l 1,20,-1
 282 299 l 1,21,-1
 460 299 l 1,22,-1
 460 55 l 1,23,24
 371 -10 371 -10 277 -10 c 0,25,26
 221 -10 221 -10 176.5 12.5 c 128,-1,27
 132 35 132 35 100.5 76 c 128,-1,28
 69 117 69 117 52.5 175 c 128,-1,29
 36 233 36 233 36 304 c 0,30,31
 36 402 36 402 60.5 468 c 128,-1,32
 85 534 85 534 124 568.5 c 128,-1,33
 163 603 163 603 203.5 616 c 128,-1,34
 244 629 244 629 277 629 c 0,35,36
 334 629 334 629 383 600.5 c 128,-1,37
 432 572 432 572 458 525 c 1,0,-1
EndSplineSet
EndChar

StartChar: H
Encoding: 72 72 43
Width: 500
Flags: W
LayerCount: 2
Back
Fore
SplineSet
54 623 m 1,0,-1
 132 623 l 2,1,2
 133 622 133 622 133 620 c 0,3,4
 133 617 133 617 130.5 612 c 128,-1,5
 128 607 128 607 127 599 c 2,6,-1
 127 356 l 1,7,-1
 371 356 l 1,8,-1
 371 623 l 1,9,-1
 447 623 l 2,10,11
 448 622 448 622 448 620 c 0,12,13
 448 616 448 616 445 611.5 c 128,-1,14
 442 607 442 607 441 601 c 2,15,-1
 441 -1 l 1,16,-1
 370 -1 l 1,17,-1
 370 297 l 1,18,-1
 127 297 l 1,19,-1
 127 0 l 1,20,-1
 54 0 l 1,21,-1
 54 623 l 1,0,-1
EndSplineSet
EndChar

StartChar: I
Encoding: 73 73 44
Width: 500
Flags: W
LayerCount: 2
Back
Fore
SplineSet
88 623 m 1,0,-1
 397 623 l 1,1,-1
 397 564 l 1,2,-1
 274 564 l 1,3,-1
 274 57 l 1,4,-1
 403 57 l 1,5,-1
 403 -1 l 1,6,-1
 81 -1 l 1,7,-1
 81 58 l 1,8,-1
 204 58 l 1,9,-1
 204 564 l 1,10,-1
 88 564 l 1,11,-1
 88 623 l 1,0,-1
EndSplineSet
EndChar

StartChar: J
Encoding: 74 74 45
Width: 500
Flags: W
LayerCount: 2
Back
Fore
SplineSet
172 623 m 1,0,-1
 457 623 l 1,1,-1
 457 564 l 1,2,-1
 361 564 l 1,3,-1
 361 209 l 2,4,5
 361 148 361 148 349.5 107 c 128,-1,6
 338 66 338 66 313 39 c 128,-1,7
 288 12 288 12 259 0.5 c 128,-1,8
 230 -11 230 -11 196 -11 c 0,9,10
 107 -11 107 -11 49 58 c 1,11,-1
 96 115 l 1,12,13
 99 112 99 112 99.5 105.5 c 128,-1,14
 100 99 100 99 103 95 c 2,15,-1
 115 83 l 2,16,17
 119 78 119 78 128 72.5 c 128,-1,18
 137 67 137 67 148.5 62.5 c 128,-1,19
 160 58 160 58 172 54.5 c 128,-1,20
 184 51 184 51 196 51 c 0,21,22
 246 51 246 51 269 86 c 128,-1,23
 292 121 292 121 292 208 c 2,24,-1
 292 564 l 1,25,-1
 172 564 l 1,26,-1
 172 623 l 1,0,-1
EndSplineSet
EndChar

StartChar: K
Encoding: 75 75 46
Width: 500
Flags: W
LayerCount: 2
Back
Fore
SplineSet
42 624 m 1,0,-1
 126 624 l 1,1,2
 126 618 126 618 121.5 611.5 c 128,-1,3
 117 605 117 605 117 598 c 2,4,-1
 117 336 l 1,5,-1
 377 628 l 1,6,7
 399 623 399 623 429 623 c 2,8,-1
 455 623 l 1,9,-1
 219 354 l 1,10,-1
 471 0 l 1,11,-1
 381 -4 l 1,12,-1
 166 312 l 1,13,-1
 117 258 l 1,14,-1
 117 0 l 1,15,-1
 42 0 l 1,16,-1
 42 624 l 1,0,-1
EndSplineSet
EndChar

StartChar: L
Encoding: 76 76 47
Width: 500
Flags: W
LayerCount: 2
Back
Fore
SplineSet
66 623 m 1,0,-1
 148 623 l 1,1,2
 148 616 148 616 143.5 607 c 128,-1,3
 139 598 139 598 139 589 c 2,4,-1
 139 61 l 1,5,-1
 439 61 l 1,6,-1
 439 0 l 1,7,-1
 66 0 l 1,8,-1
 66 623 l 1,0,-1
EndSplineSet
EndChar

StartChar: M
Encoding: 77 77 48
Width: 500
Flags: W
LayerCount: 2
Back
Fore
SplineSet
41 623 m 1,0,-1
 96 623 l 1,1,-1
 250 318 l 1,2,-1
 407 624 l 1,3,-1
 460 624 l 1,4,-1
 460 0 l 1,5,-1
 394 0 l 1,6,-1
 394 470 l 1,7,-1
 259 219 l 1,8,-1
 232 219 l 1,9,-1
 106 467 l 1,10,-1
 106 0 l 1,11,-1
 41 0 l 1,12,-1
 41 623 l 1,0,-1
EndSplineSet
EndChar

StartChar: N
Encoding: 78 78 49
Width: 500
Flags: W
LayerCount: 2
Back
Fore
SplineSet
50 0 m 1,0,-1
 50 623 l 1,1,-1
 118 623 l 1,2,-1
 380 161 l 1,3,-1
 380 624 l 1,4,-1
 454 624 l 1,5,6
 454 618 454 618 450.5 611 c 128,-1,7
 447 604 447 604 447 597 c 2,8,-1
 447 0 l 1,9,-1
 392 0 l 1,10,-1
 117 490 l 1,11,-1
 117 0 l 1,12,-1
 50 0 l 1,0,-1
EndSplineSet
EndChar

StartChar: O
Encoding: 79 79 50
Width: 500
Flags: W
LayerCount: 2
Back
Fore
SplineSet
254 -10 m 0,0,1
 203 -10 203 -10 161.5 13.5 c 128,-1,2
 120 37 120 37 90.5 79.5 c 128,-1,3
 61 122 61 122 45 181.5 c 128,-1,4
 29 241 29 241 29 313 c 256,5,6
 29 385 29 385 45.5 444 c 128,-1,7
 62 503 62 503 92 544 c 128,-1,8
 122 585 122 585 164 607.5 c 128,-1,9
 206 630 206 630 256 630 c 0,10,11
 300 630 300 630 338 611 c 128,-1,12
 376 592 376 592 407.5 553.5 c 128,-1,13
 439 515 439 515 455 455 c 128,-1,14
 471 395 471 395 471 312 c 0,15,16
 471 222 471 222 452 160.5 c 128,-1,17
 433 99 433 99 402 61 c 128,-1,18
 371 23 371 23 332.5 6.5 c 128,-1,19
 294 -10 294 -10 254 -10 c 0,0,1
150 115 m 0,20,21
 197 59 197 59 254 59 c 0,22,23
 281 59 281 59 307 70.5 c 128,-1,24
 333 82 333 82 354.5 111 c 128,-1,25
 376 140 376 140 388.5 189 c 128,-1,26
 401 238 401 238 401 314 c 0,27,28
 401 388 401 388 387 435.5 c 128,-1,29
 373 483 373 483 351.5 511 c 128,-1,30
 330 539 330 539 306.5 551.5 c 128,-1,31
 283 564 283 564 256 564 c 0,32,33
 225 565 225 565 199 553 c 128,-1,34
 173 541 173 541 150 514 c 128,-1,35
 127 487 127 487 112.5 440 c 128,-1,36
 98 393 98 393 98 319 c 0,37,38
 98 250 98 250 112.5 197 c 128,-1,39
 127 144 127 144 150 115 c 0,20,21
EndSplineSet
EndChar

StartChar: P
Encoding: 80 80 51
Width: 500
Flags: W
LayerCount: 2
Back
Fore
SplineSet
59 623 m 1,0,-1
 259 623 l 2,1,2
 311 623 311 623 347.5 609.5 c 128,-1,3
 384 596 384 596 407.5 571.5 c 128,-1,4
 431 547 431 547 442.5 515 c 128,-1,5
 454 483 454 483 456 447 c 0,6,7
 454 411 454 411 442.5 379.5 c 128,-1,8
 431 348 431 348 408.5 325 c 128,-1,9
 386 302 386 302 350.5 288.5 c 128,-1,10
 315 275 315 275 264 275 c 2,11,-1
 131 275 l 1,12,-1
 131 0 l 1,13,-1
 59 0 l 1,14,-1
 59 623 l 1,0,-1
131 557 m 1,15,-1
 131 337 l 1,16,-1
 256 337 l 2,17,18
 324 337 324 337 352.5 366.5 c 128,-1,19
 381 396 381 396 384 445 c 0,20,21
 382 468 382 468 374.5 488.5 c 128,-1,22
 367 509 367 509 352 524 c 128,-1,23
 337 539 337 539 313.5 548 c 128,-1,24
 290 557 290 557 257 557 c 2,25,-1
 131 557 l 1,15,-1
EndSplineSet
EndChar

StartChar: Q
Encoding: 81 81 52
Width: 500
Flags: W
LayerCount: 2
Back
Fore
SplineSet
149 514 m 0,0,1
 97 455 97 455 97 323 c 0,2,3
 97 263 97 263 107.5 214 c 128,-1,4
 118 165 118 165 138.5 130 c 128,-1,5
 159 95 159 95 189.5 75 c 128,-1,6
 220 55 220 55 256 55 c 0,7,8
 281 55 281 55 307.5 67.5 c 128,-1,9
 334 80 334 80 356 108.5 c 128,-1,10
 378 137 378 137 391 182.5 c 128,-1,11
 404 228 404 228 404 294 c 0,12,13
 404 378 404 378 390 431 c 128,-1,14
 376 484 376 484 351.5 514 c 128,-1,15
 327 544 327 544 301 555.5 c 128,-1,16
 275 567 275 567 251 567 c 0,17,18
 221 567 221 567 195 552 c 128,-1,19
 169 537 169 537 149 514 c 0,0,1
471 311 m 0,20,21
 471 173 471 173 424.5 93 c 128,-1,22
 378 13 378 13 287 -7 c 1,23,24
 289 -40 289 -40 304 -61 c 128,-1,25
 319 -82 319 -82 361 -82 c 0,26,27
 366 -82 366 -82 377 -81 c 128,-1,28
 388 -80 388 -80 401 -79.5 c 128,-1,29
 414 -79 414 -79 425.5 -78 c 128,-1,30
 437 -77 437 -77 442 -77 c 1,31,-1
 440 -145 l 1,32,-1
 401 -145 l 2,33,34
 352 -145 352 -145 318.5 -140 c 128,-1,35
 285 -135 285 -135 264.5 -117 c 128,-1,36
 244 -99 244 -99 235 -72.5 c 128,-1,37
 226 -46 226 -46 226 -7 c 1,38,39
 188 -2 188 -2 153 19.5 c 128,-1,40
 118 41 118 41 90 80 c 128,-1,41
 62 119 62 119 45.5 175.5 c 128,-1,42
 29 232 29 232 29 308 c 0,43,44
 29 402 29 402 50.5 464 c 128,-1,45
 72 526 72 526 105 562 c 128,-1,46
 138 598 138 598 177 614 c 128,-1,47
 216 630 216 630 251 630 c 0,48,49
 294 630 294 630 333.5 612 c 128,-1,50
 373 594 373 594 405.5 554.5 c 128,-1,51
 438 515 438 515 454.5 456 c 128,-1,52
 471 397 471 397 471 311 c 0,20,21
EndSplineSet
EndChar

StartChar: R
Encoding: 82 82 53
Width: 500
Flags: W
LayerCount: 2
Back
Fore
SplineSet
56 623 m 1,0,-1
 240 623 l 2,1,2
 350 623 350 623 398.5 574 c 128,-1,3
 447 525 447 525 447 445 c 0,4,5
 447 418 447 418 438 391.5 c 128,-1,6
 429 365 429 365 412.5 342 c 128,-1,7
 396 319 396 319 372.5 302 c 128,-1,8
 349 285 349 285 320 278 c 1,9,-1
 464 0 l 1,10,-1
 386 0 l 1,11,-1
 248 275 l 1,12,-1
 127 275 l 1,13,-1
 127 0 l 1,14,-1
 56 0 l 1,15,-1
 56 623 l 1,0,-1
127 557 m 1,16,-1
 127 337 l 1,17,-1
 248 337 l 2,18,19
 315 337 315 337 345 366.5 c 128,-1,20
 375 396 375 396 375 445 c 0,21,22
 375 469 375 469 367 489 c 128,-1,23
 359 509 359 509 344.5 524 c 128,-1,24
 330 539 330 539 306 548 c 128,-1,25
 282 557 282 557 248 557 c 2,26,-1
 127 557 l 1,16,-1
EndSplineSet
EndChar

StartChar: S
Encoding: 83 83 54
Width: 500
Flags: W
LayerCount: 2
Back
Fore
SplineSet
435 549 m 1,0,-1
 391 489 l 1,1,2
 386 491 386 491 385.5 497.5 c 128,-1,3
 385 504 385 504 383 507 c 0,4,5
 364 535 364 535 331.5 552 c 128,-1,6
 299 569 299 569 251 569 c 0,7,8
 205 569 205 569 174.5 542 c 128,-1,9
 144 515 144 515 144 478 c 0,10,11
 144 456 144 456 151.5 440 c 128,-1,12
 159 424 159 424 174.5 409 c 128,-1,13
 190 394 190 394 220 378.5 c 128,-1,14
 250 363 250 363 298 344 c 0,15,16
 344 325 344 325 374 306.5 c 128,-1,17
 404 288 404 288 422 267 c 128,-1,18
 440 246 440 246 447.5 222.5 c 128,-1,19
 455 199 455 199 455 170 c 0,20,21
 455 138 455 138 443 105.5 c 128,-1,22
 431 73 431 73 405.5 47.5 c 128,-1,23
 380 22 380 22 341 6 c 128,-1,24
 302 -10 302 -10 247 -10 c 0,25,26
 126 -10 126 -10 52 70 c 1,27,-1
 93 142 l 1,28,29
 98 139 98 139 98 132 c 128,-1,30
 98 125 98 125 101 121 c 0,31,32
 124 92 124 92 163 72.5 c 128,-1,33
 202 53 202 53 257 53 c 0,34,35
 285 53 285 53 308.5 62.5 c 128,-1,36
 332 72 332 72 349 87.5 c 128,-1,37
 366 103 366 103 376 124.5 c 128,-1,38
 386 146 386 146 386 170 c 0,39,40
 386 189 386 189 379.5 204.5 c 128,-1,41
 373 220 373 220 358 233.5 c 128,-1,42
 343 247 343 247 315.5 260.5 c 128,-1,43
 288 274 288 274 243 292 c 0,44,45
 194 311 194 311 161.5 330.5 c 128,-1,46
 129 350 129 350 109 370 c 128,-1,47
 89 390 89 390 80.5 413 c 128,-1,48
 72 436 72 436 72 463 c 0,49,50
 72 497 72 497 86.5 527 c 128,-1,51
 101 557 101 557 126.5 579.5 c 128,-1,52
 152 602 152 602 187 614.5 c 128,-1,53
 222 627 222 627 262 627 c 0,54,55
 313 627 313 627 358 606.5 c 128,-1,56
 403 586 403 586 435 549 c 1,0,-1
EndSplineSet
EndChar

StartChar: T
Encoding: 84 84 55
Width: 500
Flags: W
LayerCount: 2
Back
Fore
SplineSet
31 624 m 1,0,-1
 463 624 l 1,1,-1
 463 561 l 1,2,-1
 279 561 l 1,3,-1
 279 0 l 1,4,-1
 208 0 l 1,5,-1
 208 561 l 1,6,-1
 31 561 l 1,7,-1
 31 624 l 1,0,-1
EndSplineSet
EndChar

StartChar: U
Encoding: 85 85 56
Width: 500
Flags: W
LayerCount: 2
Back
Fore
SplineSet
50 623 m 1,0,-1
 129 623 l 2,1,2
 130 623 130 623 130 621 c 0,3,4
 130 617 130 617 125.5 609.5 c 128,-1,5
 121 602 121 602 119 591 c 2,6,-1
 119 214 l 2,7,8
 119 162 119 162 129 133.5 c 128,-1,9
 139 105 139 105 157 86.5 c 128,-1,10
 175 68 175 68 199.5 59 c 128,-1,11
 224 50 224 50 252 48 c 0,12,13
 280 50 280 50 304.5 58 c 128,-1,14
 329 66 329 66 347.5 85.5 c 128,-1,15
 366 105 366 105 376.5 134 c 128,-1,16
 387 163 387 163 387 217 c 2,17,-1
 387 623 l 1,18,-1
 454 623 l 1,19,-1
 454 218 l 2,20,21
 454 157 454 157 440.5 115 c 128,-1,22
 427 73 427 73 399 45 c 128,-1,23
 371 17 371 17 334 3 c 128,-1,24
 297 -11 297 -11 251 -11 c 0,25,26
 206 -11 206 -11 169 3 c 128,-1,27
 132 17 132 17 105.5 44 c 128,-1,28
 79 71 79 71 64.5 110 c 128,-1,29
 50 149 50 149 50 215 c 2,30,-1
 50 623 l 1,0,-1
EndSplineSet
EndChar

StartChar: V
Encoding: 86 86 57
Width: 500
Flags: W
LayerCount: 2
Back
Fore
SplineSet
25 624 m 1,0,-1
 98 624 l 1,1,-1
 258 145 l 1,2,-1
 409 623 l 1,3,-1
 478 623 l 1,4,-1
 269 -4 l 1,5,-1
 237 -4 l 1,6,-1
 25 624 l 1,0,-1
EndSplineSet
EndChar

StartChar: W
Encoding: 87 87 58
Width: 500
Flags: W
LayerCount: 2
Back
Fore
SplineSet
17 623 m 1,0,-1
 82 623 l 1,1,-1
 149 202 l 1,2,-1
 249 577 l 1,3,-1
 271 577 l 1,4,-1
 372 200 l 1,5,-1
 429 623 l 1,6,-1
 488 623 l 1,7,-1
 389 -4 l 1,8,-1
 362 -4 l 1,9,-1
 255 407 l 1,10,-1
 146 -4 l 1,11,-1
 117 -4 l 1,12,-1
 17 623 l 1,0,-1
EndSplineSet
EndChar

StartChar: X
Encoding: 88 88 59
Width: 500
Flags: W
LayerCount: 2
Back
Fore
SplineSet
379 624 m 1,0,-1
 449 624 l 1,1,-1
 291 319 l 1,2,-1
 468 0 l 1,3,-1
 389 0 l 1,4,-1
 251 247 l 1,5,-1
 117 0 l 1,6,-1
 41 0 l 1,7,-1
 211 318 l 1,8,-1
 44 624 l 1,9,-1
 119 624 l 1,10,-1
 250 387 l 1,11,-1
 379 624 l 1,0,-1
EndSplineSet
EndChar

StartChar: Y
Encoding: 89 89 60
Width: 500
Flags: W
LayerCount: 2
Back
Fore
SplineSet
28 623 m 1,0,-1
 108 623 l 1,1,-1
 261 321 l 1,2,-1
 399 623 l 1,3,-1
 473 623 l 1,4,-1
 296 246 l 1,5,-1
 296 0 l 1,6,-1
 220 0 l 1,7,-1
 220 246 l 1,8,-1
 28 623 l 1,0,-1
EndSplineSet
EndChar

StartChar: Z
Encoding: 90 90 61
Width: 500
Flags: W
LayerCount: 2
Back
Fore
SplineSet
62 623 m 1,0,-1
 447 623 l 1,1,-1
 447 574 l 1,2,-1
 138 62 l 1,3,-1
 432 62 l 2,4,5
 439 62 439 62 447.5 65 c 128,-1,6
 456 68 456 68 463 68 c 1,7,-1
 463 0 l 1,8,-1
 50 0 l 1,9,-1
 50 49 l 1,10,-1
 364 560 l 1,11,-1
 62 560 l 1,12,-1
 62 623 l 1,0,-1
EndSplineSet
EndChar

StartChar: bracketleft
Encoding: 91 91 62
Width: 500
Flags: W
LayerCount: 2
Back
Fore
SplineSet
131 670 m 1,0,-1
 417 670 l 1,1,-1
 417 610 l 1,2,-1
 195 610 l 1,3,-1
 195 -32 l 1,4,-1
 418 -32 l 1,5,-1
 418 -89 l 1,6,-1
 131 -89 l 1,7,-1
 131 670 l 1,0,-1
EndSplineSet
EndChar

StartChar: backslash
Encoding: 92 92 63
Width: 500
Flags: W
LayerCount: 2
Back
Fore
SplineSet
437 -13 m 1,0,-1
 378 -42 l 1,1,-1
 64 634 l 1,2,-1
 123 665 l 1,3,-1
 437 -13 l 1,0,-1
EndSplineSet
EndChar

StartChar: bracketright
Encoding: 93 93 64
Width: 500
Flags: W
LayerCount: 2
Back
Fore
SplineSet
369 670 m 1,0,-1
 369 -89 l 1,1,-1
 83 -89 l 1,2,-1
 83 -32 l 1,3,-1
 306 -32 l 1,4,-1
 306 610 l 1,5,-1
 84 610 l 1,6,-1
 84 670 l 1,7,-1
 369 670 l 1,0,-1
EndSplineSet
EndChar

StartChar: asciicircum
Encoding: 94 94 65
Width: 500
Flags: W
LayerCount: 2
Back
Fore
SplineSet
93 367 m 1,0,-1
 246 623 l 1,1,-1
 268 623 l 1,2,-1
 403 368 l 1,3,-1
 350 343 l 1,4,-1
 253 518 l 1,5,-1
 143 343 l 1,6,-1
 93 367 l 1,0,-1
EndSplineSet
EndChar

StartChar: underscore
Encoding: 95 95 66
Width: 500
Flags: W
LayerCount: 2
Back
Fore
SplineSet
35 -19 m 1,0,-1
 466 -19 l 1,1,-1
 466 -80 l 1,2,-1
 35 -80 l 1,3,-1
 35 -19 l 1,0,-1
EndSplineSet
EndChar

StartChar: a
Encoding: 97 97 67
Width: 500
Flags: W
LayerCount: 2
Back
Fore
SplineSet
91 403 m 1,0,1
 152 467 152 467 254 467 c 0,2,3
 338 467 338 467 386.5 424.5 c 128,-1,4
 435 382 435 382 435 283 c 2,5,-1
 435 0 l 1,6,-1
 367 0 l 1,7,-1
 367 50 l 1,8,9
 294 -11 294 -11 203 -11 c 0,10,11
 167 -11 167 -11 138.5 0 c 128,-1,12
 110 11 110 11 90 29 c 128,-1,13
 70 47 70 47 59.5 70 c 128,-1,14
 49 93 49 93 49 116 c 0,15,16
 49 185 49 185 108.5 225 c 128,-1,17
 168 265 168 265 280 269 c 1,18,-1
 366 269 l 1,19,-1
 366 286 l 2,20,21
 366 354 366 354 337.5 381 c 128,-1,22
 309 408 309 408 249 408 c 0,23,24
 175 408 175 408 126 357 c 1,25,-1
 91 403 l 1,0,1
369 214 m 1,26,-1
 352 214 l 2,27,28
 338 214 338 214 325.5 214.5 c 128,-1,29
 313 215 313 215 301 215 c 0,30,31
 246 215 246 215 211 207.5 c 128,-1,32
 176 200 176 200 156 187 c 128,-1,33
 136 174 136 174 128.5 157.5 c 128,-1,34
 121 141 121 141 121 122 c 0,35,36
 121 90 121 90 149 67 c 128,-1,37
 177 44 177 44 218 44 c 0,38,39
 248 44 248 44 272 53.5 c 128,-1,40
 296 63 296 63 314 76.5 c 128,-1,41
 332 90 332 90 343 104.5 c 128,-1,42
 354 119 354 119 359 130 c 0,43,44
 369 150 369 150 369 184 c 2,45,-1
 369 214 l 1,26,-1
EndSplineSet
EndChar

StartChar: b
Encoding: 98 98 68
Width: 500
Flags: W
LayerCount: 2
Back
Fore
SplineSet
60 665 m 1,0,-1
 144 665 l 1,1,-1
 144 663 l 2,2,3
 144 658 144 658 138.5 653.5 c 128,-1,4
 133 649 133 649 133 643 c 2,5,-1
 133 387 l 1,6,7
 155 424 155 424 192.5 446 c 128,-1,8
 230 468 230 468 269 468 c 0,9,10
 307 468 307 468 341 453.5 c 128,-1,11
 375 439 375 439 401 409.5 c 128,-1,12
 427 380 427 380 442 336 c 128,-1,13
 457 292 457 292 457 233 c 0,14,15
 457 171 457 171 440.5 125.5 c 128,-1,16
 424 80 424 80 397 49.5 c 128,-1,17
 370 19 370 19 336 4 c 128,-1,18
 302 -11 302 -11 266 -11 c 0,19,20
 224 -11 224 -11 189 8 c 128,-1,21
 154 27 154 27 131 60 c 1,22,-1
 106 0 l 1,23,-1
 60 0 l 1,24,-1
 60 665 l 1,0,-1
185 70 m 0,25,26
 204 60 204 60 219 56.5 c 128,-1,27
 234 53 234 53 247 53 c 0,28,29
 267 53 267 53 291 60.5 c 128,-1,30
 315 68 315 68 335.5 87 c 128,-1,31
 356 106 356 106 369.5 138 c 128,-1,32
 383 170 383 170 383 219 c 0,33,34
 383 310 383 310 346 358 c 128,-1,35
 309 406 309 406 239 406 c 0,36,37
 214 406 214 406 186 388 c 128,-1,38
 158 370 158 370 145 340 c 0,39,40
 133 310 133 310 133 242 c 0,41,42
 133 200 133 200 135 171 c 128,-1,43
 137 142 137 142 143 122.5 c 128,-1,44
 149 103 149 103 159 91 c 128,-1,45
 169 79 169 79 185 70 c 0,25,26
EndSplineSet
EndChar

StartChar: c
Encoding: 99 99 69
Width: 500
Flags: W
LayerCount: 2
Back
Fore
SplineSet
457 381 m 1,0,-1
 406 322 l 1,1,2
 401 325 401 325 401.5 328.5 c 128,-1,3
 402 332 402 332 400.5 338 c 128,-1,4
 399 344 399 344 393 353 c 128,-1,5
 387 362 387 362 369 377 c 0,6,7
 335 405 335 405 276 405 c 0,8,9
 247 405 247 405 220.5 393 c 128,-1,10
 194 381 194 381 174 358.5 c 128,-1,11
 154 336 154 336 142 304.5 c 128,-1,12
 130 273 130 273 130 234 c 256,13,14
 130 195 130 195 142 162 c 128,-1,15
 154 129 154 129 175 105 c 128,-1,16
 196 81 196 81 225 67.5 c 128,-1,17
 254 54 254 54 289 54 c 0,18,19
 358 54 358 54 408 110 c 1,20,-1
 450 61 l 1,21,22
 382 -11 382 -11 283 -11 c 0,23,24
 234 -11 234 -11 192.5 7 c 128,-1,25
 151 25 151 25 120.5 57 c 128,-1,26
 90 89 90 89 73 132.5 c 128,-1,27
 56 176 56 176 56 228 c 0,28,29
 56 279 56 279 73 323 c 128,-1,30
 90 367 90 367 120.5 398.5 c 128,-1,31
 151 430 151 430 193.5 448 c 128,-1,32
 236 466 236 466 286 466 c 0,33,34
 340 466 340 466 384.5 443.5 c 128,-1,35
 429 421 429 421 457 381 c 1,0,-1
EndSplineSet
EndChar

StartChar: d
Encoding: 100 100 70
Width: 500
Flags: W
LayerCount: 2
Back
Fore
SplineSet
371 390 m 1,0,-1
 371 665 l 1,1,-1
 448 665 l 1,2,3
 448 659 448 659 443 651.5 c 128,-1,4
 438 644 438 644 438 637 c 2,5,-1
 439 42 l 2,6,7
 439 18 439 18 444 0 c 1,8,-1
 372 0 l 1,9,10
 368 12 368 12 368 34 c 2,11,-1
 368 73 l 1,12,13
 346 35 346 35 308 12.5 c 128,-1,14
 270 -10 270 -10 231 -10 c 0,15,16
 193 -10 193 -10 159.5 5 c 128,-1,17
 126 20 126 20 100.5 50 c 128,-1,18
 75 80 75 80 60 125.5 c 128,-1,19
 45 171 45 171 45 233 c 0,20,21
 45 296 45 296 62 340.5 c 128,-1,22
 79 385 79 385 106.5 413.5 c 128,-1,23
 134 442 134 442 168 455.5 c 128,-1,24
 202 469 202 469 237 469 c 0,25,26
 285 469 285 469 319.5 447.5 c 128,-1,27
 354 426 354 426 371 390 c 1,0,-1
158 376 m 0,28,29
 115 337 115 337 115 244 c 0,30,31
 115 158 115 158 148 105.5 c 128,-1,32
 181 53 181 53 245 53 c 0,33,34
 260 53 260 53 277 58.5 c 128,-1,35
 294 64 294 64 309 75 c 128,-1,36
 324 86 324 86 336 101 c 128,-1,37
 348 116 348 116 354 135 c 0,38,39
 365 171 365 171 365 231 c 0,40,41
 365 269 365 269 362 294.5 c 128,-1,42
 359 320 359 320 352.5 338 c 128,-1,43
 346 356 346 356 336 367.5 c 128,-1,44
 326 379 326 379 311 388 c 0,45,46
 293 399 293 399 277.5 404.5 c 128,-1,47
 262 410 262 410 248 410 c 0,48,49
 219 410 219 410 198.5 402 c 128,-1,50
 178 394 178 394 158 376 c 0,28,29
EndSplineSet
EndChar

StartChar: e
Encoding: 101 101 71
Width: 500
Flags: W
LayerCount: 2
Back
Fore
SplineSet
259 468 m 0,0,1
 295 468 295 468 329 455 c 128,-1,2
 363 442 363 442 388.5 415.5 c 128,-1,3
 414 389 414 389 429.5 348 c 128,-1,4
 445 307 445 307 445 251 c 0,5,6
 445 243 445 243 444.5 234.5 c 128,-1,7
 444 226 444 226 443 218 c 1,8,-1
 118 218 l 1,9,10
 120 170 120 170 134.5 137.5 c 128,-1,11
 149 105 149 105 171 85 c 128,-1,12
 193 65 193 65 220 56.5 c 128,-1,13
 247 48 247 48 274 48 c 0,14,15
 345 48 345 48 392 99 c 1,16,-1
 432 60 l 1,17,18
 374 -10 374 -10 272 -10 c 0,19,20
 222 -10 222 -10 180.5 5.5 c 128,-1,21
 139 21 139 21 110 51 c 128,-1,22
 81 81 81 81 65 125.5 c 128,-1,23
 49 170 49 170 49 227 c 0,24,25
 49 285 49 285 65.5 330 c 128,-1,26
 82 375 82 375 110.5 405.5 c 128,-1,27
 139 436 139 436 177 452 c 128,-1,28
 215 468 215 468 259 468 c 0,0,1
121 274 m 1,29,-1
 372 274 l 1,30,31
 372 278 372 278 372.5 281.5 c 128,-1,32
 373 285 373 285 373 290 c 0,33,34
 373 315 373 315 363.5 337.5 c 128,-1,35
 354 360 354 360 338 376.5 c 128,-1,36
 322 393 322 393 300.5 403 c 128,-1,37
 279 413 279 413 254 413 c 0,38,39
 207 413 207 413 169 379.5 c 128,-1,40
 131 346 131 346 121 274 c 1,29,-1
EndSplineSet
EndChar

StartChar: f
Encoding: 102 102 72
Width: 500
Flags: W
LayerCount: 2
Back
Fore
SplineSet
343 671 m 0,0,1
 430 671 430 671 483 608 c 1,2,-1
 450 542 l 1,3,4
 442 542 442 542 442 550 c 128,-1,5
 442 558 442 558 440 562 c 0,6,7
 424 585 424 585 397.5 599.5 c 128,-1,8
 371 614 371 614 340 614 c 0,9,10
 314 614 314 614 295 606.5 c 128,-1,11
 276 599 276 599 261 582 c 128,-1,12
 246 565 246 565 238.5 536 c 128,-1,13
 231 507 231 507 231 465 c 2,14,-1
 231 430 l 1,15,-1
 381 430 l 1,16,-1
 381 373 l 1,17,-1
 231 373 l 1,18,-1
 231 0 l 1,19,-1
 162 0 l 1,20,-1
 162 373 l 1,21,-1
 63 373 l 1,22,-1
 63 430 l 1,23,-1
 162 430 l 1,24,-1
 162 475 l 2,25,26
 162 528 162 528 175.5 565.5 c 128,-1,27
 189 603 189 603 214.5 626 c 128,-1,28
 240 649 240 649 272.5 660 c 128,-1,29
 305 671 305 671 343 671 c 0,0,1
EndSplineSet
EndChar

StartChar: g
Encoding: 103 103 73
Width: 500
Flags: W
LayerCount: 2
Back
Fore
SplineSet
155 385 m 0,0,1
 140 370 140 370 133 352 c 128,-1,2
 126 334 126 334 126 314 c 256,3,4
 126 294 126 294 134 275.5 c 128,-1,5
 142 257 142 257 155.5 243.5 c 128,-1,6
 169 230 169 230 187.5 222 c 128,-1,7
 206 214 206 214 226 214 c 0,8,9
 247 214 247 214 265 222 c 128,-1,10
 283 230 283 230 297 244 c 128,-1,11
 311 258 311 258 319 276 c 128,-1,12
 327 294 327 294 327 314 c 256,13,14
 327 334 327 334 319 352.5 c 128,-1,15
 311 371 311 371 297 385 c 128,-1,16
 283 399 283 399 264.5 407 c 128,-1,17
 246 415 246 415 226 415 c 0,18,19
 185 415 185 415 155 385 c 0,0,1
339 428 m 1,20,21
 387 469 387 469 453 469 c 2,22,-1
 466 469 l 1,23,-1
 475 410 l 1,24,25
 468 411 468 411 461.5 411.5 c 128,-1,26
 455 412 455 412 448 412 c 0,27,28
 404 412 404 412 369 390 c 1,29,30
 392 355 392 355 392 313 c 0,31,32
 392 281 392 281 379 252.5 c 128,-1,33
 366 224 366 224 343.5 202.5 c 128,-1,34
 321 181 321 181 291 168.5 c 128,-1,35
 261 156 261 156 227 156 c 0,36,37
 199 156 199 156 169 167 c 1,38,39
 137 136 137 136 137 115 c 0,40,41
 137 98 137 98 156.5 88.5 c 128,-1,42
 176 79 176 79 210 79 c 0,43,44
 229 79 229 79 248.5 80.5 c 128,-1,45
 268 82 268 82 285 82 c 0,46,47
 330 82 330 82 362.5 73.5 c 128,-1,48
 395 65 395 65 415 49.5 c 128,-1,49
 435 34 435 34 445 13 c 128,-1,50
 455 -8 455 -8 455 -32 c 0,51,52
 455 -59 455 -59 442 -84.5 c 128,-1,53
 429 -110 429 -110 403 -129.5 c 128,-1,54
 377 -149 377 -149 337.5 -160.5 c 128,-1,55
 298 -172 298 -172 245 -172 c 0,56,57
 190 -172 190 -172 150.5 -163.5 c 128,-1,58
 111 -155 111 -155 87 -140 c 128,-1,59
 63 -125 63 -125 50.5 -105.5 c 128,-1,60
 38 -86 38 -86 38 -64 c 0,61,62
 38 -10 38 -10 113 37 c 1,63,64
 76 56 76 56 76 100 c 0,65,66
 76 143 76 143 128 186 c 1,67,68
 96 207 96 207 78 240 c 128,-1,69
 60 273 60 273 60 310 c 0,70,71
 60 344 60 344 74 373.5 c 128,-1,72
 88 403 88 403 111.5 425 c 128,-1,73
 135 447 135 447 165.5 459.5 c 128,-1,74
 196 472 196 472 228 472 c 0,75,76
 295 472 295 472 339 428 c 1,20,21
161 24 m 1,77,78
 104 -8 104 -8 104 -46 c 0,79,80
 104 -66 104 -66 115.5 -79.5 c 128,-1,81
 127 -93 127 -93 146.5 -101.5 c 128,-1,82
 166 -110 166 -110 192.5 -114 c 128,-1,83
 219 -118 219 -118 248 -118 c 0,84,85
 309 -118 309 -118 349 -96 c 128,-1,86
 389 -74 389 -74 389 -37 c 0,87,88
 387 -10 387 -10 366.5 5 c 128,-1,89
 346 20 346 20 302 20 c 0,90,91
 297 20 297 20 292 19.5 c 128,-1,92
 287 19 287 19 282 19 c 0,93,94
 244 19 244 19 214 20.5 c 128,-1,95
 184 22 184 22 161 24 c 1,77,78
EndSplineSet
EndChar

StartChar: h
Encoding: 104 104 74
Width: 500
Flags: W
LayerCount: 2
Back
Fore
SplineSet
70 0 m 1,0,-1
 70 665 l 1,1,-1
 153 665 l 2,2,3
 153 664 153 664 153.5 664 c 128,-1,4
 154 664 154 664 154 663 c 0,5,6
 154 660 154 660 149.5 654.5 c 128,-1,7
 145 649 145 649 143 641 c 2,8,-1
 143 376 l 1,9,10
 170 418 170 418 210.5 443 c 128,-1,11
 251 468 251 468 293 468 c 0,12,13
 324 468 324 468 349.5 457.5 c 128,-1,14
 375 447 375 447 394 424 c 128,-1,15
 413 401 413 401 423 365 c 128,-1,16
 433 329 433 329 433 277 c 2,17,-1
 433 0 l 1,18,-1
 362 0 l 1,19,-1
 362 275 l 2,20,21
 362 347 362 347 337.5 376 c 128,-1,22
 313 405 313 405 278 405 c 0,23,24
 255 405 255 405 232 395 c 128,-1,25
 209 385 209 385 187.5 367 c 128,-1,26
 166 349 166 349 154.5 323 c 128,-1,27
 143 297 143 297 143 263 c 2,28,-1
 143 0 l 1,29,-1
 70 0 l 1,0,-1
EndSplineSet
EndChar

StartChar: i
Encoding: 105 105 75
Width: 500
Flags: W
LayerCount: 2
Back
Fore
SplineSet
106 457 m 1,0,-1
 289 457 l 1,1,-1
 289 58 l 1,2,-1
 396 58 l 1,3,-1
 396 0 l 1,4,-1
 100 0 l 1,5,-1
 100 58 l 1,6,-1
 217 58 l 1,7,-1
 217 399 l 1,8,-1
 106 399 l 1,9,-1
 106 457 l 1,0,-1
218 641 m 256,10,11
 233 656 233 656 254 656 c 256,12,13
 275 656 275 656 290.5 640.5 c 128,-1,14
 306 625 306 625 306 604 c 256,15,16
 306 583 306 583 290.5 568 c 128,-1,17
 275 553 275 553 254 553 c 256,18,19
 233 553 233 553 218 568 c 128,-1,20
 203 583 203 583 203 604 c 0,21,22
 203 626 203 626 218 641 c 256,10,11
EndSplineSet
EndChar

StartChar: j
Encoding: 106 106 76
Width: 500
Flags: W
LayerCount: 2
Back
Fore
SplineSet
126 457 m 1,0,-1
 369 457 l 1,1,-1
 369 22 l 2,2,3
 369 -30 369 -30 355 -66.5 c 128,-1,4
 341 -103 341 -103 316.5 -126 c 128,-1,5
 292 -149 292 -149 259 -160.5 c 128,-1,6
 226 -172 226 -172 188 -174 c 0,7,8
 100 -174 100 -174 48 -110 c 1,9,-1
 95 -48 l 1,10,11
 100 -53 100 -53 100.5 -58 c 128,-1,12
 101 -63 101 -63 104 -69 c 128,-1,13
 107 -75 107 -75 116 -82.5 c 128,-1,14
 125 -90 125 -90 146 -101 c 0,15,16
 168 -112 168 -112 193 -112 c 0,17,18
 238 -112 238 -112 267 -81.5 c 128,-1,19
 296 -51 296 -51 296 18 c 2,20,-1
 296 398 l 1,21,-1
 126 398 l 1,22,-1
 126 457 l 1,0,-1
296 641 m 256,23,24
 311 656 311 656 333 656 c 0,25,26
 354 656 354 656 369.5 641 c 128,-1,27
 385 626 385 626 385 604 c 0,28,29
 385 583 385 583 369.5 568 c 128,-1,30
 354 553 354 553 333 553 c 256,31,32
 312 553 312 553 296.5 568 c 128,-1,33
 281 583 281 583 281 604 c 0,34,35
 281 626 281 626 296 641 c 256,23,24
EndSplineSet
EndChar

StartChar: k
Encoding: 107 107 77
Width: 500
Flags: W
LayerCount: 2
Back
Fore
SplineSet
66 665 m 1,0,-1
 148 665 l 1,1,2
 148 659 148 659 143.5 652 c 128,-1,3
 139 645 139 645 139 639 c 2,4,-1
 139 247 l 1,5,-1
 368 459 l 1,6,7
 391 454 391 454 421 454 c 2,8,-1
 447 454 l 1,9,-1
 255 273 l 1,10,-1
 479 0 l 1,11,-1
 386 -4 l 1,12,-1
 199 229 l 1,13,-1
 139 173 l 1,14,-1
 139 0 l 1,15,-1
 66 0 l 1,16,-1
 66 665 l 1,0,-1
EndSplineSet
EndChar

StartChar: l
Encoding: 108 108 78
Width: 500
Flags: W
LayerCount: 2
Back
Fore
SplineSet
85 665 m 1,0,-1
 287 665 l 1,1,-1
 287 58 l 1,2,-1
 421 58 l 1,3,-1
 421 0 l 1,4,-1
 79 0 l 1,5,-1
 79 58 l 1,6,-1
 214 58 l 1,7,-1
 214 607 l 1,8,-1
 85 607 l 1,9,-1
 85 665 l 1,0,-1
EndSplineSet
EndChar

StartChar: m
Encoding: 109 109 79
Width: 500
Flags: W
LayerCount: 2
Back
Fore
SplineSet
38 0 m 1,0,-1
 38 457 l 1,1,-1
 104 457 l 1,2,-1
 104 412 l 1,3,4
 120 437 120 437 145 452.5 c 128,-1,5
 170 468 170 468 198 468 c 0,6,7
 227 468 227 468 249.5 449 c 128,-1,8
 272 430 272 430 278 401 c 1,9,10
 291 431 291 431 319 449.5 c 128,-1,11
 347 468 347 468 380 468 c 0,12,13
 427 468 427 468 449 434.5 c 128,-1,14
 471 401 471 401 469 351 c 2,15,-1
 469 0 l 1,16,-1
 403 0 l 1,17,-1
 403 324 l 2,18,19
 403 355 403 355 400 373 c 128,-1,20
 397 391 397 391 390 400.5 c 128,-1,21
 383 410 383 410 376 412.5 c 128,-1,22
 369 415 369 415 358 415 c 0,23,24
 345 415 345 415 332 404.5 c 128,-1,25
 319 394 319 394 309 378 c 128,-1,26
 299 362 299 362 293 341.5 c 128,-1,27
 287 321 287 321 287 302 c 2,28,-1
 287 0 l 1,29,-1
 220 0 l 1,30,-1
 220 318 l 2,31,32
 220 375 220 375 209.5 394 c 128,-1,33
 199 413 199 413 173 413 c 0,34,35
 149 413 149 413 126.5 384.5 c 128,-1,36
 104 356 104 356 104 305 c 2,37,-1
 104 0 l 1,38,-1
 38 0 l 1,0,-1
EndSplineSet
EndChar

StartChar: n
Encoding: 110 110 80
Width: 500
Flags: W
LayerCount: 2
Back
Fore
SplineSet
68 0 m 1,0,-1
 68 457 l 1,1,-1
 142 457 l 1,2,-1
 142 376 l 1,3,4
 168 418 168 418 208.5 443 c 128,-1,5
 249 468 249 468 291 468 c 0,6,7
 321 468 321 468 347 457.5 c 128,-1,8
 373 447 373 447 392 424 c 128,-1,9
 411 401 411 401 421.5 365 c 128,-1,10
 432 329 432 329 432 277 c 2,11,-1
 432 0 l 1,12,-1
 361 0 l 1,13,-1
 361 275 l 2,14,15
 361 347 361 347 336.5 376 c 128,-1,16
 312 405 312 405 277 405 c 0,17,18
 254 405 254 405 230 395 c 128,-1,19
 206 385 206 385 186.5 366.5 c 128,-1,20
 167 348 167 348 154.5 322 c 128,-1,21
 142 296 142 296 142 263 c 2,22,-1
 142 0 l 1,23,-1
 68 0 l 1,0,-1
EndSplineSet
EndChar

StartChar: o
Encoding: 111 111 81
Width: 500
Flags: W
LayerCount: 2
Back
Fore
SplineSet
254 467 m 256,0,1
 296 467 296 467 333.5 450.5 c 128,-1,2
 371 434 371 434 399 403 c 128,-1,3
 427 372 427 372 443.5 327.5 c 128,-1,4
 460 283 460 283 460 228 c 0,5,6
 460 172 460 172 444 128 c 128,-1,7
 428 84 428 84 400 52.5 c 128,-1,8
 372 21 372 21 334 4.5 c 128,-1,9
 296 -12 296 -12 253 -12 c 0,10,11
 209 -12 209 -12 170.5 6 c 128,-1,12
 132 24 132 24 103 55.5 c 128,-1,13
 74 87 74 87 57 131 c 128,-1,14
 40 175 40 175 40 226 c 256,15,16
 40 277 40 277 57.5 322 c 128,-1,17
 75 367 75 367 104.5 398.5 c 128,-1,18
 134 430 134 430 173 448.5 c 128,-1,19
 212 467 212 467 254 467 c 256,0,1
388 226 m 0,20,21
 388 269 388 269 376.5 302.5 c 128,-1,22
 365 336 365 336 346 359 c 128,-1,23
 327 382 327 382 302.5 394 c 128,-1,24
 278 406 278 406 251 406 c 256,25,26
 224 406 224 406 199.5 394 c 128,-1,27
 175 382 175 382 156.5 359 c 128,-1,28
 138 336 138 336 127 303.5 c 128,-1,29
 116 271 116 271 116 230 c 0,30,31
 116 190 116 190 127 157 c 128,-1,32
 138 124 138 124 156.5 100 c 128,-1,33
 175 76 175 76 200 63 c 128,-1,34
 225 50 225 50 253 50 c 256,35,36
 281 50 281 50 305.5 61.5 c 128,-1,37
 330 73 330 73 348.5 95.5 c 128,-1,38
 367 118 367 118 377.5 151 c 128,-1,39
 388 184 388 184 388 226 c 0,20,21
EndSplineSet
EndChar

StartChar: p
Encoding: 112 112 82
Width: 500
Flags: W
LayerCount: 2
Back
Fore
SplineSet
60 457 m 1,0,-1
 133 457 l 1,1,-1
 133 387 l 1,2,3
 156 424 156 424 194.5 445.5 c 128,-1,4
 233 467 233 467 272 467 c 0,5,6
 310 467 310 467 344.5 452.5 c 128,-1,7
 379 438 379 438 405.5 409 c 128,-1,8
 432 380 432 380 447.5 336 c 128,-1,9
 463 292 463 292 463 232 c 256,10,11
 463 172 463 172 446.5 126 c 128,-1,12
 430 80 430 80 403 49.5 c 128,-1,13
 376 19 376 19 341.5 3.5 c 128,-1,14
 307 -12 307 -12 271 -12 c 0,15,16
 229 -12 229 -12 193 7 c 128,-1,17
 157 26 157 26 134 60 c 1,18,-1
 134 -167 l 1,19,-1
 60 -167 l 1,20,-1
 60 457 l 1,0,-1
133 190 m 2,21,22
 135 116 135 116 167 84 c 128,-1,23
 199 52 199 52 246 52 c 0,24,25
 271 52 271 52 296 60 c 128,-1,26
 321 68 321 68 342 87.5 c 128,-1,27
 363 107 363 107 375.5 139 c 128,-1,28
 388 171 388 171 388 219 c 0,29,30
 388 307 388 307 351.5 355.5 c 128,-1,31
 315 404 315 404 249 406 c 0,32,33
 229 406 229 406 208 399 c 128,-1,34
 187 392 187 392 170.5 375 c 128,-1,35
 154 358 154 358 143.5 329.5 c 128,-1,36
 133 301 133 301 133 259 c 2,37,-1
 133 190 l 2,21,22
EndSplineSet
EndChar

StartChar: q
Encoding: 113 113 83
Width: 500
Flags: W
LayerCount: 2
Back
Fore
SplineSet
374 390 m 2,0,-1
 374 457 l 1,1,-1
 442 457 l 1,2,-1
 442 -167 l 1,3,-1
 370 -167 l 1,4,-1
 370 73 l 1,5,6
 349 35 349 35 311 12.5 c 128,-1,7
 273 -10 273 -10 230 -10 c 0,8,9
 191 -10 191 -10 156.5 7.5 c 128,-1,10
 122 25 122 25 96.5 57 c 128,-1,11
 71 89 71 89 56.5 134 c 128,-1,12
 42 179 42 179 42 234 c 256,13,14
 42 289 42 289 58 332.5 c 128,-1,15
 74 376 74 376 101.5 406.5 c 128,-1,16
 129 437 129 437 165.5 453 c 128,-1,17
 202 469 202 469 243 469 c 0,18,19
 327 469 327 469 367 402 c 0,20,21
 374 392 374 392 374 390 c 2,0,-1
243 410 m 0,22,23
 217 410 217 410 194 399.5 c 128,-1,24
 171 389 171 389 153.5 368 c 128,-1,25
 136 347 136 347 125.5 314.5 c 128,-1,26
 115 282 115 282 115 239 c 0,27,28
 115 195 115 195 125.5 160.5 c 128,-1,29
 136 126 136 126 154 102 c 128,-1,30
 172 78 172 78 195.5 65.5 c 128,-1,31
 219 53 219 53 246 53 c 0,32,33
 303 53 303 53 335.5 96 c 128,-1,34
 368 139 368 139 368 235 c 0,35,36
 368 333 368 333 334 371.5 c 128,-1,37
 300 410 300 410 243 410 c 0,22,23
EndSplineSet
EndChar

StartChar: r
Encoding: 114 114 84
Width: 500
Flags: W
LayerCount: 2
Back
Fore
SplineSet
99 457 m 1,0,-1
 174 457 l 1,1,-1
 172 369 l 1,2,3
 193 417 193 417 238.5 442.5 c 128,-1,4
 284 468 284 468 336 468 c 0,5,6
 410 468 410 468 458 418 c 1,7,-1
 425 349 l 1,8,9
 414 364 414 364 405 374 c 128,-1,10
 396 384 396 384 385.5 391 c 128,-1,11
 375 398 375 398 362.5 402 c 128,-1,12
 350 406 350 406 332 406 c 0,13,14
 299 406 299 406 270 390.5 c 128,-1,15
 241 375 241 375 219.5 349.5 c 128,-1,16
 198 324 198 324 185 291 c 128,-1,17
 172 258 172 258 172 222 c 2,18,-1
 172 -1 l 1,19,-1
 99 -1 l 1,20,-1
 99 457 l 1,0,-1
EndSplineSet
EndChar

StartChar: s
Encoding: 115 115 85
Width: 500
Flags: W
LayerCount: 2
Back
Fore
SplineSet
432 396 m 1,0,-1
 390 333 l 1,1,2
 385 334 385 334 385 341 c 128,-1,3
 385 348 385 348 383 351 c 0,4,5
 365 374 365 374 332 393.5 c 128,-1,6
 299 413 299 413 257 413 c 0,7,8
 238 413 238 413 220.5 408.5 c 128,-1,9
 203 404 203 404 189.5 396 c 128,-1,10
 176 388 176 388 168 375.5 c 128,-1,11
 160 363 160 363 160 347 c 0,12,13
 160 335 160 335 166 325.5 c 128,-1,14
 172 316 172 316 185 307 c 128,-1,15
 198 298 198 298 221.5 289 c 128,-1,16
 245 280 245 280 283 269 c 0,17,18
 369 246 369 246 404.5 214.5 c 128,-1,19
 440 183 440 183 440 137 c 0,20,21
 440 107 440 107 427 80 c 128,-1,22
 414 53 414 53 389 33 c 128,-1,23
 364 13 364 13 329 1.5 c 128,-1,24
 294 -10 294 -10 250 -10 c 0,25,26
 135 -10 135 -10 57 62 c 1,27,-1
 98 134 l 1,28,29
 101 131 101 131 102 124.5 c 128,-1,30
 103 118 103 118 109 109 c 128,-1,31
 115 100 115 100 131 88.5 c 128,-1,32
 147 77 147 77 180 63 c 0,33,34
 195 56 195 56 214 53 c 128,-1,35
 233 50 233 50 252 50 c 0,36,37
 272 50 272 50 292.5 55 c 128,-1,38
 313 60 313 60 329.5 69.5 c 128,-1,39
 346 79 346 79 356 92.5 c 128,-1,40
 366 106 366 106 366 123 c 0,41,42
 366 149 366 149 342 167 c 128,-1,43
 318 185 318 185 254 204 c 0,44,45
 210 217 210 217 196 222 c 0,46,47
 160 236 160 236 144 246.5 c 128,-1,48
 128 257 128 257 115 271.5 c 128,-1,49
 102 286 102 286 94 304.5 c 128,-1,50
 86 323 86 323 86 345 c 0,51,52
 86 369 86 369 99 391 c 128,-1,53
 112 413 112 413 135.5 430 c 128,-1,54
 159 447 159 447 191.5 457.5 c 128,-1,55
 224 468 224 468 262 468 c 0,56,57
 367 468 367 468 432 396 c 1,0,-1
EndSplineSet
EndChar

StartChar: t
Encoding: 116 116 86
Width: 500
Flags: W
LayerCount: 2
Back
Fore
SplineSet
188 579 m 1,0,-1
 267 592 l 1,1,2
 267 583 267 583 264.5 576 c 128,-1,3
 262 569 262 569 261 565 c 2,4,-1
 249 457 l 1,5,-1
 399 457 l 1,6,-1
 399 398 l 1,7,-1
 249 398 l 1,8,9
 240 309 240 309 240 231 c 0,10,11
 240 183 240 183 242 150 c 128,-1,12
 244 117 244 117 252.5 98 c 128,-1,13
 261 79 261 79 277 68.5 c 128,-1,14
 293 58 293 58 320 58 c 0,15,16
 366 58 366 58 422 99 c 1,17,-1
 444 42 l 1,18,19
 375 -9 375 -9 302 -9 c 0,20,21
 230 -9 230 -9 197 34.5 c 128,-1,22
 164 78 164 78 167 176 c 0,23,24
 167 212 167 212 169 268 c 128,-1,25
 171 324 171 324 177 398 c 1,26,-1
 70 398 l 1,27,-1
 70 457 l 1,28,-1
 180 457 l 1,29,-1
 188 579 l 1,0,-1
EndSplineSet
EndChar

StartChar: u
Encoding: 117 117 87
Width: 500
Flags: W
LayerCount: 2
Back
Fore
SplineSet
63 457 m 1,0,-1
 135 457 l 1,1,-1
 135 202 l 2,2,3
 135 158 135 158 143 128.5 c 128,-1,4
 151 99 151 99 165.5 81 c 128,-1,5
 180 63 180 63 198.5 55 c 128,-1,6
 217 47 217 47 239 47 c 0,7,8
 263 49 263 49 285 59 c 128,-1,9
 307 69 307 69 324.5 87.5 c 128,-1,10
 342 106 342 106 352 135 c 128,-1,11
 362 164 362 164 362 205 c 2,12,-1
 362 457 l 1,13,-1
 435 457 l 1,14,-1
 435 41 l 2,15,16
 435 18 435 18 440 0 c 1,17,-1
 364 0 l 1,18,19
 363 7 363 7 362 15.5 c 128,-1,20
 361 24 361 24 362 35 c 2,21,-1
 363 70 l 1,22,23
 341 32 341 32 303.5 10.5 c 128,-1,24
 266 -11 266 -11 221 -11 c 0,25,26
 186 -11 186 -11 158 1.5 c 128,-1,27
 130 14 130 14 107.5 40 c 128,-1,28
 85 66 85 66 73.5 106 c 128,-1,29
 62 146 62 146 62 202 c 2,30,-1
 63 457 l 1,0,-1
EndSplineSet
EndChar

StartChar: v
Encoding: 118 118 88
Width: 500
Flags: W
LayerCount: 2
Back
Fore
SplineSet
50 432 m 1,0,-1
 40 457 l 1,1,-1
 126 457 l 1,2,3
 126 450 126 450 124.5 444.5 c 128,-1,4
 123 439 123 439 123 435 c 0,5,6
 123 433 123 433 124 432 c 2,7,-1
 256 98 l 1,8,-1
 330 268 l 2,9,10
 354 323 354 323 369 370 c 128,-1,11
 384 417 384 417 392 457 c 1,12,-1
 457 457 l 1,13,14
 437 373 437 373 388 257 c 2,15,-1
 277 -3 l 1,16,-1
 221 -3 l 1,17,-1
 50 432 l 1,0,-1
EndSplineSet
EndChar

StartChar: w
Encoding: 119 119 89
Width: 500
Flags: W
LayerCount: 2
Back
Fore
SplineSet
16 457 m 1,0,-1
 89 457 l 1,1,-1
 89 453 l 2,2,3
 89 447 89 447 87 439.5 c 128,-1,4
 85 432 85 432 85 425 c 0,5,6
 85 421 85 421 86 419 c 2,7,-1
 153 90 l 1,8,-1
 231 414 l 1,9,-1
 275 414 l 1,10,-1
 372 91 l 1,11,12
 385 179 385 179 393.5 236 c 128,-1,13
 402 293 402 293 406.5 330.5 c 128,-1,14
 411 368 411 368 412.5 392.5 c 128,-1,15
 414 417 414 417 414 442 c 2,16,-1
 414 457 l 1,17,-1
 481 457 l 1,18,19
 466 341 466 341 447 227 c 128,-1,20
 428 113 428 113 405 -1 c 1,21,-1
 337 -1 l 1,22,-1
 253 295 l 1,23,-1
 173 -1 l 1,24,-1
 108 -1 l 1,25,-1
 16 457 l 1,0,-1
EndSplineSet
EndChar

StartChar: x
Encoding: 120 120 90
Width: 500
Flags: W
LayerCount: 2
Back
Fore
SplineSet
362 457 m 1,0,-1
 436 457 l 1,1,-1
 288 235 l 1,2,-1
 456 0 l 1,3,-1
 374 0 l 1,4,-1
 248 178 l 1,5,-1
 129 0 l 1,6,-1
 47 0 l 1,7,-1
 208 232 l 1,8,-1
 50 457 l 1,9,-1
 129 457 l 1,10,-1
 248 288 l 1,11,-1
 362 457 l 1,0,-1
EndSplineSet
EndChar

StartChar: y
Encoding: 121 121 91
Width: 500
Flags: W
LayerCount: 2
Back
Fore
SplineSet
59 425 m 1,0,-1
 46 457 l 1,1,-1
 135 457 l 1,2,3
 135 449 135 449 133 443.5 c 128,-1,4
 131 438 131 438 131 433 c 0,5,6
 131 429 131 429 133 427 c 2,7,-1
 267 91 l 1,8,-1
 354 336 l 2,9,10
 367 371 367 371 375 401.5 c 128,-1,11
 383 432 383 432 388 457 c 1,12,-1
 463 457 l 1,13,14
 454 431 454 431 443.5 398 c 128,-1,15
 433 365 433 365 418 325 c 2,16,-1
 294 -2 l 1,17,-1
 275 -52 l 2,18,19
 251 -119 251 -119 213.5 -146.5 c 128,-1,20
 176 -174 176 -174 127 -174 c 0,21,22
 62 -174 62 -174 22 -135 c 1,23,-1
 60 -71 l 1,24,25
 63 -74 63 -74 65 -80.5 c 128,-1,26
 67 -87 67 -87 68 -89 c 2,27,28
 68 -89 68 -89 72 -93.5 c 128,-1,29
 76 -98 76 -98 82.5 -102.5 c 128,-1,30
 89 -107 89 -107 99 -111 c 128,-1,31
 109 -115 109 -115 121 -115 c 0,32,33
 150 -115 150 -115 172.5 -97 c 128,-1,34
 195 -79 195 -79 217 -32 c 2,35,-1
 231 2 l 1,36,-1
 59 425 l 1,0,-1
EndSplineSet
EndChar

StartChar: z
Encoding: 122 122 92
Width: 500
Flags: W
LayerCount: 2
Back
Fore
SplineSet
71 457 m 1,0,-1
 426 457 l 1,1,-1
 426 408 l 1,2,-1
 148 62 l 1,3,-1
 419 62 l 2,4,5
 426 62 426 62 434.5 65 c 128,-1,6
 443 68 443 68 450 68 c 1,7,-1
 450 0 l 1,8,-1
 50 0 l 1,9,-1
 50 49 l 1,10,-1
 333 394 l 1,11,-1
 71 394 l 1,12,-1
 71 457 l 1,0,-1
EndSplineSet
EndChar

StartChar: braceleft
Encoding: 123 123 93
Width: 500
Flags: W
LayerCount: 2
Back
Fore
SplineSet
159 16 m 1,0,-1
 163 116 l 2,1,2
 163 182 163 182 139.5 205 c 128,-1,3
 116 228 116 228 73 228 c 2,4,-1
 53 228 l 1,5,-1
 53 284 l 1,6,-1
 72 284 l 2,7,8
 118 284 118 284 141.5 309 c 128,-1,9
 165 334 165 334 165 391 c 2,10,-1
 163 463 l 1,11,12
 163 637 163 637 345 637 c 2,13,-1
 408 637 l 1,14,-1
 408 580 l 1,15,-1
 326 580 l 2,16,17
 233 580 233 580 233 474 c 2,18,-1
 235 404 l 2,19,20
 235 293 235 293 148 256 c 1,21,22
 233 228 233 228 233 101 c 1,23,-1
 230 17 l 2,24,25
 230 -51 230 -51 259.5 -77 c 128,-1,26
 289 -103 289 -103 356 -103 c 2,27,-1
 407 -103 l 1,28,-1
 407 -159 l 1,29,-1
 371 -159 l 2,30,31
 323 -159 323 -159 284.5 -155.5 c 128,-1,32
 246 -152 246 -152 215 -129 c 0,33,34
 159 -85 159 -85 159 16 c 1,0,-1
EndSplineSet
EndChar

StartChar: bar
Encoding: 124 124 94
Width: 500
Flags: W
LayerCount: 2
Back
Fore
SplineSet
217 652 m 1,0,-1
 284 652 l 1,1,-1
 284 -151 l 1,2,-1
 217 -151 l 1,3,-1
 217 652 l 1,0,-1
EndSplineSet
EndChar

StartChar: braceright
Encoding: 125 125 95
Width: 500
Flags: W
LayerCount: 2
Back
Fore
SplineSet
338 463 m 2,0,-1
 335 391 l 2,1,2
 335 334 335 334 359 309 c 128,-1,3
 383 284 383 284 428 284 c 2,4,-1
 448 284 l 1,5,-1
 448 228 l 1,6,-1
 427 228 l 2,7,8
 384 228 384 228 361 205 c 128,-1,9
 338 182 338 182 338 116 c 2,10,-1
 341 16 l 2,11,12
 341 -73 341 -73 301 -116 c 128,-1,13
 261 -159 261 -159 175 -159 c 2,14,-1
 93 -159 l 1,15,-1
 93 -103 l 1,16,-1
 148 -103 l 2,17,18
 170 -103 170 -103 183.5 -102 c 128,-1,19
 197 -101 197 -101 205.5 -98.5 c 128,-1,20
 214 -96 214 -96 219.5 -93 c 128,-1,21
 225 -90 225 -90 230 -86 c 0,22,23
 271 -57 271 -57 271 17 c 2,24,-1
 268 101 l 1,25,26
 268 227 268 227 352 256 c 1,27,28
 265 293 265 293 265 404 c 1,29,-1
 268 474 l 2,30,31
 268 531 268 531 243 555.5 c 128,-1,32
 218 580 218 580 167 580 c 2,33,-1
 92 580 l 1,34,-1
 92 637 l 1,35,-1
 123 637 l 2,36,37
 157 637 157 637 195 634.5 c 128,-1,38
 233 632 233 632 265 613 c 128,-1,39
 297 594 297 594 317.5 559 c 128,-1,40
 338 524 338 524 338 463 c 2,0,-1
EndSplineSet
EndChar

StartChar: asciitilde
Encoding: 126 126 96
Width: 500
Flags: W
LayerCount: 2
Back
Fore
SplineSet
91 255 m 5,0,-1
 41 288 l 5,1,2
 65 327 65 327 101.5 352 c 132,-1,3
 138 377 138 377 172 377 c 4,4,5
 207 377 207 377 231.5 365.5 c 132,-1,6
 256 354 256 354 271 340 c 4,7,8
 312 302 312 302 339 302 c 4,9,10
 367 302 367 302 386 318 c 132,-1,11
 405 334 405 334 430 367 c 5,12,-1
 476 329 l 5,13,14
 464 311 464 311 448 294 c 132,-1,15
 432 277 432 277 415 264.5 c 132,-1,16
 398 252 398 252 380 244.5 c 132,-1,17
 362 237 362 237 344 237 c 4,18,19
 310 237 310 237 286 249.5 c 132,-1,20
 262 262 262 262 248 277 c 4,21,22
 211 317 211 317 174 317 c 4,23,24
 129 317 129 317 91 255 c 5,0,-1
EndSplineSet
EndChar

StartChar: exclamdown
Encoding: 161 161 98
Width: 500
Flags: W
LayerCount: 2
Back
Fore
SplineSet
197 567 m 0,0,1
 180 583 180 583 180 608 c 0,2,3
 180 632 180 632 198 650 c 128,-1,4
 216 668 216 668 239 668 c 256,5,6
 262 668 262 668 280.5 650 c 128,-1,7
 299 632 299 632 299 608 c 0,8,9
 299 585 299 585 281 567.5 c 128,-1,10
 263 550 263 550 239 550 c 0,11,12
 214 550 214 550 197 567 c 0,0,1
238 -11 m 256,13,14
 215 -11 215 -11 201 9 c 128,-1,15
 187 29 187 29 187 72 c 0,16,17
 187 83 187 83 188 98.5 c 128,-1,18
 189 114 189 114 191 134 c 2,19,-1
 196 186 l 1,20,-1
 214 463 l 1,21,-1
 264 463 l 1,22,-1
 279 186 l 2,23,24
 280 171 280 171 281.5 154 c 128,-1,25
 283 137 283 137 284.5 119.5 c 128,-1,26
 286 102 286 102 287.5 86.5 c 128,-1,27
 289 71 289 71 289 61 c 0,28,29
 289 26 289 26 275 7.5 c 128,-1,30
 261 -11 261 -11 238 -11 c 256,13,14
EndSplineSet
EndChar

StartChar: cent
Encoding: 162 162 99
Width: 500
Flags: W
LayerCount: 2
Back
Fore
SplineSet
285 624 m 1,0,-1
 352 617 l 1,1,2
 352 611 352 611 348 603.5 c 128,-1,3
 344 596 344 596 343 589 c 2,4,-1
 333 507 l 1,5,6
 410 492 410 492 451 430 c 1,7,-1
 407 373 l 1,8,9
 403 376 403 376 403 385.5 c 128,-1,10
 403 395 403 395 399 399 c 0,11,12
 370 434 370 434 325 447 c 1,13,-1
 279 97 l 1,14,15
 354 97 354 97 410 153 c 1,16,-1
 446 104 l 1,17,18
 381 33 381 33 278 33 c 2,19,-1
 270 33 l 1,20,-1
 255 -79 l 1,21,-1
 198 -72 l 1,22,-1
 212 41 l 1,23,24
 137 62 137 62 92.5 124 c 128,-1,25
 48 186 48 186 48 280 c 0,26,27
 48 327 48 327 64.5 368 c 128,-1,28
 81 409 81 409 110 440.5 c 128,-1,29
 139 472 139 472 180 491 c 128,-1,30
 221 510 221 510 271 512 c 1,31,-1
 285 624 l 1,0,-1
220 108 m 1,32,-1
 263 454 l 1,33,34
 231 452 231 452 205 439 c 128,-1,35
 179 426 179 426 159.5 404 c 128,-1,36
 140 382 140 382 129.5 352.5 c 128,-1,37
 119 323 119 323 119 288 c 0,38,39
 119 218 119 218 146.5 172 c 128,-1,40
 174 126 174 126 220 108 c 1,32,-1
EndSplineSet
EndChar

StartChar: sterling
Encoding: 163 163 100
Width: 500
Flags: W
LayerCount: 2
Back
Fore
SplineSet
418 572 m 1,0,-1
 374 517 l 1,1,2
 366 525 366 525 363.5 533 c 128,-1,3
 361 541 361 541 349 547 c 0,4,5
 325 566 325 566 290 566 c 0,6,7
 269 566 269 566 249.5 559 c 128,-1,8
 230 552 230 552 214 537 c 128,-1,9
 198 522 198 522 188.5 498.5 c 128,-1,10
 179 475 179 475 179 443 c 0,11,12
 179 418 179 418 187 378 c 1,13,-1
 287 378 l 1,14,-1
 287 321 l 1,15,-1
 201 321 l 1,16,17
 214 265 214 265 214 224 c 0,18,19
 214 148 214 148 178 90 c 1,20,21
 185 91 185 91 194 91.5 c 128,-1,22
 203 92 203 92 215 92 c 0,23,24
 225 92 225 92 245 85.5 c 128,-1,25
 265 79 265 79 288 71.5 c 128,-1,26
 311 64 311 64 334 57.5 c 128,-1,27
 357 51 357 51 373 51 c 0,28,29
 410 51 410 51 444 79 c 1,30,-1
 470 27 l 1,31,32
 417 -15 417 -15 366 -15 c 0,33,34
 352 -15 352 -15 329 -8 c 128,-1,35
 306 -1 306 -1 279.5 7.5 c 128,-1,36
 253 16 253 16 227 23 c 128,-1,37
 201 30 201 30 180 30 c 0,38,39
 136 30 136 30 65 -8 c 1,40,-1
 39 49 l 1,41,42
 62 60 62 60 75 66.5 c 128,-1,43
 88 73 88 73 95 78.5 c 128,-1,44
 102 84 102 84 105.5 88.5 c 128,-1,45
 109 93 109 93 113 100 c 0,46,47
 148 155 148 155 148 222 c 0,48,49
 148 259 148 259 133 321 c 1,50,-1
 67 321 l 1,51,-1
 67 378 l 1,52,-1
 119 378 l 1,53,54
 112 412 112 412 112 442 c 0,55,56
 112 483 112 483 126 516.5 c 128,-1,57
 140 550 140 550 164 573.5 c 128,-1,58
 188 597 188 597 220 610 c 128,-1,59
 252 623 252 623 288 623 c 0,60,61
 362 623 362 623 418 572 c 1,0,-1
EndSplineSet
EndChar

StartChar: currency
Encoding: 164 164 101
Width: 500
Flags: W
LayerCount: 2
Back
Fore
SplineSet
68 492 m 1,0,-1
 104 527 l 1,1,-1
 160 471 l 1,2,3
 201 500 201 500 251 500 c 0,4,5
 298 500 298 500 340 472 c 1,6,-1
 396 527 l 1,7,-1
 432 492 l 1,8,-1
 376 437 l 1,9,10
 406 395 406 395 406 345 c 256,11,12
 406 295 406 295 377 254 c 1,13,-1
 432 199 l 1,14,-1
 396 164 l 1,15,-1
 341 219 l 1,16,17
 321 204 321 204 298 197 c 128,-1,18
 275 190 275 190 251 190 c 0,19,20
 201 190 201 190 159 220 c 1,21,-1
 104 164 l 1,22,-1
 68 199 l 1,23,-1
 124 256 l 1,24,25
 110 276 110 276 103 299 c 128,-1,26
 96 322 96 322 96 345 c 0,27,28
 96 369 96 369 103 392 c 128,-1,29
 110 415 110 415 125 435 c 1,30,-1
 68 492 l 1,0,-1
321 416 m 256,31,32
 291 446 291 446 250 446 c 0,33,34
 230 446 230 446 212 438 c 128,-1,35
 194 430 194 430 180 416 c 128,-1,36
 166 402 166 402 158 384 c 128,-1,37
 150 366 150 366 150 345 c 0,38,39
 150 325 150 325 158 306.5 c 128,-1,40
 166 288 166 288 179.5 274.5 c 128,-1,41
 193 261 193 261 211.5 253 c 128,-1,42
 230 245 230 245 250 245 c 0,43,44
 271 245 271 245 289 253 c 128,-1,45
 307 261 307 261 321 275 c 128,-1,46
 335 289 335 289 343 307 c 128,-1,47
 351 325 351 325 351 345 c 0,48,49
 351 386 351 386 321 416 c 256,31,32
EndSplineSet
EndChar

StartChar: yen
Encoding: 165 165 102
Width: 500
Flags: W
LayerCount: 2
Back
Fore
SplineSet
36 624 m 1,0,-1
 114 624 l 1,1,-1
 259 363 l 1,2,-1
 392 623 l 1,3,-1
 466 623 l 1,4,-1
 292 295 l 1,5,-1
 292 274 l 1,6,-1
 426 274 l 1,7,-1
 426 217 l 1,8,-1
 292 217 l 1,9,-1
 292 154 l 1,10,-1
 426 154 l 1,11,-1
 426 98 l 1,12,-1
 292 98 l 1,13,-1
 292 0 l 1,14,-1
 224 0 l 1,15,-1
 224 98 l 1,16,-1
 84 98 l 1,17,-1
 84 154 l 1,18,-1
 224 154 l 1,19,-1
 224 217 l 1,20,-1
 84 217 l 1,21,-1
 84 274 l 1,22,-1
 224 274 l 1,23,-1
 224 295 l 1,24,-1
 36 624 l 1,0,-1
EndSplineSet
EndChar

StartChar: brokenbar
Encoding: 166 166 103
Width: 500
Flags: W
LayerCount: 2
Back
Fore
SplineSet
217 652 m 1,0,-1
 284 652 l 1,1,-1
 284 295 l 1,2,-1
 217 295 l 1,3,-1
 217 652 l 1,0,-1
284 -151 m 1,4,-1
 217 -151 l 1,5,-1
 217 196 l 1,6,-1
 284 196 l 1,7,-1
 284 -151 l 1,4,-1
EndSplineSet
EndChar

StartChar: section
Encoding: 167 167 104
Width: 500
Flags: W
LayerCount: 2
Back
Fore
SplineSet
413 583 m 1,0,-1
 356 533 l 1,1,2
 351 538 351 538 350 544 c 0,3,4
 348 557 348 557 340.5 569.5 c 128,-1,5
 333 582 333 582 320 591.5 c 128,-1,6
 307 601 307 601 290.5 607 c 128,-1,7
 274 613 274 613 256 613 c 256,8,9
 238 613 238 613 221.5 607 c 128,-1,10
 205 601 205 601 193 590.5 c 128,-1,11
 181 580 181 580 174 566 c 128,-1,12
 167 552 167 552 167 536 c 0,13,14
 167 512 167 512 176 498 c 128,-1,15
 185 484 185 484 204.5 470.5 c 128,-1,16
 224 457 224 457 254 447 c 128,-1,17
 284 437 284 437 326 419 c 0,18,19
 418 375 418 375 418 305 c 0,20,21
 418 275 418 275 397.5 248.5 c 128,-1,22
 377 222 377 222 344 209 c 1,23,24
 408 166 408 166 408 98 c 0,25,26
 408 65 408 65 395 37 c 128,-1,27
 382 9 382 9 359.5 -11 c 128,-1,28
 337 -31 337 -31 305.5 -42.5 c 128,-1,29
 274 -54 274 -54 238 -54 c 0,30,31
 187 -54 187 -54 141.5 -32.5 c 128,-1,32
 96 -11 96 -11 65 31 c 1,33,-1
 117 92 l 1,34,35
 123 90 123 90 124 87 c 128,-1,36
 125 84 125 84 126.5 78.5 c 128,-1,37
 128 73 128 73 133.5 64 c 128,-1,38
 139 55 139 55 154 41 c 0,39,40
 185 12 185 12 234 12 c 256,41,42
 283 12 283 12 310 35 c 128,-1,43
 337 58 337 58 337 91 c 0,44,45
 337 108 337 108 331.5 121.5 c 128,-1,46
 326 135 326 135 313 146.5 c 128,-1,47
 300 158 300 158 277 168 c 128,-1,48
 254 178 254 178 220 188 c 0,49,50
 143 213 143 213 111 242 c 128,-1,51
 79 271 79 271 79 316 c 0,52,53
 79 349 79 349 101.5 376.5 c 128,-1,54
 124 404 124 404 161 417 c 1,55,56
 94 457 94 457 94 530 c 0,57,58
 94 559 94 559 106.5 584.5 c 128,-1,59
 119 610 119 610 141 629.5 c 128,-1,60
 163 649 163 649 193 660.5 c 128,-1,61
 223 672 223 672 257 672 c 0,62,63
 306 672 306 672 347.5 648.5 c 128,-1,64
 389 625 389 625 413 583 c 1,0,-1
197 399 m 1,65,66
 177 392 177 392 164.5 375 c 128,-1,67
 152 358 152 358 152 336 c 0,68,69
 152 303 152 303 176.5 281.5 c 128,-1,70
 201 260 201 260 256 244 c 0,71,72
 273 239 273 239 286 235.5 c 128,-1,73
 299 232 299 232 307 228 c 1,74,75
 343 247 343 247 343 292 c 0,76,77
 343 325 343 325 318.5 345 c 128,-1,78
 294 365 294 365 240 384 c 2,79,-1
 197 399 l 1,65,66
EndSplineSet
EndChar

StartChar: dieresis
Encoding: 168 168 105
Width: 500
Flags: W
LayerCount: 2
Back
Fore
SplineSet
198 650 m 256,0,1
 213 635 213 635 213 614 c 0,2,3
 213 594 213 594 198 579 c 128,-1,4
 183 564 183 564 163 564 c 0,5,6
 142 564 142 564 127 579 c 128,-1,7
 112 594 112 594 112 614 c 256,8,9
 112 634 112 634 127 649.5 c 128,-1,10
 142 665 142 665 163 665 c 0,11,12
 183 665 183 665 198 650 c 256,0,1
376 650 m 256,13,14
 391 635 391 635 391 614 c 0,15,16
 391 594 391 594 376 579 c 128,-1,17
 361 564 361 564 341 564 c 0,18,19
 320 564 320 564 305.5 578.5 c 128,-1,20
 291 593 291 593 291 614 c 256,21,22
 291 635 291 635 305.5 650 c 128,-1,23
 320 665 320 665 341 665 c 0,24,25
 361 665 361 665 376 650 c 256,13,14
EndSplineSet
EndChar

StartChar: copyright
Encoding: 169 169 106
Width: 500
Flags: W
LayerCount: 2
Back
Fore
SplineSet
387 331 m 1,0,-1
 335 312 l 1,1,2
 331 319 331 319 331.5 324 c 128,-1,3
 332 329 332 329 330.5 334.5 c 128,-1,4
 329 340 329 340 323.5 346.5 c 128,-1,5
 318 353 318 353 302 364 c 0,6,7
 285 374 285 374 262 374 c 0,8,9
 248 374 248 374 232 369 c 128,-1,10
 216 364 216 364 202.5 352.5 c 128,-1,11
 189 341 189 341 180 323.5 c 128,-1,12
 171 306 171 306 171 281 c 0,13,14
 171 259 171 259 178.5 239.5 c 128,-1,15
 186 220 186 220 198.5 205.5 c 128,-1,16
 211 191 211 191 228 182.5 c 128,-1,17
 245 174 245 174 265 174 c 0,18,19
 289 174 289 174 309 186 c 128,-1,20
 329 198 329 198 340 219 c 1,21,-1
 384 190 l 1,22,23
 363 158 363 158 330 140 c 128,-1,24
 297 122 297 122 261 122 c 0,25,26
 230 122 230 122 203.5 134.5 c 128,-1,27
 177 147 177 147 157.5 168 c 128,-1,28
 138 189 138 189 126.5 217 c 128,-1,29
 115 245 115 245 115 276 c 256,30,31
 115 307 115 307 127 334.5 c 128,-1,32
 139 362 139 362 159 381.5 c 128,-1,33
 179 401 179 401 203.5 412.5 c 128,-1,34
 228 424 228 424 254 424 c 0,35,36
 308 424 308 424 342.5 398.5 c 128,-1,37
 377 373 377 373 387 331 c 1,0,-1
426 93 m 0,38,39
 355 19 355 19 255 19 c 0,40,41
 205 19 205 19 161 39 c 128,-1,42
 117 59 117 59 84.5 94 c 128,-1,43
 52 129 52 129 33 175 c 128,-1,44
 14 221 14 221 14 274 c 256,45,46
 14 327 14 327 33 373.5 c 128,-1,47
 52 420 52 420 85 455 c 128,-1,48
 118 490 118 490 162 510 c 128,-1,49
 206 530 206 530 256 530 c 0,50,51
 305 530 305 530 349 510 c 128,-1,52
 393 490 393 490 426 455 c 128,-1,53
 459 420 459 420 478.5 373.5 c 128,-1,54
 498 327 498 327 498 274 c 0,55,56
 498 168 498 168 426 93 c 0,38,39
257 488 m 256,57,58
 216 488 216 488 180 471.5 c 128,-1,59
 144 455 144 455 117 426 c 128,-1,60
 90 397 90 397 74.5 358 c 128,-1,61
 59 319 59 319 59 274 c 0,62,63
 59 230 59 230 74.5 191 c 128,-1,64
 90 152 90 152 117 123.5 c 128,-1,65
 144 95 144 95 180 78.5 c 128,-1,66
 216 62 216 62 257 62 c 0,67,68
 297 62 297 62 333 79 c 128,-1,69
 369 96 369 96 396 125 c 128,-1,70
 423 154 423 154 439 192.5 c 128,-1,71
 455 231 455 231 455 275 c 256,72,73
 455 319 455 319 439.5 357.5 c 128,-1,74
 424 396 424 396 397 425 c 128,-1,75
 370 454 370 454 334 471 c 128,-1,76
 298 488 298 488 257 488 c 256,57,58
EndSplineSet
EndChar

StartChar: ordfeminine
Encoding: 170 170 107
Width: 500
Flags: W
LayerCount: 2
Back
Fore
SplineSet
325 488 m 2,0,1
 325 569 325 569 251 569 c 0,2,3
 189 569 189 569 157 525 c 1,4,-1
 123 566 l 1,5,6
 173 622 173 622 257 622 c 0,7,8
 320 620 320 620 354.5 589 c 128,-1,9
 389 558 389 558 389 495 c 2,10,-1
 389 485 l 1,11,-1
 389 267 l 1,12,-1
 326 267 l 1,13,-1
 326 300 l 1,14,15
 280 257 280 257 224 257 c 0,16,17
 169 257 169 257 135.5 288 c 128,-1,18
 102 319 102 319 102 362 c 0,19,20
 102 404 102 404 133.5 434 c 128,-1,21
 165 464 165 464 219 472 c 0,22,23
 251 475 251 475 273 475.5 c 128,-1,24
 295 476 295 476 311 476 c 2,25,-1
 325 476 l 1,26,-1
 325 488 l 2,0,1
328 424 m 1,27,-1
 312 424 l 2,28,29
 270 424 270 424 242 422 c 128,-1,30
 214 420 214 420 197 412.5 c 128,-1,31
 180 405 180 405 173 393.5 c 128,-1,32
 166 382 166 382 166 363 c 256,33,34
 166 344 166 344 182.5 327.5 c 128,-1,35
 199 311 199 311 231 311 c 0,36,37
 244 311 244 311 261 316 c 128,-1,38
 278 321 278 321 293 332 c 128,-1,39
 308 343 308 343 318 361 c 128,-1,40
 328 379 328 379 328 406 c 2,41,-1
 328 424 l 1,27,-1
76 206 m 1,42,-1
 425 206 l 1,43,-1
 425 152 l 1,44,-1
 76 152 l 1,45,-1
 76 206 l 1,42,-1
EndSplineSet
EndChar

StartChar: guillemotleft
Encoding: 171 171 108
Width: 500
Flags: W
LayerCount: 2
Back
Fore
SplineSet
249 253 m 1,0,-1
 400 400 l 1,1,-1
 439 359 l 1,2,-1
 318 241 l 1,3,-1
 446 101 l 1,4,-1
 406 61 l 1,5,-1
 249 230 l 1,6,-1
 249 253 l 1,0,-1
67 253 m 1,7,-1
 219 400 l 1,8,-1
 258 359 l 1,9,-1
 137 241 l 1,10,-1
 265 101 l 1,11,-1
 225 61 l 1,12,-1
 67 230 l 1,13,-1
 67 253 l 1,7,-1
EndSplineSet
EndChar

StartChar: logicalnot
Encoding: 172 172 109
Width: 500
Flags: W
LayerCount: 2
Back
Fore
SplineSet
91 347 m 1,0,-1
 414 347 l 1,1,-1
 414 157 l 1,2,-1
 350 157 l 1,3,-1
 350 284 l 1,4,-1
 91 284 l 1,5,-1
 91 347 l 1,0,-1
EndSplineSet
EndChar

StartChar: registered
Encoding: 174 174 111
Width: 500
Flags: W
LayerCount: 2
Back
Fore
SplineSet
426 93 m 0,0,1
 355 19 355 19 255 19 c 0,2,3
 205 19 205 19 161 39 c 128,-1,4
 117 59 117 59 84.5 94 c 128,-1,5
 52 129 52 129 33 175 c 128,-1,6
 14 221 14 221 14 274 c 256,7,8
 14 327 14 327 33 373.5 c 128,-1,9
 52 420 52 420 85 455 c 128,-1,10
 118 490 118 490 162 510 c 128,-1,11
 206 530 206 530 256 530 c 0,12,13
 305 530 305 530 349 510 c 128,-1,14
 393 490 393 490 426 455 c 128,-1,15
 459 420 459 420 478.5 373.5 c 128,-1,16
 498 327 498 327 498 274 c 0,17,18
 498 168 498 168 426 93 c 0,0,1
257 488 m 256,19,20
 216 488 216 488 180 471.5 c 128,-1,21
 144 455 144 455 117 426 c 128,-1,22
 90 397 90 397 74.5 358 c 128,-1,23
 59 319 59 319 59 274 c 0,24,25
 59 230 59 230 74.5 191 c 128,-1,26
 90 152 90 152 117 123.5 c 128,-1,27
 144 95 144 95 180 78.5 c 128,-1,28
 216 62 216 62 257 62 c 0,29,30
 297 62 297 62 333 79 c 128,-1,31
 369 96 369 96 396 125 c 128,-1,32
 423 154 423 154 439 192.5 c 128,-1,33
 455 231 455 231 455 275 c 256,34,35
 455 319 455 319 439.5 357.5 c 128,-1,36
 424 396 424 396 397 425 c 128,-1,37
 370 454 370 454 334 471 c 128,-1,38
 298 488 298 488 257 488 c 256,19,20
155 133 m 1,39,-1
 155 425 l 1,40,-1
 249 425 l 2,41,42
 314 425 314 425 341.5 401 c 128,-1,43
 369 377 369 377 369 340 c 0,44,45
 369 315 369 315 354.5 293 c 128,-1,46
 340 271 340 271 312 263 c 1,47,-1
 376 138 l 1,48,-1
 329 131 l 1,49,-1
 267 256 l 1,50,-1
 201 256 l 1,51,-1
 201 133 l 1,52,-1
 155 133 l 1,39,-1
253 296 m 2,53,54
 324 296 324 296 324 340 c 256,55,56
 324 384 324 384 250 384 c 2,57,-1
 201 384 l 1,58,-1
 201 296 l 1,59,-1
 253 296 l 2,53,54
EndSplineSet
EndChar

StartChar: macron
Encoding: 175 175 112
Width: 500
Flags: W
LayerCount: 2
Back
Fore
SplineSet
123 621 m 1,0,-1
 377 621 l 1,1,-1
 377 565 l 1,2,-1
 123 565 l 1,3,-1
 123 621 l 1,0,-1
EndSplineSet
EndChar

StartChar: degree
Encoding: 176 176 113
Width: 500
Flags: W
LayerCount: 2
Back
Fore
SplineSet
351 599 m 0,0,1
 391 560 391 560 391 504 c 0,2,3
 391 477 391 477 380.5 452.5 c 128,-1,4
 370 428 370 428 351.5 410 c 128,-1,5
 333 392 333 392 308.5 381 c 128,-1,6
 284 370 284 370 256 370 c 256,7,8
 228 370 228 370 203.5 380.5 c 128,-1,9
 179 391 179 391 160.5 409 c 128,-1,10
 142 427 142 427 131.5 451.5 c 128,-1,11
 121 476 121 476 121 504 c 256,12,13
 121 532 121 532 132 557 c 128,-1,14
 143 582 143 582 161.5 600 c 128,-1,15
 180 618 180 618 204.5 628.5 c 128,-1,16
 229 639 229 639 256 639 c 0,17,18
 312 639 312 639 351 599 c 0,0,1
309 562 m 0,19,20
 288 586 288 586 257 586 c 0,21,22
 242 586 242 586 228 579.5 c 128,-1,23
 214 573 214 573 204 561.5 c 128,-1,24
 194 550 194 550 188 535.5 c 128,-1,25
 182 521 182 521 182 505 c 0,26,27
 182 473 182 473 203.5 449 c 128,-1,28
 225 425 225 425 256 425 c 0,29,30
 288 425 288 425 309.5 449 c 128,-1,31
 331 473 331 473 331 505 c 256,32,33
 331 537 331 537 309 562 c 0,19,20
EndSplineSet
EndChar

StartChar: plusminus
Encoding: 177 177 114
Width: 500
Flags: W
LayerCount: 2
Back
Fore
SplineSet
46 80 m 1,0,-1
 457 80 l 1,1,-1
 457 17 l 1,2,-1
 46 17 l 1,3,-1
 46 80 l 1,0,-1
222 575 m 1,4,-1
 285 575 l 1,5,-1
 285 404 l 1,6,-1
 456 404 l 1,7,-1
 456 343 l 1,8,-1
 285 343 l 1,9,-1
 285 155 l 1,10,-1
 222 155 l 1,11,-1
 222 343 l 1,12,-1
 45 343 l 1,13,-1
 45 404 l 1,14,-1
 222 404 l 1,15,-1
 222 575 l 1,4,-1
EndSplineSet
EndChar

StartChar: uni00B2
Encoding: 178 178 115
Width: 500
Flags: W
LayerCount: 2
Back
Fore
SplineSet
111 554 m 1,0,1
 134 593 134 593 173 615 c 128,-1,2
 212 637 212 637 264 637 c 0,3,4
 289 637 289 637 312 628.5 c 128,-1,5
 335 620 335 620 353 605 c 128,-1,6
 371 590 371 590 381.5 569 c 128,-1,7
 392 548 392 548 392 523 c 0,8,9
 392 503 392 503 387 488 c 128,-1,10
 382 473 382 473 370 458 c 128,-1,11
 358 443 358 443 336 425.5 c 128,-1,12
 314 408 314 408 280 383 c 0,13,14
 254 363 254 363 232.5 344.5 c 128,-1,15
 211 326 211 326 194 307 c 1,16,-1
 376 307 l 2,17,18
 381 307 381 307 386.5 311.5 c 128,-1,19
 392 316 392 316 397 316 c 2,20,-1
 400 316 l 1,21,-1
 400 253 l 1,22,-1
 121 253 l 1,23,-1
 121 297 l 1,24,25
 148 333 148 333 177.5 362 c 128,-1,26
 207 391 207 391 252 425 c 2,27,-1
 280 447 l 2,28,29
 306 467 306 467 318.5 487.5 c 128,-1,30
 331 508 331 508 331 525 c 0,31,32
 331 550 331 550 311 568 c 128,-1,33
 291 586 291 586 260 586 c 0,34,35
 201 586 201 586 168 544 c 0,36,37
 165 540 165 540 162.5 533.5 c 128,-1,38
 160 527 160 527 158 523 c 1,39,-1
 111 554 l 1,0,1
EndSplineSet
EndChar

StartChar: uni00B3
Encoding: 179 179 116
Width: 500
Flags: W
LayerCount: 2
Back
Fore
SplineSet
258 638 m 0,0,1
 285 638 285 638 309 629.5 c 128,-1,2
 333 621 333 621 351 606 c 128,-1,3
 369 591 369 591 379 571.5 c 128,-1,4
 389 552 389 552 389 530 c 0,5,6
 389 503 389 503 373 481.5 c 128,-1,7
 357 460 357 460 332 452 c 1,8,9
 364 447 364 447 385 422.5 c 128,-1,10
 406 398 406 398 406 366 c 0,11,12
 406 342 406 342 393.5 321.5 c 128,-1,13
 381 301 381 301 360.5 285 c 128,-1,14
 340 269 340 269 312.5 260 c 128,-1,15
 285 251 285 251 255 251 c 0,16,17
 169 251 169 251 112 316 c 1,18,-1
 159 368 l 1,19,20
 163 363 163 363 165.5 353.5 c 128,-1,21
 168 344 168 344 173 340 c 0,22,23
 206 307 206 307 249 307 c 256,24,25
 292 307 292 307 318 326 c 128,-1,26
 344 345 344 345 344 372 c 0,27,28
 344 398 344 398 320.5 412.5 c 128,-1,29
 297 427 297 427 256 427 c 0,30,31
 248 427 248 427 241 426.5 c 128,-1,32
 234 426 234 426 226 425 c 1,33,-1
 226 476 l 1,34,35
 231 475 231 475 236 475 c 128,-1,36
 241 475 241 475 246 475 c 0,37,38
 291 475 291 475 310 490 c 128,-1,39
 329 505 329 505 329 527 c 256,40,41
 329 549 329 549 308 567 c 128,-1,42
 287 585 287 585 255 585 c 0,43,44
 198 585 198 585 161 539 c 1,45,-1
 125 576 l 1,46,47
 178 638 178 638 258 638 c 0,0,1
EndSplineSet
EndChar

StartChar: acute
Encoding: 180 180 117
Width: 500
Flags: W
LayerCount: 2
Back
Fore
SplineSet
292 699 m 1,0,-1
 355 657 l 1,1,-1
 254 522 l 1,2,-1
 204 552 l 1,3,-1
 292 699 l 1,0,-1
EndSplineSet
EndChar

StartChar: micro
Encoding: 181 181 118
Width: 500
Flags: W
LayerCount: 2
Back
Fore
SplineSet
372 116 m 2,0,1
 372 47 372 47 412 47 c 0,2,3
 426 47 426 47 440.5 59 c 128,-1,4
 455 71 455 71 461 84 c 2,5,-1
 467 96 l 1,6,-1
 494 45 l 1,7,8
 457 -10 457 -10 406 -10 c 0,9,10
 374 -10 374 -10 351 12.5 c 128,-1,11
 328 35 328 35 324 67 c 1,12,13
 307 28 307 28 272.5 9 c 128,-1,14
 238 -10 238 -10 201 -10 c 256,15,16
 164 -10 164 -10 132.5 7.5 c 128,-1,17
 101 25 101 25 87 60 c 1,18,19
 87 3 87 3 87 -53.5 c 128,-1,20
 87 -110 87 -110 86 -167 c 1,21,-1
 24 -167 l 1,22,23
 24 -153 24 -153 25.5 -125 c 128,-1,24
 27 -97 27 -97 29.5 -62 c 128,-1,25
 32 -27 32 -27 34.5 12 c 128,-1,26
 37 51 37 51 39 87 c 128,-1,27
 41 123 41 123 42.5 153.5 c 128,-1,28
 44 184 44 184 44 202 c 2,29,-1
 44 457 l 1,30,-1
 110 457 l 1,31,-1
 110 186 l 2,32,33
 110 144 110 144 118 117.5 c 128,-1,34
 126 91 126 91 139.5 75 c 128,-1,35
 153 59 153 59 170.5 52 c 128,-1,36
 188 45 188 45 207 43 c 0,37,38
 226 45 226 45 244 53.5 c 128,-1,39
 262 62 262 62 276.5 78.5 c 128,-1,40
 291 95 291 95 299.5 121 c 128,-1,41
 308 147 308 147 308 183 c 2,42,-1
 308 192 l 1,43,-1
 308 457 l 1,44,-1
 372 457 l 1,45,-1
 372 116 l 2,0,1
EndSplineSet
EndChar

StartChar: paragraph
Encoding: 182 182 119
Width: 500
Flags: W
LayerCount: 2
Back
Fore
SplineSet
436 665 m 1,0,-1
 436 -68 l 1,1,-1
 378 -68 l 1,2,-1
 378 608 l 1,3,-1
 302 608 l 1,4,-1
 302 -68 l 1,5,-1
 243 -68 l 1,6,-1
 243 322 l 1,7,8
 205 324 205 324 172.5 339 c 128,-1,9
 140 354 140 354 116 377.5 c 128,-1,10
 92 401 92 401 78 431.5 c 128,-1,11
 64 462 64 462 64 496 c 256,12,13
 64 530 64 530 76.5 561 c 128,-1,14
 89 592 89 592 118.5 615.5 c 128,-1,15
 148 639 148 639 195 652 c 128,-1,16
 242 665 242 665 311 665 c 2,17,-1
 436 665 l 1,0,-1
EndSplineSet
EndChar

StartChar: periodcentered
Encoding: 183 183 120
Width: 500
Flags: W
LayerCount: 2
Back
Fore
SplineSet
280 371 m 0,0,1
 298 354 298 354 298 331 c 256,2,3
 298 308 298 308 280.5 291 c 128,-1,4
 263 274 263 274 238 274 c 256,5,6
 213 274 213 274 196 290.5 c 128,-1,7
 179 307 179 307 179 331 c 256,8,9
 179 355 179 355 197 371.5 c 128,-1,10
 215 388 215 388 238 388 c 256,11,12
 261 388 261 388 280 371 c 0,0,1
EndSplineSet
EndChar

StartChar: cedilla
Encoding: 184 184 121
Width: 500
Flags: W
LayerCount: 2
Back
Fore
SplineSet
327 -109 m 0,0,1
 327 -85 327 -85 280 -85 c 2,2,-1
 250 -85 l 1,3,-1
 261 0 l 1,4,-1
 305 0 l 1,5,-1
 299 -47 l 1,6,-1
 316 -48 l 2,7,8
 384 -53 384 -53 384 -103 c 0,9,10
 384 -131 384 -131 355.5 -154 c 128,-1,11
 327 -177 327 -177 268 -177 c 256,12,13
 209 -177 209 -177 157 -140 c 1,14,-1
 182 -98 l 1,15,16
 225 -134 225 -134 281 -134 c 0,17,18
 307 -134 307 -134 317 -126.5 c 128,-1,19
 327 -119 327 -119 327 -109 c 0,0,1
EndSplineSet
EndChar

StartChar: uni00B9
Encoding: 185 185 122
Width: 500
Flags: W
LayerCount: 2
Back
Fore
SplineSet
299 633 m 1,0,-1
 299 253 l 1,1,-1
 235 253 l 1,2,-1
 235 553 l 1,3,-1
 138 528 l 1,4,-1
 122 559 l 1,5,-1
 255 633 l 1,6,-1
 299 633 l 1,0,-1
EndSplineSet
EndChar

StartChar: ordmasculine
Encoding: 186 186 123
Width: 500
Flags: W
LayerCount: 2
Back
Fore
SplineSet
96 434 m 0,0,1
 96 476 96 476 108.5 510.5 c 128,-1,2
 121 545 121 545 142 569.5 c 128,-1,3
 163 594 163 594 191 608 c 128,-1,4
 219 622 219 622 249 622 c 0,5,6
 280 622 280 622 307 610 c 128,-1,7
 334 598 334 598 354 575 c 128,-1,8
 374 552 374 552 385.5 518.5 c 128,-1,9
 397 485 397 485 397 441 c 0,10,11
 397 398 397 398 384.5 363.5 c 128,-1,12
 372 329 372 329 351 305 c 128,-1,13
 330 281 330 281 302.5 268.5 c 128,-1,14
 275 256 275 256 245 256 c 0,15,16
 214 256 214 256 187 269 c 128,-1,17
 160 282 160 282 139.5 305.5 c 128,-1,18
 119 329 119 329 107.5 361.5 c 128,-1,19
 96 394 96 394 96 434 c 0,0,1
247 566 m 256,20,21
 210 566 210 566 183 532 c 128,-1,22
 156 498 156 498 156 438 c 256,23,24
 156 378 156 378 183 346 c 128,-1,25
 210 314 210 314 246 314 c 0,26,27
 283 314 283 314 310 345.5 c 128,-1,28
 337 377 337 377 337 437 c 0,29,30
 337 498 337 498 310.5 532 c 128,-1,31
 284 566 284 566 247 566 c 256,20,21
76 206 m 1,32,-1
 425 206 l 1,33,-1
 425 152 l 1,34,-1
 76 152 l 1,35,-1
 76 206 l 1,32,-1
EndSplineSet
EndChar

StartChar: guillemotright
Encoding: 187 187 124
Width: 500
Flags: W
LayerCount: 2
Back
Fore
SplineSet
265 253 m 1,0,-1
 265 230 l 1,1,-1
 107 61 l 1,2,-1
 67 101 l 1,3,-1
 195 241 l 1,4,-1
 74 359 l 1,5,-1
 113 400 l 1,6,-1
 265 253 l 1,0,-1
446 253 m 1,7,-1
 446 230 l 1,8,-1
 288 61 l 1,9,-1
 249 101 l 1,10,-1
 376 241 l 1,11,-1
 255 359 l 1,12,-1
 294 400 l 1,13,-1
 446 253 l 1,7,-1
EndSplineSet
EndChar

StartChar: onequarter
Encoding: 188 188 125
Width: 500
Flags: W
LayerCount: 2
Back
Fore
SplineSet
76 -16 m 1,0,-1
 389 665 l 1,1,-1
 437 638 l 1,2,-1
 123 -42 l 1,3,-1
 76 -16 l 1,0,-1
396 242 m 1,4,-1
 427 242 l 1,5,-1
 427 45 l 1,6,-1
 477 45 l 1,7,-1
 477 8 l 1,8,-1
 427 8 l 1,9,-1
 427 -70 l 1,10,-1
 381 -70 l 1,11,-1
 381 8 l 1,12,-1
 236 8 l 1,13,-1
 236 37 l 1,14,-1
 396 242 l 1,4,-1
382 164 m 1,15,-1
 288 45 l 1,16,-1
 382 45 l 1,17,-1
 382 164 l 1,15,-1
146 677 m 1,18,-1
 146 374 l 1,19,-1
 95 374 l 1,20,-1
 95 614 l 1,21,-1
 18 594 l 1,22,-1
 5 619 l 1,23,-1
 112 677 l 1,24,-1
 146 677 l 1,18,-1
EndSplineSet
EndChar

StartChar: onehalf
Encoding: 189 189 126
Width: 500
Flags: W
LayerCount: 2
Back
Fore
SplineSet
76 -16 m 1,0,-1
 389 665 l 1,1,-1
 437 638 l 1,2,-1
 123 -42 l 1,3,-1
 76 -16 l 1,0,-1
263 168 m 1,4,5
 282 200 282 200 313.5 217.5 c 128,-1,6
 345 235 345 235 389 235 c 0,7,8
 410 235 410 235 427.5 227.5 c 128,-1,9
 445 220 445 220 458.5 207 c 128,-1,10
 472 194 472 194 479.5 177.5 c 128,-1,11
 487 161 487 161 487 143 c 0,12,13
 487 127 487 127 483.5 115 c 128,-1,14
 480 103 480 103 470.5 91 c 128,-1,15
 461 79 461 79 443.5 65 c 128,-1,16
 426 51 426 51 398 31 c 0,17,18
 354 -1 354 -1 329 -29 c 1,19,-1
 475 -29 l 2,20,21
 479 -29 479 -29 484 -25.5 c 128,-1,22
 489 -22 489 -22 494 -22 c 1,23,-1
 494 -73 l 1,24,-1
 270 -73 l 1,25,-1
 270 -38 l 1,26,27
 288 -14 288 -14 314 12.5 c 128,-1,28
 340 39 340 39 375 65 c 2,29,-1
 398 82 l 2,30,31
 439 117 439 117 439 140 c 0,32,33
 439 165 439 165 422.5 179.5 c 128,-1,34
 406 194 406 194 379 194 c 0,35,36
 333 194 333 194 308 160 c 0,37,38
 305 157 305 157 303.5 151.5 c 128,-1,39
 302 146 302 146 300 143 c 2,40,-1
 263 168 l 1,4,5
146 677 m 1,41,-1
 146 374 l 1,42,-1
 95 374 l 1,43,-1
 95 614 l 1,44,-1
 18 594 l 1,45,-1
 5 619 l 1,46,-1
 112 677 l 1,47,-1
 146 677 l 1,41,-1
EndSplineSet
EndChar

StartChar: threequarters
Encoding: 190 190 127
Width: 500
Flags: W
LayerCount: 2
Back
Fore
SplineSet
81 -16 m 1,0,-1
 394 665 l 1,1,-1
 442 638 l 1,2,-1
 128 -42 l 1,3,-1
 81 -16 l 1,0,-1
128 684 m 0,4,5
 150 684 150 684 169 677 c 128,-1,6
 188 670 188 670 202 658.5 c 128,-1,7
 216 647 216 647 224 631.5 c 128,-1,8
 232 616 232 616 232 598 c 0,9,10
 232 576 232 576 219.5 559 c 128,-1,11
 207 542 207 542 187 535 c 1,12,13
 213 531 213 531 229.5 511.5 c 128,-1,14
 246 492 246 492 246 467 c 0,15,16
 246 447 246 447 236 430.5 c 128,-1,17
 226 414 226 414 209.5 401 c 128,-1,18
 193 388 193 388 171 381 c 128,-1,19
 149 374 149 374 125 374 c 0,20,21
 57 374 57 374 11 426 c 1,22,-1
 49 468 l 1,23,24
 52 464 52 464 54 456.5 c 128,-1,25
 56 449 56 449 60 445 c 0,26,27
 74 431 74 431 90 425 c 128,-1,28
 106 419 106 419 123 419 c 0,29,30
 152 419 152 419 174.5 433.5 c 128,-1,31
 197 448 197 448 197 467 c 0,32,33
 197 491 197 491 180.5 503 c 128,-1,34
 164 515 164 515 126 515 c 0,35,36
 120 515 120 515 114 515 c 128,-1,37
 108 515 108 515 102 514 c 1,38,-1
 102 554 l 1,39,40
 107 552 107 552 113 552.5 c 128,-1,41
 119 553 119 553 124 553 c 0,42,43
 156 553 156 553 170.5 565.5 c 128,-1,44
 185 578 185 578 185 594 c 0,45,46
 185 611 185 611 169 626.5 c 128,-1,47
 153 642 153 642 125 642 c 0,48,49
 80 642 80 642 51 604 c 1,50,-1
 22 634 l 1,51,52
 64 684 64 684 128 684 c 0,4,5
396 242 m 1,53,-1
 427 242 l 1,54,-1
 427 45 l 1,55,-1
 477 45 l 1,56,-1
 477 8 l 1,57,-1
 427 8 l 1,58,-1
 427 -70 l 1,59,-1
 381 -70 l 1,60,-1
 381 8 l 1,61,-1
 236 8 l 1,62,-1
 236 37 l 1,63,-1
 396 242 l 1,53,-1
382 164 m 1,64,-1
 288 45 l 1,65,-1
 382 45 l 1,66,-1
 382 164 l 1,64,-1
EndSplineSet
EndChar

StartChar: questiondown
Encoding: 191 191 128
Width: 500
Flags: W
LayerCount: 2
Back
Fore
SplineSet
198 567 m 256,0,1
 181 583 181 583 181 608 c 0,2,3
 181 632 181 632 199 648.5 c 128,-1,4
 217 665 217 665 240 665 c 256,5,6
 263 665 263 665 281.5 648 c 128,-1,7
 300 631 300 631 300 608 c 256,8,9
 300 585 300 585 282.5 568 c 128,-1,10
 265 551 265 551 240 551 c 256,11,12
 215 551 215 551 198 567 c 256,0,1
438 91 m 1,13,14
 406 42 406 42 354 14.5 c 128,-1,15
 302 -13 302 -13 245 -13 c 0,16,17
 203 -13 203 -13 170 1 c 128,-1,18
 137 15 137 15 114 39 c 128,-1,19
 91 63 91 63 79 95 c 128,-1,20
 67 127 67 127 67 163 c 0,21,22
 67 215 67 215 90.5 248.5 c 128,-1,23
 114 282 114 282 144 307 c 2,24,-1
 166 325 l 2,25,26
 194 348 194 348 202 371 c 128,-1,27
 210 394 210 394 210 426 c 2,28,-1
 210 468 l 1,29,-1
 275 468 l 1,30,-1
 275 426 l 2,31,32
 275 403 275 403 273.5 386.5 c 128,-1,33
 272 370 272 370 265.5 354 c 128,-1,34
 259 338 259 338 245.5 320 c 128,-1,35
 232 302 232 302 209 278 c 0,36,37
 173 240 173 240 159.5 213.5 c 128,-1,38
 146 187 146 187 146 158 c 0,39,40
 146 136 146 136 154.5 116.5 c 128,-1,41
 163 97 163 97 177 83 c 128,-1,42
 191 69 191 69 209.5 60.5 c 128,-1,43
 228 52 228 52 248 52 c 0,44,45
 290 52 290 52 326.5 75.5 c 128,-1,46
 363 99 363 99 387 139 c 1,47,-1
 438 91 l 1,13,14
EndSplineSet
EndChar

StartChar: Aring
Encoding: 197 197 134
Width: 500
Flags: W
LayerCount: 2
Back
Fore
SplineSet
241 753 m 256,0,1
 224 753 224 753 211.5 740 c 128,-1,2
 199 727 199 727 199 707 c 0,3,4
 199 688 199 688 211.5 675 c 128,-1,5
 224 662 224 662 241 662 c 256,6,7
 258 662 258 662 270 675 c 128,-1,8
 282 688 282 688 282 707 c 0,9,10
 282 727 282 727 270 740 c 128,-1,11
 258 753 258 753 241 753 c 256,0,1
326 236 m 1,12,-1
 238 474 l 1,13,-1
 158 236 l 1,14,-1
 326 236 l 1,12,-1
248 619 m 1,15,-1
 483 0 l 1,16,-1
 411 0 l 1,17,-1
 342 182 l 1,18,-1
 144 182 l 1,19,-1
 84 -1 l 1,20,-1
 15 -1 l 1,21,-1
 230 619 l 1,22,23
 195 623 195 623 171.5 648 c 128,-1,24
 148 673 148 673 148 708 c 0,25,26
 148 726 148 726 155 741.5 c 128,-1,27
 162 757 162 757 174.5 769 c 128,-1,28
 187 781 187 781 204 788 c 128,-1,29
 221 795 221 795 240 795 c 256,30,31
 259 795 259 795 275.5 788 c 128,-1,32
 292 781 292 781 304.5 769 c 128,-1,33
 317 757 317 757 324 741.5 c 128,-1,34
 331 726 331 726 331 708 c 0,35,36
 331 673 331 673 307.5 647.5 c 128,-1,37
 284 622 284 622 248 619 c 1,15,-1
EndSplineSet
EndChar

StartChar: AE
Encoding: 198 198 135
Width: 500
Flags: W
LayerCount: 2
Back
Fore
SplineSet
200 624 m 1,0,-1
 484 624 l 1,1,-1
 484 562 l 1,2,-1
 313 562 l 1,3,-1
 313 357 l 1,4,-1
 458 357 l 1,5,-1
 458 293 l 1,6,-1
 313 293 l 1,7,-1
 313 62 l 1,8,-1
 482 62 l 1,9,-1
 482 0 l 1,10,-1
 252 0 l 1,11,-1
 252 169 l 1,12,-1
 122 169 l 1,13,-1
 68 0 l 1,14,-1
 4 0 l 1,15,-1
 200 624 l 1,0,-1
252 562 m 1,16,-1
 241 562 l 1,17,-1
 136 227 l 1,18,-1
 252 227 l 1,19,-1
 252 562 l 1,16,-1
EndSplineSet
EndChar

StartChar: Ccedilla
Encoding: 199 199 136
Width: 500
Flags: W
LayerCount: 2
Back
Fore
SplineSet
327 -109 m 0,0,1
 327 -85 327 -85 280 -85 c 2,2,-1
 250 -85 l 1,3,-1
 260 -10 l 1,4,5
 218 -6 218 -6 178.5 14 c 128,-1,6
 139 34 139 34 108 72 c 128,-1,7
 77 110 77 110 59 167.5 c 128,-1,8
 41 225 41 225 41 303 c 0,9,10
 41 399 41 399 64 462 c 128,-1,11
 87 525 87 525 121.5 561.5 c 128,-1,12
 156 598 156 598 197.5 613 c 128,-1,13
 239 628 239 628 276 628 c 0,14,15
 307 628 307 628 336.5 619 c 128,-1,16
 366 610 366 610 391.5 594 c 128,-1,17
 417 578 417 578 437 555.5 c 128,-1,18
 457 533 457 533 469 505 c 1,19,-1
 402 472 l 1,20,21
 398 475 398 475 398 482 c 0,22,23
 398 494 398 494 395 500 c 0,24,25
 375 533 375 533 343 552.5 c 128,-1,26
 311 572 311 572 275 572 c 0,27,28
 241 572 241 572 211 554.5 c 128,-1,29
 181 537 181 537 158.5 503.5 c 128,-1,30
 136 470 136 470 122.5 422 c 128,-1,31
 109 374 109 374 109 313 c 0,32,33
 109 254 109 254 122 205.5 c 128,-1,34
 135 157 135 157 158.5 122.5 c 128,-1,35
 182 88 182 88 213.5 69 c 128,-1,36
 245 50 245 50 281 50 c 0,37,38
 318 50 318 50 352.5 70.5 c 128,-1,39
 387 91 387 91 408 126 c 1,40,-1
 460 92 l 1,41,42
 434 50 434 50 393 23.5 c 128,-1,43
 352 -3 352 -3 304 -9 c 1,44,-1
 299 -47 l 1,45,-1
 316 -48 l 2,46,47
 384 -53 384 -53 384 -103 c 0,48,49
 384 -131 384 -131 355.5 -154 c 128,-1,50
 327 -177 327 -177 268 -177 c 256,51,52
 209 -177 209 -177 157 -140 c 1,53,-1
 182 -98 l 1,54,55
 225 -134 225 -134 281 -134 c 0,56,57
 307 -134 307 -134 317 -126.5 c 128,-1,58
 327 -119 327 -119 327 -109 c 0,0,1
EndSplineSet
EndChar

StartChar: Eth
Encoding: 208 208 145
Width: 500
Flags: W
LayerCount: 2
Back
Fore
SplineSet
79 623 m 1,0,-1
 218 623 l 2,1,2
 286 623 286 623 332.5 600 c 128,-1,3
 379 577 379 577 408.5 535.5 c 128,-1,4
 438 494 438 494 452 435.5 c 128,-1,5
 466 377 466 377 466 306 c 0,6,7
 466 261 466 261 456 216.5 c 128,-1,8
 446 172 446 172 427.5 133.5 c 128,-1,9
 409 95 409 95 381.5 64.5 c 128,-1,10
 354 34 354 34 319 18 c 0,11,12
 280 -1 280 -1 206 -1 c 2,13,-1
 79 -1 l 1,14,-1
 79 301 l 1,15,-1
 30 301 l 1,16,-1
 30 359 l 1,17,-1
 79 359 l 1,18,-1
 79 623 l 1,0,-1
143 301 m 1,19,-1
 143 57 l 1,20,-1
 203 57 l 2,21,22
 299 57 299 57 349 122.5 c 128,-1,23
 399 188 399 188 399 306 c 0,24,25
 399 426 399 426 354.5 495 c 128,-1,26
 310 564 310 564 214 564 c 2,27,-1
 143 564 l 1,28,-1
 143 359 l 1,29,-1
 248 359 l 1,30,-1
 248 301 l 1,31,-1
 143 301 l 1,19,-1
EndSplineSet
EndChar

StartChar: multiply
Encoding: 215 215 152
Width: 500
Flags: W
LayerCount: 2
Back
Fore
SplineSet
382 503 m 1,0,-1
 430 459 l 1,1,-1
 300 325 l 1,2,-1
 427 191 l 1,3,-1
 381 145 l 1,4,-1
 254 278 l 1,5,-1
 129 149 l 1,6,-1
 85 193 l 1,7,-1
 211 324 l 1,8,-1
 85 457 l 1,9,-1
 132 503 l 1,10,-1
 256 372 l 1,11,-1
 382 503 l 1,0,-1
EndSplineSet
EndChar

StartChar: Oslash
Encoding: 216 216 153
Width: 500
Flags: W
LayerCount: 2
Back
Fore
SplineSet
150 513 m 0,0,1
 127 487 127 487 112.5 437.5 c 128,-1,2
 98 388 98 388 98 322 c 0,3,4
 98 212 98 212 132 145 c 1,5,-1
 336 528 l 1,6,7
 298 564 298 564 252 564 c 0,8,9
 226 564 226 564 200 551.5 c 128,-1,10
 174 539 174 539 150 513 c 0,0,1
413 545 m 1,11,12
 471 466 471 466 471 310 c 0,13,14
 471 218 471 218 452 157 c 128,-1,15
 433 96 433 96 402 58.5 c 128,-1,16
 371 21 371 21 332 5.5 c 128,-1,17
 293 -10 293 -10 254 -10 c 0,18,19
 225 -10 225 -10 195.5 -0.5 c 128,-1,20
 166 9 166 9 138 30 c 1,21,-1
 88 -63 l 1,22,-1
 36 -36 l 1,23,-1
 95 74 l 1,24,25
 29 159 29 159 29 313 c 0,26,27
 29 384 29 384 45 442.5 c 128,-1,28
 61 501 61 501 90.5 542.5 c 128,-1,29
 120 584 120 584 161.5 607 c 128,-1,30
 203 630 203 630 254 630 c 0,31,32
 284 630 284 630 313.5 620 c 128,-1,33
 343 610 343 610 369 590 c 1,34,-1
 415 677 l 1,35,-1
 469 648 l 1,36,-1
 413 545 l 1,11,12
374 472 m 1,37,-1
 171 92 l 1,38,39
 208 59 208 59 248 59 c 0,40,41
 323 59 323 59 362 121.5 c 128,-1,42
 401 184 401 184 401 314 c 0,43,44
 401 413 401 413 374 472 c 1,37,-1
EndSplineSet
EndChar

StartChar: Thorn
Encoding: 222 222 159
Width: 500
Flags: W
LayerCount: 2
Back
Fore
SplineSet
59 623 m 1,0,-1
 137 623 l 2,1,2
 139 621 139 621 139 620 c 0,3,4
 139 617 139 617 135 610.5 c 128,-1,5
 131 604 131 604 129 595 c 2,6,-1
 129 506 l 1,7,-1
 259 506 l 2,8,9
 311 506 311 506 347.5 492 c 128,-1,10
 384 478 384 478 407.5 454 c 128,-1,11
 431 430 431 430 442.5 398 c 128,-1,12
 454 366 454 366 456 330 c 0,13,14
 454 294 454 294 442.5 262.5 c 128,-1,15
 431 231 431 231 408.5 208 c 128,-1,16
 386 185 386 185 350.5 171.5 c 128,-1,17
 315 158 315 158 264 158 c 2,18,-1
 129 158 l 1,19,-1
 129 0 l 1,20,-1
 59 0 l 1,21,-1
 59 623 l 1,0,-1
129 440 m 1,22,-1
 129 219 l 1,23,-1
 264 219 l 2,24,25
 296 219 296 219 318 227.5 c 128,-1,26
 340 236 340 236 354.5 250.5 c 128,-1,27
 369 265 369 265 375.5 285 c 128,-1,28
 382 305 382 305 384 328 c 0,29,30
 382 351 382 351 374.5 371.5 c 128,-1,31
 367 392 367 392 352 407 c 128,-1,32
 337 422 337 422 313.5 431 c 128,-1,33
 290 440 290 440 257 440 c 2,34,-1
 129 440 l 1,22,-1
EndSplineSet
EndChar

StartChar: germandbls
Encoding: 223 223 160
Width: 500
Flags: W
LayerCount: 2
Back
Fore
SplineSet
55 0 m 1,0,-1
 55 423 l 2,1,2
 55 547 55 547 105 608 c 128,-1,3
 155 669 155 669 239 669 c 0,4,5
 276 669 276 669 309 654.5 c 128,-1,6
 342 640 342 640 366.5 616 c 128,-1,7
 391 592 391 592 405.5 560 c 128,-1,8
 420 528 420 528 420 493 c 0,9,10
 420 450 420 450 399 414 c 128,-1,11
 378 378 378 378 341 359 c 1,12,13
 369 350 369 350 392 333 c 128,-1,14
 415 316 415 316 431 292.5 c 128,-1,15
 447 269 447 269 455.5 240.5 c 128,-1,16
 464 212 464 212 464 181 c 0,17,18
 464 140 464 140 450 105.5 c 128,-1,19
 436 71 436 71 411 45 c 128,-1,20
 386 19 386 19 353 4.5 c 128,-1,21
 320 -10 320 -10 281 -10 c 0,22,23
 223 -10 223 -10 177 21 c 1,24,-1
 212 77 l 1,25,26
 242 53 242 53 285 53 c 0,27,28
 306 53 306 53 326.5 63.5 c 128,-1,29
 347 74 347 74 363 90.5 c 128,-1,30
 379 107 379 107 388.5 128.5 c 128,-1,31
 398 150 398 150 398 173 c 0,32,33
 396 207 396 207 386.5 235 c 128,-1,34
 377 263 377 263 359 282.5 c 128,-1,35
 341 302 341 302 312.5 312.5 c 128,-1,36
 284 323 284 323 244 323 c 2,37,-1
 214 323 l 1,38,-1
 214 380 l 1,39,-1
 250 380 l 2,40,41
 268 380 268 380 286.5 387 c 128,-1,42
 305 394 305 394 319.5 409 c 128,-1,43
 334 424 334 424 343 446.5 c 128,-1,44
 352 469 352 469 352 501 c 0,45,46
 352 522 352 522 343.5 542 c 128,-1,47
 335 562 335 562 319.5 577.5 c 128,-1,48
 304 593 304 593 283 602 c 128,-1,49
 262 611 262 611 237 611 c 0,50,51
 210 611 210 611 189 597.5 c 128,-1,52
 168 584 168 584 153 559.5 c 128,-1,53
 138 535 138 535 130.5 501 c 128,-1,54
 123 467 123 467 123 425 c 2,55,-1
 123 0 l 1,56,-1
 55 0 l 1,0,-1
EndSplineSet
EndChar

StartChar: ae
Encoding: 230 230 167
Width: 500
Flags: W
LayerCount: 2
Back
Fore
SplineSet
31 412 m 1,0,1
 74 467 74 467 147 467 c 0,2,3
 183 467 183 467 212.5 450.5 c 128,-1,4
 242 434 242 434 258 405 c 1,5,6
 275 434 275 434 303.5 450.5 c 128,-1,7
 332 467 332 467 362 467 c 0,8,9
 430 467 430 467 460 414 c 128,-1,10
 490 361 490 361 490 268 c 2,11,-1
 490 230 l 1,12,-1
 282 223 l 1,13,-1
 282 175 l 2,14,15
 282 117 282 117 310 82 c 128,-1,16
 338 47 338 47 386 47 c 0,17,18
 432 47 432 47 459 84 c 1,19,-1
 494 42 l 1,20,21
 450 -11 450 -11 380 -11 c 0,22,23
 342 -11 342 -11 308.5 7.5 c 128,-1,24
 275 26 275 26 255 58 c 1,25,26
 238 26 238 26 208 7.5 c 128,-1,27
 178 -11 178 -11 142 -11 c 0,28,29
 113 -11 113 -11 88.5 1 c 128,-1,30
 64 13 64 13 46.5 32 c 128,-1,31
 29 51 29 51 19.5 75 c 128,-1,32
 10 99 10 99 10 123 c 0,33,34
 10 192 10 192 61 233.5 c 128,-1,35
 112 275 112 275 198 278 c 2,36,-1
 221 279 l 1,37,-1
 221 305 l 2,38,39
 221 354 221 354 199 382.5 c 128,-1,40
 177 411 177 411 142 411 c 0,41,42
 97 411 97 411 66 368 c 1,43,-1
 31 412 l 1,0,1
221 219 m 1,44,-1
 199 218 l 2,45,46
 162 216 162 216 138 208.5 c 128,-1,47
 114 201 114 201 99.5 188.5 c 128,-1,48
 85 176 85 176 79.5 159 c 128,-1,49
 74 142 74 142 74 122 c 0,50,51
 74 108 74 108 80 95.5 c 128,-1,52
 86 83 86 83 96 72.5 c 128,-1,53
 106 62 106 62 118.5 56 c 128,-1,54
 131 50 131 50 144 50 c 0,55,56
 187 50 187 50 204.5 76.5 c 128,-1,57
 222 103 222 103 222 158 c 0,58,59
 222 164 222 164 221.5 169.5 c 128,-1,60
 221 175 221 175 221 181 c 2,61,-1
 221 219 l 1,44,-1
282 279 m 1,62,-1
 432 284 l 1,63,-1
 432 305 l 2,64,65
 432 354 432 354 413.5 382.5 c 128,-1,66
 395 411 395 411 362 411 c 0,67,68
 326 411 326 411 304 378 c 128,-1,69
 282 345 282 345 282 296 c 2,70,-1
 282 279 l 1,62,-1
EndSplineSet
EndChar

StartChar: ccedilla
Encoding: 231 231 168
Width: 500
Flags: W
LayerCount: 2
Back
Fore
SplineSet
327 -109 m 0,0,1
 327 -85 327 -85 280 -85 c 2,2,-1
 250 -85 l 1,3,-1
 260 -10 l 1,4,5
 216 -6 216 -6 178.5 13.5 c 128,-1,6
 141 33 141 33 114 64.5 c 128,-1,7
 87 96 87 96 71.5 138.5 c 128,-1,8
 56 181 56 181 56 231 c 0,9,10
 56 280 56 280 73 323 c 128,-1,11
 90 366 90 366 120.5 398 c 128,-1,12
 151 430 151 430 193.5 448 c 128,-1,13
 236 466 236 466 286 466 c 0,14,15
 340 466 340 466 384.5 443.5 c 128,-1,16
 429 421 429 421 457 381 c 1,17,-1
 406 322 l 1,18,19
 401 325 401 325 400.5 328.5 c 128,-1,20
 400 332 400 332 400.5 338 c 128,-1,21
 401 344 401 344 394 353 c 128,-1,22
 387 362 387 362 369 377 c 0,23,24
 335 405 335 405 276 405 c 0,25,26
 247 405 247 405 220.5 393 c 128,-1,27
 194 381 194 381 174 358.5 c 128,-1,28
 154 336 154 336 142 304.5 c 128,-1,29
 130 273 130 273 130 234 c 256,30,31
 130 195 130 195 142 162 c 128,-1,32
 154 129 154 129 175 105 c 128,-1,33
 196 81 196 81 225 67.5 c 128,-1,34
 254 54 254 54 289 54 c 0,35,36
 358 54 358 54 408 110 c 1,37,-1
 450 61 l 1,38,39
 391 -2 391 -2 304 -10 c 1,40,-1
 299 -47 l 1,41,-1
 316 -48 l 2,42,43
 384 -53 384 -53 384 -103 c 0,44,45
 384 -131 384 -131 355.5 -154 c 128,-1,46
 327 -177 327 -177 268 -177 c 256,47,48
 209 -177 209 -177 157 -140 c 1,49,-1
 182 -98 l 1,50,51
 225 -134 225 -134 281 -134 c 0,52,53
 307 -134 307 -134 317 -126.5 c 128,-1,54
 327 -119 327 -119 327 -109 c 0,0,1
EndSplineSet
EndChar

StartChar: eth
Encoding: 240 240 177
Width: 500
Flags: W
LayerCount: 2
Back
Fore
SplineSet
256 50 m 0,0,1
 281 50 281 50 304.5 60.5 c 128,-1,2
 328 71 328 71 346.5 93.5 c 128,-1,3
 365 116 365 116 376 150 c 128,-1,4
 387 184 387 184 387 232 c 256,5,6
 387 280 387 280 375 313.5 c 128,-1,7
 363 347 363 347 343.5 367.5 c 128,-1,8
 324 388 324 388 300.5 397 c 128,-1,9
 277 406 277 406 253 406 c 256,10,11
 229 406 229 406 204.5 395 c 128,-1,12
 180 384 180 384 160.5 362 c 128,-1,13
 141 340 141 340 129 307.5 c 128,-1,14
 117 275 117 275 117 232 c 0,15,16
 117 191 117 191 128 157.5 c 128,-1,17
 139 124 139 124 157.5 100 c 128,-1,18
 176 76 176 76 201.5 63 c 128,-1,19
 227 50 227 50 256 50 c 0,0,1
347 570 m 1,20,21
 460 442 460 442 460 253 c 0,22,23
 460 193 460 193 446.5 144 c 128,-1,24
 433 95 433 95 407.5 60.5 c 128,-1,25
 382 26 382 26 343.5 7 c 128,-1,26
 305 -12 305 -12 256 -12 c 0,27,28
 212 -12 212 -12 173 5.5 c 128,-1,29
 134 23 134 23 104.5 54.5 c 128,-1,30
 75 86 75 86 57.5 129 c 128,-1,31
 40 172 40 172 40 223 c 0,32,33
 40 273 40 273 57 317.5 c 128,-1,34
 74 362 74 362 102.5 395 c 128,-1,35
 131 428 131 428 167.5 447.5 c 128,-1,36
 204 467 204 467 242 467 c 0,37,38
 320 467 320 467 369 415 c 1,39,40
 353 453 353 453 332 487.5 c 128,-1,41
 311 522 311 522 283 552 c 1,42,-1
 155 516 l 1,43,-1
 137 564 l 1,44,-1
 241 592 l 1,45,46
 196 630 196 630 139 656 c 1,47,-1
 220 672 l 1,48,49
 265 647 265 647 307 610 c 1,50,-1
 415 639 l 1,51,-1
 432 595 l 1,52,-1
 347 570 l 1,20,21
EndSplineSet
EndChar

StartChar: divide
Encoding: 247 247 184
Width: 500
Flags: W
LayerCount: 2
Back
Fore
SplineSet
71 348 m 1,0,-1
 431 348 l 1,1,-1
 431 281 l 1,2,-1
 71 281 l 1,3,-1
 71 348 l 1,0,-1
287 498 m 0,4,5
 300 483 300 483 300 466 c 0,6,7
 300 448 300 448 287 435 c 128,-1,8
 274 422 274 422 255 422 c 0,9,10
 237 422 237 422 224 435 c 128,-1,11
 211 448 211 448 211 466 c 0,12,13
 211 485 211 485 224.5 498.5 c 128,-1,14
 238 512 238 512 255 512 c 0,15,16
 273 512 273 512 287 498 c 0,4,5
287 190 m 0,17,18
 300 175 300 175 300 158 c 0,19,20
 300 140 300 140 287 127 c 128,-1,21
 274 114 274 114 256 114 c 256,22,23
 238 114 238 114 224 126.5 c 128,-1,24
 210 139 210 139 210 158 c 0,25,26
 210 178 210 178 224.5 191 c 128,-1,27
 239 204 239 204 256 204 c 256,28,29
 273 204 273 204 287 190 c 0,17,18
EndSplineSet
EndChar

StartChar: oslash
Encoding: 248 248 185
Width: 500
Flags: W
LayerCount: 2
Back
Fore
SplineSet
252 406 m 256,0,1
 225 406 225 406 200.5 393.5 c 128,-1,2
 176 381 176 381 157 358.5 c 128,-1,3
 138 336 138 336 127 304.5 c 128,-1,4
 116 273 116 273 116 235 c 0,5,6
 116 159 116 159 150 110 c 1,7,-1
 304 393 l 1,8,9
 279 406 279 406 252 406 c 256,0,1
386 417 m 1,10,11
 460 349 460 349 460 233 c 0,12,13
 460 175 460 175 444 129.5 c 128,-1,14
 428 84 428 84 400 52.5 c 128,-1,15
 372 21 372 21 334.5 4.5 c 128,-1,16
 297 -12 297 -12 255 -12 c 0,17,18
 205 -12 205 -12 162 10 c 1,19,-1
 122 -64 l 1,20,-1
 70 -37 l 1,21,-1
 114 44 l 1,22,23
 40 115 40 115 40 221 c 0,24,25
 40 275 40 275 57.5 320 c 128,-1,26
 75 365 75 365 104.5 397.5 c 128,-1,27
 134 430 134 430 173.5 448.5 c 128,-1,28
 213 467 213 467 257 467 c 0,29,30
 296 467 296 467 335 450 c 1,31,-1
 372 519 l 1,32,-1
 425 490 l 1,33,-1
 386 417 l 1,10,11
351 354 m 1,34,-1
 194 67 l 1,35,36
 223 50 223 50 255 50 c 0,37,38
 282 50 282 50 306 62 c 128,-1,39
 330 74 330 74 348.5 96.5 c 128,-1,40
 367 119 367 119 377.5 151 c 128,-1,41
 388 183 388 183 388 223 c 0,42,43
 388 305 388 305 351 354 c 1,34,-1
EndSplineSet
EndChar

StartChar: thorn
Encoding: 254 254 191
Width: 500
Flags: W
LayerCount: 2
Back
Fore
SplineSet
60 665 m 1,0,-1
 140 665 l 1,1,2
 140 658 140 658 136.5 649 c 128,-1,3
 133 640 133 640 133 632 c 2,4,-1
 133 387 l 1,5,6
 156 424 156 424 194.5 445.5 c 128,-1,7
 233 467 233 467 272 467 c 0,8,9
 310 467 310 467 344.5 452.5 c 128,-1,10
 379 438 379 438 405.5 409 c 128,-1,11
 432 380 432 380 447.5 336 c 128,-1,12
 463 292 463 292 463 232 c 256,13,14
 463 172 463 172 446.5 126 c 128,-1,15
 430 80 430 80 403 49.5 c 128,-1,16
 376 19 376 19 341.5 3.5 c 128,-1,17
 307 -12 307 -12 271 -12 c 0,18,19
 229 -12 229 -12 193 7 c 128,-1,20
 157 26 157 26 134 60 c 1,21,-1
 134 -167 l 1,22,-1
 60 -167 l 1,23,-1
 60 665 l 1,0,-1
133 190 m 2,24,25
 135 116 135 116 167 84 c 128,-1,26
 199 52 199 52 246 52 c 0,27,28
 271 52 271 52 296 60 c 128,-1,29
 321 68 321 68 341.5 87.5 c 128,-1,30
 362 107 362 107 375 139 c 128,-1,31
 388 171 388 171 388 219 c 0,32,33
 388 307 388 307 351.5 356.5 c 128,-1,34
 315 406 315 406 249 406 c 0,35,36
 229 406 229 406 208 399 c 128,-1,37
 187 392 187 392 170.5 375 c 128,-1,38
 154 358 154 358 143.5 329.5 c 128,-1,39
 133 301 133 301 133 259 c 2,40,-1
 133 190 l 2,24,25
EndSplineSet
EndChar

StartChar: Aogonek
Encoding: 260 260 195
Width: 500
Flags: W
LayerCount: 2
Back
Fore
SplineSet
326 236 m 1,0,-1
 238 474 l 1,1,-1
 158 236 l 1,2,-1
 326 236 l 1,0,-1
15 -1 m 1,3,-1
 235 634 l 1,4,-1
 243 634 l 1,5,-1
 484 0 l 1,6,7
 400 -75 400 -75 400 -102 c 0,8,9
 400 -114 400 -114 408 -122 c 128,-1,10
 416 -130 416 -130 428 -130 c 0,11,12
 457 -130 457 -130 486 -107 c 1,13,-1
 486 -153 l 1,14,15
 458 -176 458 -176 419 -176 c 0,16,17
 379 -176 379 -176 358.5 -158.5 c 128,-1,18
 338 -141 338 -141 338 -115 c 0,19,20
 338 -65 338 -65 418 0 c 1,21,-1
 411 0 l 1,22,-1
 342 182 l 1,23,-1
 144 182 l 1,24,-1
 84 -1 l 1,25,-1
 15 -1 l 1,3,-1
EndSplineSet
EndChar

StartChar: aogonek
Encoding: 261 261 196
Width: 500
Flags: W
LayerCount: 2
Back
Fore
SplineSet
369 214 m 1,0,-1
 352 214 l 2,1,2
 338 214 338 214 325.5 214.5 c 128,-1,3
 313 215 313 215 301 215 c 0,4,5
 246 215 246 215 211 207.5 c 128,-1,6
 176 200 176 200 156 187 c 128,-1,7
 136 174 136 174 128.5 157.5 c 128,-1,8
 121 141 121 141 121 122 c 0,9,10
 121 90 121 90 149 67 c 128,-1,11
 177 44 177 44 218 44 c 0,12,13
 248 44 248 44 272 53.5 c 128,-1,14
 296 63 296 63 314 76.5 c 128,-1,15
 332 90 332 90 343.5 105 c 128,-1,16
 355 120 355 120 359 130 c 0,17,18
 369 155 369 155 369 184 c 2,19,-1
 369 214 l 1,0,-1
91 403 m 1,20,21
 152 467 152 467 254 467 c 0,22,23
 338 467 338 467 386.5 424.5 c 128,-1,24
 435 382 435 382 435 283 c 2,25,-1
 434 0 l 1,26,27
 350 -75 350 -75 350 -102 c 0,28,29
 350 -114 350 -114 358 -122 c 128,-1,30
 366 -130 366 -130 378 -130 c 0,31,32
 407 -130 407 -130 436 -107 c 1,33,-1
 436 -153 l 1,34,35
 408 -176 408 -176 369 -176 c 0,36,37
 329 -176 329 -176 308.5 -158.5 c 128,-1,38
 288 -141 288 -141 288 -115 c 0,39,40
 288 -65 288 -65 368 0 c 1,41,-1
 367 50 l 1,42,43
 293 -11 293 -11 203 -11 c 0,44,45
 167 -11 167 -11 138.5 0 c 128,-1,46
 110 11 110 11 89.5 29 c 128,-1,47
 69 47 69 47 59 70 c 128,-1,48
 49 93 49 93 49 116 c 0,49,50
 49 184 49 184 108.5 224.5 c 128,-1,51
 168 265 168 265 280 269 c 1,52,-1
 366 269 l 1,53,-1
 366 286 l 2,54,55
 366 354 366 354 337.5 381 c 128,-1,56
 309 408 309 408 249 408 c 0,57,58
 175 408 175 408 126 357 c 1,59,-1
 91 403 l 1,20,21
EndSplineSet
EndChar

StartChar: dcaron
Encoding: 271 271 202
Width: 500
Flags: W
LayerCount: 2
Back
Fore
SplineSet
309 390 m 1,0,-1
 309 665 l 1,1,-1
 377 665 l 1,2,-1
 377 42 l 2,3,4
 377 15 377 15 381 0 c 1,5,-1
 310 0 l 1,6,7
 306 12 306 12 306 34 c 2,8,-1
 306 73 l 1,9,10
 284 36 284 36 249 13 c 128,-1,11
 214 -10 214 -10 172 -10 c 0,12,13
 135 -10 135 -10 103.5 8.5 c 128,-1,14
 72 27 72 27 49 59 c 128,-1,15
 26 91 26 91 13 135.5 c 128,-1,16
 0 180 0 180 0 233 c 256,17,18
 0 286 0 286 14.5 329.5 c 128,-1,19
 29 373 29 373 54 404 c 128,-1,20
 79 435 79 435 112 452 c 128,-1,21
 145 469 145 469 181 469 c 0,22,23
 223 469 223 469 257 447.5 c 128,-1,24
 291 426 291 426 309 390 c 1,0,-1
185 410 m 0,25,26
 160 410 160 410 139 397 c 128,-1,27
 118 384 118 384 102.5 361 c 128,-1,28
 87 338 87 338 78.5 307 c 128,-1,29
 70 276 70 276 70 240 c 256,30,31
 70 204 70 204 78 170.5 c 128,-1,32
 86 137 86 137 101.5 111 c 128,-1,33
 117 85 117 85 139 69 c 128,-1,34
 161 53 161 53 188 53 c 0,35,36
 205 53 205 53 225 61 c 128,-1,37
 245 69 245 69 262.5 87.5 c 128,-1,38
 280 106 280 106 291.5 136 c 128,-1,39
 303 166 303 166 303 210 c 0,40,41
 303 241 303 241 302.5 261.5 c 128,-1,42
 302 282 302 282 300.5 296 c 128,-1,43
 299 310 299 310 295.5 321.5 c 128,-1,44
 292 333 292 333 286 347 c 0,45,46
 280 360 280 360 269 371.5 c 128,-1,47
 258 383 258 383 244 391.5 c 128,-1,48
 230 400 230 400 215 405 c 128,-1,49
 200 410 200 410 185 410 c 0,25,26
509 605 m 0,50,51
 509 540 509 540 424 454 c 1,52,-1
 396 478 l 1,53,54
 419 499 419 499 433.5 523.5 c 128,-1,55
 448 548 448 548 448 563 c 0,56,57
 448 570 448 570 441.5 577 c 128,-1,58
 435 584 435 584 427.5 590.5 c 128,-1,59
 420 597 420 597 413.5 605 c 128,-1,60
 407 613 407 613 407 624 c 0,61,62
 407 644 407 644 420.5 657.5 c 128,-1,63
 434 671 434 671 455 671 c 256,64,65
 476 671 476 671 492.5 652.5 c 128,-1,66
 509 634 509 634 509 605 c 0,50,51
EndSplineSet
EndChar

StartChar: Dcroat
Encoding: 272 272 203
Width: 500
Flags: W
LayerCount: 2
Back
Fore
SplineSet
79 623 m 1,0,-1
 218 623 l 2,1,2
 286 623 286 623 332.5 600 c 128,-1,3
 379 577 379 577 408.5 535.5 c 128,-1,4
 438 494 438 494 452 435.5 c 128,-1,5
 466 377 466 377 466 306 c 0,6,7
 466 261 466 261 456 216.5 c 128,-1,8
 446 172 446 172 427.5 133.5 c 128,-1,9
 409 95 409 95 381.5 64.5 c 128,-1,10
 354 34 354 34 319 18 c 0,11,12
 280 -1 280 -1 206 -1 c 2,13,-1
 79 -1 l 1,14,-1
 79 301 l 1,15,-1
 30 301 l 1,16,-1
 30 359 l 1,17,-1
 79 359 l 1,18,-1
 79 623 l 1,0,-1
143 301 m 1,19,-1
 143 57 l 1,20,-1
 203 57 l 2,21,22
 299 57 299 57 349 122.5 c 128,-1,23
 399 188 399 188 399 306 c 0,24,25
 399 426 399 426 354.5 495 c 128,-1,26
 310 564 310 564 214 564 c 2,27,-1
 143 564 l 1,28,-1
 143 359 l 1,29,-1
 248 359 l 1,30,-1
 248 301 l 1,31,-1
 143 301 l 1,19,-1
EndSplineSet
EndChar

StartChar: dcroat
Encoding: 273 273 204
Width: 500
Flags: W
LayerCount: 2
Back
Fore
SplineSet
151 376 m 0,0,1
 108 337 108 337 108 244 c 0,2,3
 108 158 108 158 143 105.5 c 128,-1,4
 178 53 178 53 238 53 c 0,5,6
 257 53 257 53 272 59 c 128,-1,7
 287 65 287 65 302 75.5 c 128,-1,8
 317 86 317 86 329 101 c 128,-1,9
 341 116 341 116 347 135 c 0,10,11
 358 171 358 171 358 231 c 0,12,13
 358 269 358 269 355 294.5 c 128,-1,14
 352 320 352 320 345.5 338 c 128,-1,15
 339 356 339 356 329 367.5 c 128,-1,16
 319 379 319 379 304 388 c 0,17,18
 286 399 286 399 270.5 404.5 c 128,-1,19
 255 410 255 410 241 410 c 0,20,21
 212 410 212 410 191.5 402 c 128,-1,22
 171 394 171 394 151 376 c 0,0,1
432 544 m 1,23,-1
 432 42 l 2,24,25
 432 18 432 18 437 0 c 1,26,-1
 365 0 l 1,27,28
 361 12 361 12 361 34 c 2,29,-1
 361 73 l 1,30,31
 339 35 339 35 301 12.5 c 128,-1,32
 263 -10 263 -10 224 -10 c 0,33,34
 186 -10 186 -10 152.5 5 c 128,-1,35
 119 20 119 20 93.5 50.5 c 128,-1,36
 68 81 68 81 53 126.5 c 128,-1,37
 38 172 38 172 38 233 c 0,38,39
 38 296 38 296 55 340.5 c 128,-1,40
 72 385 72 385 99.5 413.5 c 128,-1,41
 127 442 127 442 161 455.5 c 128,-1,42
 195 469 195 469 230 469 c 0,43,44
 278 469 278 469 312.5 447.5 c 128,-1,45
 347 426 347 426 364 390 c 1,46,-1
 364 544 l 1,47,-1
 288 544 l 1,48,-1
 288 597 l 1,49,-1
 364 597 l 1,50,-1
 364 665 l 1,51,-1
 441 665 l 1,52,53
 441 659 441 659 436.5 651.5 c 128,-1,54
 432 644 432 644 432 637 c 2,55,-1
 432 597 l 1,56,-1
 476 597 l 1,57,-1
 476 544 l 1,58,-1
 432 544 l 1,23,-1
EndSplineSet
EndChar

StartChar: Eogonek
Encoding: 280 280 205
Width: 500
Flags: W
LayerCount: 2
Back
Fore
SplineSet
59 624 m 1,0,-1
 441 624 l 1,1,-1
 441 562 l 1,2,-1
 125 562 l 1,3,-1
 125 357 l 1,4,-1
 386 357 l 1,5,-1
 386 293 l 1,6,-1
 125 293 l 1,7,-1
 125 62 l 1,8,-1
 438 62 l 1,9,-1
 437 0 l 1,10,11
 353 -75 353 -75 353 -102 c 0,12,13
 353 -114 353 -114 361 -122 c 128,-1,14
 369 -130 369 -130 380 -130 c 0,15,16
 410 -130 410 -130 438 -107 c 1,17,-1
 438 -153 l 1,18,19
 412 -176 412 -176 372 -176 c 256,20,21
 332 -176 332 -176 311.5 -158.5 c 128,-1,22
 291 -141 291 -141 291 -115 c 0,23,24
 291 -64 291 -64 370 0 c 1,25,-1
 59 0 l 1,26,-1
 59 624 l 1,0,-1
EndSplineSet
EndChar

StartChar: eogonek
Encoding: 281 281 206
Width: 500
Flags: W
LayerCount: 2
Back
Fore
SplineSet
259 468 m 0,0,1
 295 468 295 468 329 455 c 128,-1,2
 363 442 363 442 388.5 415.5 c 128,-1,3
 414 389 414 389 429.5 348 c 128,-1,4
 445 307 445 307 445 251 c 0,5,6
 445 243 445 243 444.5 234.5 c 128,-1,7
 444 226 444 226 443 218 c 1,8,-1
 118 218 l 1,9,10
 120 170 120 170 134.5 137.5 c 128,-1,11
 149 105 149 105 171 85 c 128,-1,12
 193 65 193 65 220 56.5 c 128,-1,13
 247 48 247 48 274 48 c 0,14,15
 345 48 345 48 392 99 c 1,16,-1
 432 60 l 1,17,-1
 376 -8 l 2,18,19
 360 -27 360 -27 351.5 -40 c 128,-1,20
 343 -53 343 -53 339 -62 c 128,-1,21
 335 -71 335 -71 334.5 -78 c 128,-1,22
 334 -85 334 -85 334 -92 c 0,23,24
 334 -106 334 -106 343.5 -116 c 128,-1,25
 353 -126 353 -126 372 -126 c 0,26,27
 383 -126 383 -126 395.5 -122 c 128,-1,28
 408 -118 408 -118 424 -108 c 1,29,-1
 423 -157 l 1,30,31
 408 -167 408 -167 392 -171 c 128,-1,32
 376 -175 376 -175 360 -175 c 0,33,34
 323 -175 323 -175 298.5 -155 c 128,-1,35
 274 -135 274 -135 274 -101 c 0,36,37
 274 -54 274 -54 330 -1 c 1,38,39
 295 -10 295 -10 261 -10 c 0,40,41
 215 -10 215 -10 176.5 6 c 128,-1,42
 138 22 138 22 109.5 53 c 128,-1,43
 81 84 81 84 65 128 c 128,-1,44
 49 172 49 172 49 229 c 0,45,46
 49 285 49 285 65 329.5 c 128,-1,47
 81 374 81 374 110 404.5 c 128,-1,48
 139 435 139 435 177 451.5 c 128,-1,49
 215 468 215 468 259 468 c 0,0,1
121 274 m 1,50,-1
 372 274 l 1,51,52
 372 278 372 278 372.5 281.5 c 128,-1,53
 373 285 373 285 373 290 c 0,54,55
 373 315 373 315 363.5 337.5 c 128,-1,56
 354 360 354 360 338 376.5 c 128,-1,57
 322 393 322 393 300.5 403 c 128,-1,58
 279 413 279 413 254 413 c 0,59,60
 207 413 207 413 169 379.5 c 128,-1,61
 131 346 131 346 121 274 c 1,50,-1
EndSplineSet
EndChar

StartChar: dotlessi
Encoding: 305 305 212
Width: 500
Flags: W
LayerCount: 2
Back
Fore
SplineSet
106 457 m 1,0,-1
 289 457 l 1,1,-1
 289 58 l 1,2,-1
 396 58 l 1,3,-1
 396 0 l 1,4,-1
 100 0 l 1,5,-1
 100 58 l 1,6,-1
 217 58 l 1,7,-1
 217 399 l 1,8,-1
 106 399 l 1,9,-1
 106 457 l 1,0,-1
EndSplineSet
EndChar

StartChar: kgreenlandic
Encoding: 312 312 213
Width: 500
Flags: W
LayerCount: 2
Back
Fore
SplineSet
66 457 m 1,0,-1
 148 457 l 2,1,2
 150 455 150 455 150 455 c 2,3,4
 150 452 150 452 145.5 445.5 c 128,-1,5
 141 439 141 439 139 431 c 2,6,-1
 139 247 l 1,7,-1
 368 459 l 1,8,9
 391 454 391 454 421 454 c 2,10,-1
 447 454 l 1,11,-1
 255 273 l 1,12,-1
 479 -1 l 1,13,-1
 386 -4 l 1,14,-1
 199 229 l 1,15,-1
 139 173 l 1,16,-1
 139 -1 l 1,17,-1
 66 -1 l 1,18,-1
 66 457 l 1,0,-1
EndSplineSet
EndChar

StartChar: Lslash
Encoding: 321 321 218
Width: 500
Flags: W
LayerCount: 2
Back
Fore
SplineSet
73 623 m 1,0,-1
 154 623 l 2,1,2
 156 623 156 623 156 621 c 0,3,4
 156 617 156 617 152 608.5 c 128,-1,5
 148 600 148 600 146 589 c 2,6,-1
 146 328 l 1,7,-1
 312 382 l 2,8,9
 320 385 320 385 326.5 387.5 c 128,-1,10
 333 390 333 390 337 392 c 1,11,-1
 337 328 l 1,12,-1
 146 267 l 1,13,-1
 146 60 l 1,14,-1
 446 60 l 1,15,-1
 446 -1 l 1,16,-1
 73 -1 l 1,17,-1
 73 243 l 1,18,-1
 20 226 l 1,19,-1
 20 287 l 1,20,-1
 73 305 l 1,21,-1
 73 623 l 1,0,-1
EndSplineSet
EndChar

StartChar: lslash
Encoding: 322 322 219
Width: 500
Flags: W
LayerCount: 2
Back
Fore
SplineSet
85 665 m 1,0,-1
 287 665 l 1,1,-1
 287 370 l 1,2,-1
 351 393 l 2,3,4
 357 395 357 395 363.5 398.5 c 128,-1,5
 370 402 370 402 378 407 c 1,6,-1
 378 334 l 1,7,-1
 287 303 l 1,8,-1
 287 58 l 1,9,-1
 421 58 l 1,10,-1
 421 0 l 1,11,-1
 79 0 l 1,12,-1
 79 58 l 1,13,-1
 214 58 l 1,14,-1
 214 279 l 1,15,-1
 135 252 l 1,16,-1
 135 318 l 1,17,-1
 214 345 l 1,18,-1
 214 607 l 1,19,-1
 85 607 l 1,20,-1
 85 665 l 1,0,-1
EndSplineSet
EndChar

StartChar: Eng
Encoding: 330 330 224
Width: 500
Flags: W
LayerCount: 2
Back
Fore
SplineSet
300 52 m 0,0,1
 378 52 378 52 378 170 c 2,2,-1
 378 422 l 2,3,4
 378 505 378 505 349 538 c 128,-1,5
 320 571 320 571 274 571 c 0,6,7
 247 571 247 571 220 559.5 c 128,-1,8
 193 548 193 548 171.5 527 c 128,-1,9
 150 506 150 506 137 477 c 128,-1,10
 124 448 124 448 124 413 c 2,11,-1
 124 0 l 1,12,-1
 51 0 l 1,13,-1
 51 623 l 1,14,-1
 124 623 l 1,15,-1
 124 542 l 1,16,17
 151 584 151 584 194 609 c 128,-1,18
 237 634 237 634 285 634 c 0,19,20
 322 634 322 634 352 621.5 c 128,-1,21
 382 609 382 609 403.5 583.5 c 128,-1,22
 425 558 425 558 437 518.5 c 128,-1,23
 449 479 449 479 449 424 c 2,24,-1
 449 175 l 2,25,26
 449 81 449 81 408 35 c 128,-1,27
 367 -11 367 -11 297 -11 c 0,28,29
 251 -11 251 -11 210 14 c 1,30,-1
 245 76 l 2,31,32
 248 74 248 74 251 70 c 0,33,34
 263 52 263 52 300 52 c 0,0,1
EndSplineSet
EndChar

StartChar: eng
Encoding: 331 331 225
Width: 500
Flags: W
LayerCount: 2
Back
Fore
SplineSet
68 0 m 1,0,-1
 68 457 l 1,1,-1
 142 457 l 1,2,-1
 142 376 l 1,3,4
 168 418 168 418 208.5 443 c 128,-1,5
 249 468 249 468 291 468 c 0,6,7
 321 468 321 468 347 457.5 c 128,-1,8
 373 447 373 447 392 424 c 128,-1,9
 411 401 411 401 421.5 365 c 128,-1,10
 432 329 432 329 432 277 c 2,11,-1
 432 56 l 2,12,13
 432 -66 432 -66 383.5 -121 c 128,-1,14
 335 -176 335 -176 262 -176 c 0,15,16
 236 -176 236 -176 211.5 -167.5 c 128,-1,17
 187 -159 187 -159 165 -142 c 1,18,-1
 199 -75 l 1,19,20
 203 -76 203 -76 205 -81.5 c 128,-1,21
 207 -87 207 -87 212.5 -92.5 c 128,-1,22
 218 -98 218 -98 231.5 -103.5 c 128,-1,23
 245 -109 245 -109 264 -109 c 0,24,25
 361 -109 361 -109 361 45 c 2,26,-1
 361 275 l 2,27,28
 361 347 361 347 336.5 376 c 128,-1,29
 312 405 312 405 277 405 c 0,30,31
 254 405 254 405 230 395 c 128,-1,32
 206 385 206 385 185.5 366.5 c 128,-1,33
 165 348 165 348 153.5 322 c 128,-1,34
 142 296 142 296 142 263 c 2,35,-1
 142 0 l 1,36,-1
 68 0 l 1,0,-1
EndSplineSet
EndChar

StartChar: OE
Encoding: 338 338 229
Width: 500
Flags: W
LayerCount: 2
Back
Fore
SplineSet
253 595 m 1,0,-1
 253 624 l 1,1,-1
 484 624 l 1,2,-1
 484 562 l 1,3,-1
 315 562 l 1,4,-1
 315 357 l 1,5,-1
 458 357 l 1,6,-1
 458 293 l 1,7,-1
 315 293 l 1,8,-1
 315 62 l 1,9,-1
 482 62 l 1,10,-1
 482 0 l 1,11,-1
 252 0 l 1,12,-1
 252 31 l 1,13,14
 235 11 235 11 215 2 c 128,-1,15
 195 -7 195 -7 172 -7 c 0,16,17
 97 -7 97 -7 53 70.5 c 128,-1,18
 9 148 9 148 9 312 c 0,19,20
 9 471 9 471 52 551.5 c 128,-1,21
 95 632 95 632 173 632 c 0,22,23
 194 632 194 632 214.5 623.5 c 128,-1,24
 235 615 235 615 253 595 c 1,0,-1
171 574 m 0,25,26
 151 574 151 574 134 561.5 c 128,-1,27
 117 549 117 549 102.5 519 c 128,-1,28
 88 489 88 489 80.5 439 c 128,-1,29
 73 389 73 389 73 313 c 0,30,31
 73 190 73 190 100.5 122 c 128,-1,32
 128 54 128 54 179 54 c 0,33,34
 205 54 205 54 225 75 c 128,-1,35
 245 96 245 96 252 129 c 1,36,-1
 252 485 l 1,37,38
 246 502 246 502 238.5 518 c 128,-1,39
 231 534 231 534 221 546.5 c 128,-1,40
 211 559 211 559 198.5 566.5 c 128,-1,41
 186 574 186 574 171 574 c 0,25,26
EndSplineSet
EndChar

StartChar: oe
Encoding: 339 339 230
Width: 500
Flags: W
LayerCount: 2
Back
Fore
SplineSet
161 466 m 0,0,1
 221 466 221 466 255 420 c 1,2,3
 294 466 294 466 356 466 c 0,4,5
 419 466 419 466 454.5 420 c 128,-1,6
 490 374 490 374 490 283 c 2,7,-1
 490 221 l 1,8,-1
 262 221 l 1,9,10
 263 167 263 167 269.5 133 c 128,-1,11
 276 99 276 99 289.5 81 c 128,-1,12
 303 63 303 63 320.5 55 c 128,-1,13
 338 47 338 47 363 47 c 0,14,15
 424 47 424 47 459 85 c 1,16,-1
 494 42 l 1,17,18
 441 -12 441 -12 372 -12 c 256,19,20
 303 -12 303 -12 253 29 c 1,21,22
 209 -11 209 -11 154 -11 c 0,23,24
 129 -11 129 -11 103 -0.5 c 128,-1,25
 77 10 77 10 55.5 36.5 c 128,-1,26
 34 63 34 63 20 109.5 c 128,-1,27
 6 156 6 156 6 228 c 0,28,29
 6 294 6 294 18.5 339.5 c 128,-1,30
 31 385 31 385 53.5 413 c 128,-1,31
 76 441 76 441 103 453.5 c 128,-1,32
 130 466 130 466 161 466 c 0,0,1
263 278 m 1,33,-1
 431 278 l 1,34,-1
 431 287 l 2,35,36
 431 359 431 359 408 385 c 128,-1,37
 385 411 385 411 343 411 c 0,38,39
 306 411 306 411 284.5 379 c 128,-1,40
 263 347 263 347 263 287 c 2,41,-1
 263 278 l 1,33,-1
161 406 m 0,42,43
 143 406 143 406 126.5 397 c 128,-1,44
 110 388 110 388 96 368 c 128,-1,45
 82 348 82 348 74 316.5 c 128,-1,46
 66 285 66 285 66 239 c 0,47,48
 66 143 66 143 92 96.5 c 128,-1,49
 118 50 118 50 163 50 c 0,50,51
 183 50 183 50 198 60.5 c 128,-1,52
 213 71 213 71 213 89 c 0,53,54
 213 92 213 92 210 112 c 0,55,56
 204 147 204 147 202 179 c 128,-1,57
 200 211 200 211 200 238 c 0,58,59
 200 296 200 296 204.5 325.5 c 128,-1,60
 209 355 209 355 209 362 c 0,61,62
 209 381 209 381 195 393.5 c 128,-1,63
 181 406 181 406 161 406 c 0,42,43
EndSplineSet
EndChar

StartChar: Scedilla
Encoding: 350 350 237
Width: 500
Flags: W
LayerCount: 2
Back
Fore
SplineSet
295 -109 m 0,0,1
 295 -85 295 -85 248 -85 c 2,2,-1
 218 -85 l 1,3,-1
 228 -10 l 1,4,5
 119 -3 119 -3 52 70 c 1,6,-1
 93 142 l 1,7,8
 98 139 98 139 98 132 c 128,-1,9
 98 125 98 125 101 121 c 0,10,11
 124 92 124 92 163 72.5 c 128,-1,12
 202 53 202 53 257 53 c 0,13,14
 285 53 285 53 308.5 62.5 c 128,-1,15
 332 72 332 72 349 87.5 c 128,-1,16
 366 103 366 103 376 124.5 c 128,-1,17
 386 146 386 146 386 170 c 0,18,19
 386 191 386 191 380.5 205.5 c 128,-1,20
 375 220 375 220 359 233 c 128,-1,21
 343 246 343 246 315.5 260 c 128,-1,22
 288 274 288 274 243 292 c 0,23,24
 194 311 194 311 161.5 330.5 c 128,-1,25
 129 350 129 350 109 370 c 128,-1,26
 89 390 89 390 80.5 413 c 128,-1,27
 72 436 72 436 72 463 c 0,28,29
 72 497 72 497 86.5 527 c 128,-1,30
 101 557 101 557 126.5 579.5 c 128,-1,31
 152 602 152 602 187 614.5 c 128,-1,32
 222 627 222 627 262 627 c 0,33,34
 313 627 313 627 358 606.5 c 128,-1,35
 403 586 403 586 435 549 c 1,36,-1
 391 489 l 1,37,38
 386 491 386 491 385.5 497.5 c 128,-1,39
 385 504 385 504 383 507 c 0,40,41
 364 535 364 535 331.5 552 c 128,-1,42
 299 569 299 569 251 569 c 0,43,44
 205 569 205 569 174.5 542 c 128,-1,45
 144 515 144 515 144 478 c 0,46,47
 144 456 144 456 151 439.5 c 128,-1,48
 158 423 158 423 174 408.5 c 128,-1,49
 190 394 190 394 220 378.5 c 128,-1,50
 250 363 250 363 298 344 c 0,51,52
 344 325 344 325 374 306.5 c 128,-1,53
 404 288 404 288 422 267 c 128,-1,54
 440 246 440 246 447.5 222.5 c 128,-1,55
 455 199 455 199 455 170 c 0,56,57
 455 139 455 139 444.5 108.5 c 128,-1,58
 434 78 434 78 411.5 53 c 128,-1,59
 389 28 389 28 354.5 11 c 128,-1,60
 320 -6 320 -6 272 -10 c 1,61,-1
 268 -47 l 1,62,-1
 284 -48 l 2,63,64
 352 -53 352 -53 352 -103 c 0,65,66
 352 -131 352 -131 323.5 -154 c 128,-1,67
 295 -177 295 -177 236 -177 c 256,68,69
 177 -177 177 -177 125 -140 c 1,70,-1
 150 -98 l 1,71,72
 193 -134 193 -134 249 -134 c 0,73,74
 275 -134 275 -134 285 -126.5 c 128,-1,75
 295 -119 295 -119 295 -109 c 0,0,1
EndSplineSet
EndChar

StartChar: scedilla
Encoding: 351 351 238
Width: 500
Flags: W
LayerCount: 2
Back
Fore
SplineSet
301 -109 m 0,0,1
 301 -85 301 -85 254 -85 c 2,2,-1
 224 -85 l 1,3,-1
 234 -10 l 1,4,5
 129 -6 129 -6 57 62 c 1,6,-1
 98 134 l 1,7,8
 101 131 101 131 102 124.5 c 128,-1,9
 103 118 103 118 109 109 c 128,-1,10
 115 100 115 100 131 88.5 c 128,-1,11
 147 77 147 77 180 63 c 0,12,13
 195 56 195 56 214 53 c 128,-1,14
 233 50 233 50 252 50 c 0,15,16
 272 50 272 50 292.5 55 c 128,-1,17
 313 60 313 60 329.5 69.5 c 128,-1,18
 346 79 346 79 356 92.5 c 128,-1,19
 366 106 366 106 366 123 c 0,20,21
 366 149 366 149 342 167 c 128,-1,22
 318 185 318 185 254 204 c 0,23,24
 210 217 210 217 196 222 c 0,25,26
 160 236 160 236 144 246.5 c 128,-1,27
 128 257 128 257 115 271.5 c 128,-1,28
 102 286 102 286 94 304.5 c 128,-1,29
 86 323 86 323 86 345 c 0,30,31
 86 369 86 369 99 391 c 128,-1,32
 112 413 112 413 135.5 430 c 128,-1,33
 159 447 159 447 191.5 457.5 c 128,-1,34
 224 468 224 468 262 468 c 0,35,36
 367 468 367 468 432 396 c 1,37,-1
 390 333 l 1,38,39
 385 334 385 334 385 341 c 128,-1,40
 385 348 385 348 383 351 c 0,41,42
 365 374 365 374 332 393.5 c 128,-1,43
 299 413 299 413 257 413 c 0,44,45
 238 413 238 413 220.5 408.5 c 128,-1,46
 203 404 203 404 189.5 396 c 128,-1,47
 176 388 176 388 168 375.5 c 128,-1,48
 160 363 160 363 160 347 c 0,49,50
 160 335 160 335 166 325.5 c 128,-1,51
 172 316 172 316 185 307 c 128,-1,52
 198 298 198 298 221.5 289 c 128,-1,53
 245 280 245 280 283 269 c 0,54,55
 369 246 369 246 404.5 214 c 128,-1,56
 440 182 440 182 440 132 c 0,57,58
 440 107 440 107 429 83 c 128,-1,59
 418 59 418 59 397 40 c 128,-1,60
 376 21 376 21 346 8 c 128,-1,61
 316 -5 316 -5 278 -9 c 1,62,-1
 274 -47 l 1,63,-1
 290 -48 l 2,64,65
 358 -53 358 -53 358 -103 c 0,66,67
 358 -131 358 -131 329.5 -154 c 128,-1,68
 301 -177 301 -177 242 -177 c 256,69,70
 183 -177 183 -177 131 -140 c 1,71,-1
 156 -98 l 1,72,73
 199 -134 199 -134 256 -134 c 0,74,75
 281 -134 281 -134 291 -126.5 c 128,-1,76
 301 -119 301 -119 301 -109 c 0,0,1
EndSplineSet
EndChar

StartChar: Tcedilla
Encoding: 354 354 241
Width: 500
Flags: W
LayerCount: 2
Back
Fore
SplineSet
289 -109 m 0,0,1
 289 -85 289 -85 242 -85 c 2,2,-1
 212 -85 l 1,3,-1
 223 -1 l 1,4,-1
 208 -1 l 1,5,-1
 208 561 l 1,6,-1
 31 561 l 1,7,-1
 31 624 l 1,8,-1
 463 624 l 1,9,-1
 463 561 l 1,10,-1
 279 561 l 1,11,-1
 279 -1 l 1,12,-1
 267 -1 l 1,13,-1
 261 -47 l 1,14,-1
 278 -48 l 2,15,16
 346 -53 346 -53 346 -103 c 0,17,18
 346 -131 346 -131 317.5 -154 c 128,-1,19
 289 -177 289 -177 230 -177 c 256,20,21
 171 -177 171 -177 119 -140 c 1,22,-1
 144 -98 l 1,23,24
 187 -134 187 -134 243 -134 c 0,25,26
 269 -134 269 -134 279 -126.5 c 128,-1,27
 289 -119 289 -119 289 -109 c 0,0,1
EndSplineSet
EndChar

StartChar: tcedilla
Encoding: 355 355 242
Width: 500
Flags: W
LayerCount: 2
Back
Fore
SplineSet
344 -109 m 0,0,1
 344 -85 344 -85 297 -85 c 2,2,-1
 268 -85 l 1,3,-1
 278 -7 l 1,4,5
 246 -3 246 -3 225 8.5 c 128,-1,6
 204 20 204 20 191 43.5 c 128,-1,7
 178 67 178 67 172.5 103 c 128,-1,8
 167 139 167 139 167 193 c 0,9,10
 167 235 167 235 169.5 286.5 c 128,-1,11
 172 338 172 338 177 398 c 1,12,-1
 70 398 l 1,13,-1
 70 457 l 1,14,-1
 180 457 l 1,15,-1
 188 579 l 1,16,-1
 267 592 l 1,17,18
 267 583 267 583 264.5 576 c 128,-1,19
 262 569 262 569 261 565 c 2,20,-1
 249 457 l 1,21,-1
 399 457 l 1,22,-1
 399 398 l 1,23,-1
 249 398 l 1,24,25
 240 309 240 309 240 231 c 0,26,27
 240 183 240 183 242 150 c 128,-1,28
 244 117 244 117 252.5 96.5 c 128,-1,29
 261 76 261 76 277 67 c 128,-1,30
 293 58 293 58 320 58 c 0,31,32
 366 58 366 58 422 99 c 1,33,-1
 444 42 l 1,34,35
 386 1 386 1 321 -7 c 1,36,-1
 317 -47 l 1,37,-1
 333 -48 l 2,38,39
 401 -53 401 -53 401 -103 c 0,40,41
 401 -131 401 -131 372.5 -154 c 128,-1,42
 344 -177 344 -177 285 -177 c 256,43,44
 226 -177 226 -177 174 -140 c 1,45,-1
 199 -98 l 1,46,47
 242 -134 242 -134 299 -134 c 0,48,49
 324 -134 324 -134 334 -126.5 c 128,-1,50
 344 -119 344 -119 344 -109 c 0,0,1
EndSplineSet
EndChar

StartChar: florin
Encoding: 402 402 256
Width: 500
Flags: W
LayerCount: 2
Back
Fore
SplineSet
480 620 m 1,0,-1
 447 554 l 1,1,2
 439 554 439 554 438 564 c 0,3,4
 434 587 434 587 413 601.5 c 128,-1,5
 392 616 392 616 369 616 c 0,6,7
 350 616 350 616 335.5 609.5 c 128,-1,8
 321 603 321 603 310 586.5 c 128,-1,9
 299 570 299 570 291.5 540.5 c 128,-1,10
 284 511 284 511 281 465 c 2,11,-1
 275 383 l 1,12,-1
 398 383 l 1,13,-1
 398 326 l 1,14,-1
 270 326 l 1,15,-1
 246 24 l 2,16,17
 241 -31 241 -31 228 -69 c 128,-1,18
 215 -107 215 -107 196 -130.5 c 128,-1,19
 177 -154 177 -154 152.5 -164.5 c 128,-1,20
 128 -175 128 -175 100 -175 c 0,21,22
 51 -175 51 -175 18 -140 c 1,23,-1
 59 -76 l 2,24,25
 62 -77 62 -77 65.5 -82 c 128,-1,26
 69 -87 69 -87 73.5 -93 c 128,-1,27
 78 -99 78 -99 87 -103.5 c 128,-1,28
 96 -108 96 -108 109 -108 c 0,29,30
 137 -108 137 -108 155.5 -74 c 128,-1,31
 174 -40 174 -40 179 27 c 2,32,-1
 201 326 l 1,33,-1
 80 326 l 1,34,-1
 80 383 l 1,35,-1
 205 383 l 1,36,-1
 212 475 l 2,37,38
 220 578 220 578 261 625.5 c 128,-1,39
 302 673 302 673 368 673 c 0,40,41
 436 673 436 673 480 620 c 1,0,-1
EndSplineSet
EndChar

StartChar: dotlessj
Encoding: 567 567 257
Width: 500
Flags: W
LayerCount: 2
Back
Fore
SplineSet
126 457 m 1,0,-1
 369 457 l 1,1,-1
 369 22 l 2,2,3
 369 -30 369 -30 355 -66.5 c 128,-1,4
 341 -103 341 -103 316.5 -126 c 128,-1,5
 292 -149 292 -149 259 -160.5 c 128,-1,6
 226 -172 226 -172 188 -174 c 0,7,8
 100 -174 100 -174 48 -110 c 1,9,-1
 95 -48 l 1,10,11
 100 -53 100 -53 100.5 -58 c 128,-1,12
 101 -63 101 -63 104 -69 c 128,-1,13
 107 -75 107 -75 116 -82.5 c 128,-1,14
 125 -90 125 -90 146 -101 c 0,15,16
 168 -112 168 -112 193 -112 c 0,17,18
 238 -112 238 -112 267 -81.5 c 128,-1,19
 296 -51 296 -51 296 18 c 2,20,-1
 296 398 l 1,21,-1
 126 398 l 1,22,-1
 126 457 l 1,0,-1
EndSplineSet
EndChar

StartChar: circumflex
Encoding: 710 710 258
Width: 500
Flags: W
LayerCount: 2
Back
Fore
SplineSet
134 545 m 1,0,-1
 245 685 l 1,1,-1
 267 685 l 1,2,-1
 377 544 l 1,3,-1
 331 509 l 1,4,-1
 253 612 l 1,5,-1
 172 510 l 1,6,-1
 134 545 l 1,0,-1
EndSplineSet
EndChar

StartChar: caron
Encoding: 711 711 259
Width: 500
Flags: W
LayerCount: 2
Back
Fore
SplineSet
377 658 m 1,0,-1
 266 518 l 1,1,-1
 244 518 l 1,2,-1
 134 659 l 1,3,-1
 180 694 l 1,4,-1
 258 591 l 1,5,-1
 339 693 l 1,6,-1
 377 658 l 1,0,-1
EndSplineSet
EndChar

StartChar: uni02C9
Encoding: 713 713 260
Width: 500
Flags: W
LayerCount: 2
Back
Fore
SplineSet
123 621 m 1,0,-1
 377 621 l 1,1,-1
 377 565 l 1,2,-1
 123 565 l 1,3,-1
 123 621 l 1,0,-1
EndSplineSet
EndChar

StartChar: uni02CB
Encoding: 715 715 261
Width: 500
Flags: W
LayerCount: 2
Back
Fore
SplineSet
243 699 m 1,0,-1
 331 552 l 1,1,-1
 281 522 l 1,2,-1
 180 657 l 1,3,-1
 243 699 l 1,0,-1
EndSplineSet
EndChar

StartChar: breve
Encoding: 728 728 262
Width: 500
Flags: W
LayerCount: 2
Back
Fore
SplineSet
137 646 m 1,0,1
 156 616 156 616 185.5 596 c 128,-1,2
 215 576 215 576 250 576 c 0,3,4
 314 576 314 576 369 646 c 1,5,-1
 397 604 l 1,6,7
 370 568 370 568 331.5 546 c 128,-1,8
 293 524 293 524 251 524 c 0,9,10
 166 524 166 524 101 601 c 1,11,-1
 137 646 l 1,0,1
EndSplineSet
EndChar

StartChar: dotaccent
Encoding: 729 729 263
Width: 500
Flags: W
LayerCount: 2
Back
Fore
SplineSet
218 641 m 256,0,1
 233 656 233 656 254 656 c 256,2,3
 275 656 275 656 290.5 640.5 c 128,-1,4
 306 625 306 625 306 604 c 256,5,6
 306 583 306 583 290.5 568 c 128,-1,7
 275 553 275 553 254 553 c 256,8,9
 233 553 233 553 218 568 c 128,-1,10
 203 583 203 583 203 604 c 0,11,12
 203 626 203 626 218 641 c 256,0,1
EndSplineSet
EndChar

StartChar: ring
Encoding: 730 730 264
Width: 500
Flags: W
LayerCount: 2
Back
Fore
SplineSet
321 667 m 0,0,1
 348 640 348 640 348 605 c 0,2,3
 348 587 348 587 340.5 571 c 128,-1,4
 333 555 333 555 320.5 543 c 128,-1,5
 308 531 308 531 291 524 c 128,-1,6
 274 517 274 517 256 517 c 256,7,8
 238 517 238 517 221.5 524 c 128,-1,9
 205 531 205 531 192.5 543 c 128,-1,10
 180 555 180 555 172.5 571 c 128,-1,11
 165 587 165 587 165 605 c 256,12,13
 165 623 165 623 172.5 639 c 128,-1,14
 180 655 180 655 192.5 667 c 128,-1,15
 205 679 205 679 221.5 686 c 128,-1,16
 238 693 238 693 256 693 c 0,17,18
 293 693 293 693 321 667 c 0,0,1
257 652 m 256,19,20
 240 652 240 652 228 638.5 c 128,-1,21
 216 625 216 625 216 606 c 256,22,23
 216 587 216 587 228 573.5 c 128,-1,24
 240 560 240 560 257 560 c 256,25,26
 274 560 274 560 286.5 573.5 c 128,-1,27
 299 587 299 587 299 606 c 256,28,29
 299 625 299 625 286.5 638.5 c 128,-1,30
 274 652 274 652 257 652 c 256,19,20
EndSplineSet
EndChar

StartChar: ogonek
Encoding: 731 731 265
Width: 500
Flags: W
LayerCount: 2
Back
Fore
SplineSet
356 0 m 1,0,-1
 422 0 l 1,1,2
 338 -75 338 -75 338 -102 c 0,3,4
 338 -114 338 -114 346 -122 c 128,-1,5
 354 -130 354 -130 366 -130 c 0,6,7
 395 -130 395 -130 424 -107 c 1,8,-1
 424 -153 l 1,9,10
 396 -176 396 -176 357 -176 c 0,11,12
 317 -176 317 -176 296.5 -158.5 c 128,-1,13
 276 -141 276 -141 276 -115 c 0,14,15
 276 -65 276 -65 356 0 c 1,0,-1
EndSplineSet
EndChar

StartChar: tilde
Encoding: 732 732 266
Width: 500
Flags: W
LayerCount: 2
Back
Fore
SplineSet
135 557 m 1,0,-1
 91 589 l 1,1,2
 145 676 145 676 204 676 c 0,3,4
 222 676 222 676 242.5 664.5 c 128,-1,5
 263 653 263 653 279 638.5 c 128,-1,6
 295 624 295 624 308.5 612.5 c 128,-1,7
 322 601 322 601 329 601 c 0,8,9
 341 601 341 601 349.5 605 c 128,-1,10
 358 609 358 609 364.5 616.5 c 128,-1,11
 371 624 371 624 377 633.5 c 128,-1,12
 383 643 383 643 392 654 c 1,13,-1
 429 614 l 1,14,15
 399 578 399 578 377.5 560.5 c 128,-1,16
 356 543 356 543 333 543 c 256,17,18
 310 543 310 543 291.5 555 c 128,-1,19
 273 567 273 567 259 581 c 128,-1,20
 245 595 245 595 231 607 c 128,-1,21
 217 619 217 619 205 619 c 0,22,23
 183 619 183 619 170 605.5 c 128,-1,24
 157 592 157 592 135 557 c 1,0,-1
EndSplineSet
EndChar

StartChar: hungarumlaut
Encoding: 733 733 267
Width: 500
Flags: W
LayerCount: 2
Back
Fore
SplineSet
214 699 m 1,0,-1
 277 657 l 1,1,-1
 176 522 l 1,2,-1
 126 552 l 1,3,-1
 214 699 l 1,0,-1
369 699 m 1,4,-1
 432 657 l 1,5,-1
 331 522 l 1,6,-1
 281 552 l 1,7,-1
 369 699 l 1,4,-1
EndSplineSet
EndChar

StartChar: quoteleft
Encoding: 8216 8216 268
Width: 500
Flags: W
LayerCount: 2
Back
Fore
SplineSet
182 450 m 0,0,1
 182 531 182 531 288 638 c 1,2,-1
 323 607 l 1,3,4
 295 582 295 582 276.5 551.5 c 128,-1,5
 258 521 258 521 258 502 c 0,6,7
 258 492 258 492 266 483.5 c 128,-1,8
 274 475 274 475 283.5 467 c 128,-1,9
 293 459 293 459 301 448.5 c 128,-1,10
 309 438 309 438 309 425 c 0,11,12
 309 401 309 401 292.5 384 c 128,-1,13
 276 367 276 367 250 367 c 256,14,15
 224 367 224 367 203 390 c 128,-1,16
 182 413 182 413 182 450 c 0,0,1
EndSplineSet
EndChar

StartChar: quoteright
Encoding: 8217 8217 269
Width: 500
Flags: W
LayerCount: 2
Back
Fore
SplineSet
306 555 m 0,0,1
 306 476 306 476 199 367 c 1,2,-1
 165 397 l 1,3,4
 193 423 193 423 211.5 453 c 128,-1,5
 230 483 230 483 230 502 c 0,6,7
 230 512 230 512 222 521 c 128,-1,8
 214 530 214 530 204 538 c 128,-1,9
 194 546 194 546 186.5 556 c 128,-1,10
 179 566 179 566 179 579 c 0,11,12
 179 604 179 604 195.5 621 c 128,-1,13
 212 638 212 638 238 638 c 256,14,15
 264 638 264 638 285 615 c 128,-1,16
 306 592 306 592 306 555 c 0,0,1
EndSplineSet
EndChar

StartChar: quotesinglbase
Encoding: 8218 8218 270
Width: 500
Flags: W
LayerCount: 2
Back
Fore
SplineSet
306 20 m 0,0,1
 306 -59 306 -59 199 -168 c 1,2,-1
 165 -138 l 1,3,4
 193 -112 193 -112 211.5 -82 c 128,-1,5
 230 -52 230 -52 230 -33 c 0,6,7
 230 -23 230 -23 222 -14.5 c 128,-1,8
 214 -6 214 -6 204.5 2 c 128,-1,9
 195 10 195 10 187 20.5 c 128,-1,10
 179 31 179 31 179 44 c 0,11,12
 179 69 179 69 195.5 86 c 128,-1,13
 212 103 212 103 238 103 c 256,14,15
 264 103 264 103 285 80 c 128,-1,16
 306 57 306 57 306 20 c 0,0,1
EndSplineSet
EndChar

StartChar: quotedblleft
Encoding: 8220 8220 271
Width: 500
Flags: W
LayerCount: 2
Back
Fore
SplineSet
286 450 m 0,0,1
 286 531 286 531 392 638 c 1,2,-1
 426 607 l 1,3,4
 398 582 398 582 379.5 551.5 c 128,-1,5
 361 521 361 521 361 502 c 0,6,7
 361 492 361 492 369 484 c 128,-1,8
 377 476 377 476 387.5 467.5 c 128,-1,9
 398 459 398 459 405.5 448.5 c 128,-1,10
 413 438 413 438 413 425 c 0,11,12
 413 401 413 401 396 384 c 128,-1,13
 379 367 379 367 353 367 c 256,14,15
 327 367 327 367 306.5 390 c 128,-1,16
 286 413 286 413 286 450 c 0,0,1
79 450 m 0,17,18
 79 531 79 531 185 638 c 1,19,-1
 219 607 l 1,20,21
 191 582 191 582 172.5 551.5 c 128,-1,22
 154 521 154 521 154 502 c 0,23,24
 154 492 154 492 162 484 c 128,-1,25
 170 476 170 476 180.5 467.5 c 128,-1,26
 191 459 191 459 198.5 448.5 c 128,-1,27
 206 438 206 438 206 425 c 0,28,29
 206 401 206 401 189 384 c 128,-1,30
 172 367 172 367 146 367 c 256,31,32
 120 367 120 367 99.5 390 c 128,-1,33
 79 413 79 413 79 450 c 0,17,18
EndSplineSet
EndChar

StartChar: quotedblright
Encoding: 8221 8221 272
Width: 500
Flags: W
LayerCount: 2
Back
Fore
SplineSet
202 555 m 0,0,1
 202 474 202 474 96 367 c 1,2,-1
 61 397 l 1,3,4
 90 423 90 423 108 453 c 128,-1,5
 126 483 126 483 126 502 c 0,6,7
 126 512 126 512 117.5 521 c 128,-1,8
 109 530 109 530 100 538.5 c 128,-1,9
 91 547 91 547 83 556.5 c 128,-1,10
 75 566 75 566 75 579 c 0,11,12
 75 604 75 604 91.5 621 c 128,-1,13
 108 638 108 638 134 638 c 0,14,15
 161 638 161 638 181.5 615 c 128,-1,16
 202 592 202 592 202 555 c 0,0,1
409 555 m 0,17,18
 409 474 409 474 303 367 c 1,19,-1
 268 397 l 1,20,21
 297 423 297 423 315 453 c 128,-1,22
 333 483 333 483 333 502 c 0,23,24
 333 512 333 512 325.5 521 c 128,-1,25
 318 530 318 530 308 538.5 c 128,-1,26
 298 547 298 547 290 556.5 c 128,-1,27
 282 566 282 566 282 579 c 0,28,29
 282 604 282 604 298.5 621 c 128,-1,30
 315 638 315 638 341 638 c 0,31,32
 368 638 368 638 388.5 615 c 128,-1,33
 409 592 409 592 409 555 c 0,17,18
EndSplineSet
EndChar

StartChar: quotedblbase
Encoding: 8222 8222 273
Width: 500
Flags: W
LayerCount: 2
Back
Fore
SplineSet
409 20 m 0,0,1
 409 -61 409 -61 303 -168 c 1,2,-1
 268 -138 l 1,3,4
 297 -112 297 -112 315 -82 c 128,-1,5
 333 -52 333 -52 333 -33 c 0,6,7
 333 -23 333 -23 325 -14.5 c 128,-1,8
 317 -6 317 -6 307.5 2 c 128,-1,9
 298 10 298 10 290 20.5 c 128,-1,10
 282 31 282 31 282 44 c 0,11,12
 282 69 282 69 298.5 86 c 128,-1,13
 315 103 315 103 341 103 c 0,14,15
 368 103 368 103 388.5 80 c 128,-1,16
 409 57 409 57 409 20 c 0,0,1
202 20 m 0,17,18
 202 -61 202 -61 96 -168 c 1,19,-1
 61 -138 l 1,20,21
 90 -112 90 -112 108 -82 c 128,-1,22
 126 -52 126 -52 126 -33 c 0,23,24
 126 -23 126 -23 118 -14.5 c 128,-1,25
 110 -6 110 -6 100.5 3 c 128,-1,26
 91 12 91 12 83 21.5 c 128,-1,27
 75 31 75 31 75 44 c 0,28,29
 75 69 75 69 91.5 86 c 128,-1,30
 108 103 108 103 134 103 c 0,31,32
 161 103 161 103 181.5 80 c 128,-1,33
 202 57 202 57 202 20 c 0,17,18
EndSplineSet
EndChar

StartChar: dagger
Encoding: 8224 8224 274
Width: 500
Flags: W
LayerCount: 2
Back
Fore
SplineSet
217 652 m 1,0,-1
 284 652 l 1,1,-1
 284 457 l 1,2,-1
 450 457 l 1,3,-1
 450 397 l 1,4,-1
 284 397 l 1,5,-1
 284 -151 l 1,6,-1
 217 -151 l 1,7,-1
 217 397 l 1,8,-1
 49 397 l 1,9,-1
 49 457 l 1,10,-1
 217 457 l 1,11,-1
 217 652 l 1,0,-1
EndSplineSet
EndChar

StartChar: daggerdbl
Encoding: 8225 8225 275
Width: 500
Flags: W
LayerCount: 2
Back
Fore
SplineSet
217 652 m 1,0,-1
 284 652 l 1,1,-1
 284 457 l 1,2,-1
 450 457 l 1,3,-1
 450 397 l 1,4,-1
 284 397 l 1,5,-1
 284 121 l 1,6,-1
 450 121 l 1,7,-1
 450 61 l 1,8,-1
 284 61 l 1,9,-1
 284 -151 l 1,10,-1
 217 -151 l 1,11,-1
 217 61 l 1,12,-1
 49 61 l 1,13,-1
 49 121 l 1,14,-1
 217 121 l 1,15,-1
 217 397 l 1,16,-1
 49 397 l 1,17,-1
 49 457 l 1,18,-1
 217 457 l 1,19,-1
 217 652 l 1,0,-1
EndSplineSet
EndChar

StartChar: bullet
Encoding: 8226 8226 276
Width: 500
Flags: W
LayerCount: 2
Back
Fore
SplineSet
316 355 m 0,0,1
 341 330 341 330 341 296 c 256,2,3
 341 262 341 262 316 237.5 c 128,-1,4
 291 213 291 213 256 213 c 256,5,6
 221 213 221 213 196 237.5 c 128,-1,7
 171 262 171 262 171 296 c 0,8,9
 171 331 171 331 196.5 355.5 c 128,-1,10
 222 380 222 380 256 380 c 0,11,12
 289 380 289 380 316 355 c 0,0,1
EndSplineSet
EndChar

StartChar: ellipsis
Encoding: 8230 8230 277
Width: 500
Flags: W
LayerCount: 2
Back
Fore
SplineSet
453 87 m 0,0,1
 470 68 470 68 470 46 c 0,2,3
 470 23 470 23 453 6 c 128,-1,4
 436 -11 436 -11 411 -11 c 256,5,6
 386 -11 386 -11 369 5.5 c 128,-1,7
 352 22 352 22 352 46 c 256,8,9
 352 70 352 70 370 87 c 128,-1,10
 388 104 388 104 411 104 c 256,11,12
 434 104 434 104 453 87 c 0,0,1
108 87 m 0,13,14
 125 68 125 68 125 46 c 0,15,16
 125 23 125 23 108 6 c 128,-1,17
 91 -11 91 -11 66 -11 c 0,18,19
 40 -11 40 -11 23.5 6 c 128,-1,20
 7 23 7 23 7 46 c 256,21,22
 7 69 7 69 24.5 86.5 c 128,-1,23
 42 104 42 104 66 104 c 0,24,25
 89 104 89 104 108 87 c 0,13,14
280 87 m 0,26,27
 298 69 298 69 298 46 c 256,28,29
 298 23 298 23 280.5 6 c 128,-1,30
 263 -11 263 -11 238 -11 c 256,31,32
 213 -11 213 -11 196 5.5 c 128,-1,33
 179 22 179 22 179 46 c 256,34,35
 179 70 179 70 197 87 c 128,-1,36
 215 104 215 104 238 104 c 256,37,38
 261 104 261 104 280 87 c 0,26,27
EndSplineSet
EndChar

StartChar: guilsinglleft
Encoding: 8249 8249 278
Width: 500
Flags: W
LayerCount: 2
Back
Fore
SplineSet
145 253 m 1,0,-1
 297 400 l 1,1,-1
 336 359 l 1,2,-1
 215 241 l 1,3,-1
 343 101 l 1,4,-1
 303 61 l 1,5,-1
 145 230 l 1,6,-1
 145 253 l 1,0,-1
EndSplineSet
EndChar

StartChar: guilsinglright
Encoding: 8250 8250 279
Width: 500
Flags: W
LayerCount: 2
Back
Fore
SplineSet
343 253 m 1,0,-1
 343 230 l 1,1,-1
 185 61 l 1,2,-1
 145 101 l 1,3,-1
 273 241 l 1,4,-1
 152 359 l 1,5,-1
 191 400 l 1,6,-1
 343 253 l 1,0,-1
EndSplineSet
EndChar

StartChar: fraction
Encoding: 8260 8260 280
Width: 500
Flags: W
LayerCount: 2
Back
Fore
SplineSet
76 -16 m 1,0,-1
 389 665 l 1,1,-1
 437 638 l 1,2,-1
 123 -42 l 1,3,-1
 76 -16 l 1,0,-1
EndSplineSet
EndChar

StartChar: uni2074
Encoding: 8308 8308 281
Width: 500
Flags: W
LayerCount: 2
Back
Fore
SplineSet
302 641 m 1,0,-1
 341 641 l 1,1,-1
 341 396 l 1,2,-1
 404 396 l 1,3,-1
 404 349 l 1,4,-1
 341 349 l 1,5,-1
 341 252 l 1,6,-1
 284 252 l 1,7,-1
 284 350 l 1,8,-1
 102 350 l 1,9,-1
 102 385 l 1,10,-1
 302 641 l 1,0,-1
285 544 m 1,11,-1
 167 396 l 1,12,-1
 285 396 l 1,13,-1
 285 544 l 1,11,-1
EndSplineSet
EndChar

StartChar: Euro
Encoding: 8364 8364 282
Width: 500
Flags: W
LayerCount: 2
Back
Fore
SplineSet
464 574 m 1,0,-1
 439 506 l 2,1,2
 436 508 436 508 432.5 518.5 c 128,-1,3
 429 529 429 529 416 540 c 128,-1,4
 403 551 403 551 381.5 561 c 128,-1,5
 360 571 360 571 325 571 c 0,6,7
 269 571 269 571 222.5 533 c 128,-1,8
 176 495 176 495 159 414 c 1,9,-1
 406 414 l 1,10,-1
 384 356 l 1,11,-1
 150 356 l 1,12,13
 148 339 148 339 148 325 c 128,-1,14
 148 311 148 311 148 300 c 2,15,-1
 148 276 l 1,16,-1
 354 276 l 1,17,-1
 331 218 l 1,18,-1
 154 218 l 1,19,20
 168 135 168 135 215 92 c 128,-1,21
 262 49 262 49 327 49 c 0,22,23
 388 49 388 49 434 90 c 1,24,-1
 463 40 l 1,25,26
 404 -11 404 -11 323 -11 c 0,27,28
 279 -11 279 -11 240 3.5 c 128,-1,29
 201 18 201 18 170.5 47 c 128,-1,30
 140 76 140 76 119 118.5 c 128,-1,31
 98 161 98 161 91 218 c 1,32,-1
 33 218 l 1,33,-1
 46 276 l 1,34,-1
 86 276 l 1,35,36
 86 281 86 281 85.5 286.5 c 128,-1,37
 85 292 85 292 85 298 c 0,38,39
 85 327 85 327 88 356 c 1,40,-1
 33 356 l 1,41,-1
 46 414 l 1,42,-1
 97 414 l 1,43,44
 109 472 109 472 133.5 513 c 128,-1,45
 158 554 158 554 189 579.5 c 128,-1,46
 220 605 220 605 256.5 616.5 c 128,-1,47
 293 628 293 628 329 628 c 0,48,49
 411 628 411 628 464 574 c 1,0,-1
EndSplineSet
EndChar

StartChar: trademark
Encoding: 8482 8482 283
Width: 500
Flags: W
LayerCount: 2
Back
Fore
SplineSet
239 635 m 1,0,-1
 239 595 l 1,1,-1
 149 595 l 1,2,-1
 149 320 l 1,3,-1
 104 320 l 1,4,-1
 104 595 l 1,5,-1
 18 595 l 1,6,-1
 18 635 l 1,7,-1
 239 635 l 1,0,-1
303 635 m 1,8,-1
 375 490 l 1,9,-1
 450 635 l 1,10,-1
 483 635 l 1,11,-1
 483 320 l 1,12,-1
 441 320 l 1,13,-1
 441 535 l 1,14,-1
 381 427 l 1,15,-1
 365 428 l 1,16,-1
 310 535 l 1,17,-1
 310 320 l 1,18,-1
 268 320 l 1,19,-1
 268 635 l 1,20,-1
 303 635 l 1,8,-1
EndSplineSet
EndChar

StartChar: uparrow
Encoding: 8593 8593 284
Width: 500
Flags: W
LayerCount: 2
Back
Fore
SplineSet
59 404 m 1,0,-1
 246 640 l 1,1,-1
 268 640 l 1,2,-1
 441 402 l 1,3,-1
 391 369 l 1,4,-1
 285 512 l 1,5,-1
 285 -34 l 1,6,-1
 218 -34 l 1,7,-1
 218 513 l 1,8,-1
 102 369 l 1,9,-1
 59 404 l 1,0,-1
EndSplineSet
EndChar

StartChar: downarrow
Encoding: 8595 8595 285
Width: 500
Flags: W
LayerCount: 2
Back
Fore
SplineSet
441 203 m 1,0,-1
 254 -34 l 1,1,-1
 232 -34 l 1,2,-1
 59 205 l 1,3,-1
 109 238 l 1,4,-1
 215 94 l 1,5,-1
 215 640 l 1,6,-1
 281 640 l 1,7,-1
 281 94 l 1,8,-1
 398 238 l 1,9,-1
 441 203 l 1,0,-1
EndSplineSet
EndChar

StartChar: minus
Encoding: 8722 8722 286
Width: 500
Flags: W
LayerCount: 2
Back
Fore
SplineSet
45 343 m 1,0,-1
 456 343 l 1,1,-1
 456 282 l 1,2,-1
 45 282 l 1,3,-1
 45 343 l 1,0,-1
EndSplineSet
EndChar

StartChar: visiblespace
Encoding: 9251 9251 287
Width: 500
Flags: W
LayerCount: 2
Back
Fore
SplineSet
48 70 m 1,0,-1
 95 70 l 1,1,-1
 95 -21 l 1,2,-1
 404 -21 l 1,3,-1
 404 70 l 1,4,-1
 452 70 l 1,5,-1
 452 -66 l 1,6,-1
 48 -66 l 1,7,-1
 48 70 l 1,0,-1
EndSplineSet
EndChar

StartChar: dotaccent.cap
Encoding: 65539 -1 288
Width: 500
Flags: W
LayerCount: 2
Back
Fore
SplineSet
201 776 m 256,0,1
 216 791 216 791 237 791 c 256,2,3
 258 791 258 791 273.5 776 c 128,-1,4
 289 761 289 761 289 740 c 256,5,6
 289 719 289 719 273.5 704 c 128,-1,7
 258 689 258 689 237 689 c 0,8,9
 217 689 217 689 201.5 704 c 128,-1,10
 186 719 186 719 186 740 c 256,11,12
 186 761 186 761 201 776 c 256,0,1
EndSplineSet
EndChar

StartChar: breve.cap
Encoding: 65540 -1 289
Width: 500
Flags: W
LayerCount: 2
Back
Fore
SplineSet
128 784 m 1,0,1
 147 754 147 754 176.5 734 c 128,-1,2
 206 714 206 714 240 714 c 0,3,4
 305 714 305 714 359 784 c 1,5,-1
 387 742 l 1,6,7
 361 706 361 706 322.5 684 c 128,-1,8
 284 662 284 662 242 662 c 0,9,10
 156 662 156 662 91 739 c 1,11,-1
 128 784 l 1,0,1
EndSplineSet
EndChar

StartChar: tilde.cap
Encoding: 65541 -1 290
Width: 500
Flags: W
LayerCount: 2
Back
Fore
SplineSet
131 683 m 1,0,-1
 86 715 l 1,1,2
 141 802 141 802 199 802 c 0,3,4
 217 802 217 802 236.5 790.5 c 128,-1,5
 256 779 256 779 273.5 764.5 c 128,-1,6
 291 750 291 750 304.5 738.5 c 128,-1,7
 318 727 318 727 325 727 c 0,8,9
 348 727 348 727 359.5 742.5 c 128,-1,10
 371 758 371 758 387 780 c 1,11,-1
 425 740 l 1,12,13
 395 704 395 704 373 686.5 c 128,-1,14
 351 669 351 669 328 669 c 256,15,16
 305 669 305 669 287 681 c 128,-1,17
 269 693 269 693 253.5 707 c 128,-1,18
 238 721 238 721 225 733 c 128,-1,19
 212 745 212 745 200 745 c 0,20,21
 178 745 178 745 165 731.5 c 128,-1,22
 152 718 152 718 131 683 c 1,0,-1
EndSplineSet
EndChar

StartChar: dieresis.cap
Encoding: 65542 -1 291
Width: 500
Flags: W
LayerCount: 2
Back
Fore
SplineSet
187 774 m 256,0,1
 202 759 202 759 202 738 c 0,2,3
 202 718 202 718 187 703 c 128,-1,4
 172 688 172 688 151 688 c 0,5,6
 131 688 131 688 116 703 c 128,-1,7
 101 718 101 718 101 738 c 256,8,9
 101 758 101 758 116 773.5 c 128,-1,10
 131 789 131 789 151 789 c 0,11,12
 172 789 172 789 187 774 c 256,0,1
365 774 m 256,13,14
 380 759 380 759 380 738 c 0,15,16
 380 718 380 718 365 703 c 128,-1,17
 350 688 350 688 329 688 c 0,18,19
 309 688 309 688 294.5 702.5 c 128,-1,20
 280 717 280 717 280 738 c 256,21,22
 280 759 280 759 294.5 774 c 128,-1,23
 309 789 309 789 329 789 c 0,24,25
 350 789 350 789 365 774 c 256,13,14
EndSplineSet
EndChar

StartChar: circumflex.cap
Encoding: 65543 -1 292
Width: 500
Flags: W
LayerCount: 2
Back
Fore
SplineSet
114 692 m 1,0,-1
 245 791 l 1,1,-1
 267 791 l 1,2,-1
 390 693 l 1,3,-1
 357 655 l 1,4,-1
 254 726 l 1,5,-1
 142 658 l 1,6,-1
 114 692 l 1,0,-1
EndSplineSet
EndChar

StartChar: caron.cap
Encoding: 65544 -1 293
Width: 500
Flags: W
LayerCount: 2
Back
Fore
SplineSet
378 755 m 1,0,-1
 247 655 l 1,1,-1
 225 655 l 1,2,-1
 102 753 l 1,3,-1
 135 791 l 1,4,-1
 238 720 l 1,5,-1
 350 788 l 1,6,-1
 378 755 l 1,0,-1
EndSplineSet
EndChar

StartChar: grave.cap
Encoding: 65545 -1 294
Width: 500
Flags: W
LayerCount: 2
Back
Fore
SplineSet
207 791 m 1,0,-1
 360 702 l 1,1,-1
 337 660 l 1,2,-1
 167 721 l 1,3,-1
 207 791 l 1,0,-1
EndSplineSet
EndChar

StartChar: acute.cap
Encoding: 65546 -1 295
Width: 500
Flags: W
LayerCount: 2
Back
Fore
SplineSet
325 791 m 1,0,-1
 365 721 l 1,1,-1
 196 660 l 1,2,-1
 173 702 l 1,3,-1
 325 791 l 1,0,-1
EndSplineSet
EndChar

StartChar: ring.cap
Encoding: 65547 -1 296
Width: 500
Flags: W
LayerCount: 2
Back
Fore
SplineSet
317 769 m 0,0,1
 344 742 344 742 344 706 c 0,2,3
 344 671 344 671 317.5 645 c 128,-1,4
 291 619 291 619 253 619 c 0,5,6
 234 619 234 619 217.5 626 c 128,-1,7
 201 633 201 633 188.5 645 c 128,-1,8
 176 657 176 657 168.5 673 c 128,-1,9
 161 689 161 689 161 707 c 256,10,11
 161 725 161 725 168.5 741 c 128,-1,12
 176 757 176 757 188.5 769 c 128,-1,13
 201 781 201 781 218 788 c 128,-1,14
 235 795 235 795 253 795 c 0,15,16
 289 795 289 795 317 769 c 0,0,1
254 753 m 256,17,18
 237 753 237 753 224.5 740 c 128,-1,19
 212 727 212 727 212 707 c 0,20,21
 212 688 212 688 224.5 675 c 128,-1,22
 237 662 237 662 254 662 c 256,23,24
 271 662 271 662 283 675 c 128,-1,25
 295 688 295 688 295 707 c 0,26,27
 295 727 295 727 283 740 c 128,-1,28
 271 753 271 753 254 753 c 256,17,18
EndSplineSet
EndChar

StartChar: r.serif
Encoding: 65548 -1 297
Width: 500
Flags: W
LayerCount: 2
Back
Fore
SplineSet
65 457 m 1,0,-1
 202 457 l 1,1,-1
 199 369 l 1,2,3
 221 414 221 414 261.5 440.5 c 128,-1,4
 302 467 302 467 351 467 c 0,5,6
 420 467 420 467 469 418 c 1,7,-1
 435 349 l 1,8,-1
 425 361 l 1,9,10
 396 405 396 405 346 405 c 0,11,12
 317 405 317 405 290.5 388.5 c 128,-1,13
 264 372 264 372 243.5 346.5 c 128,-1,14
 223 321 223 321 211 292.5 c 128,-1,15
 199 264 199 264 199 230 c 2,16,-1
 199 54 l 1,17,-1
 295 54 l 1,18,-1
 295 -1 l 1,19,-1
 63 -1 l 1,20,-1
 63 54 l 1,21,-1
 128 54 l 1,22,-1
 128 399 l 1,23,-1
 65 399 l 1,24,-1
 65 457 l 1,0,-1
EndSplineSet
EndChar

StartChar: hungarumlaut.cap
Encoding: 65549 -1 298
Width: 500
Flags: W
LayerCount: 2
Back
Fore
SplineSet
411 810 m 1,0,-1
 457 746 l 1,1,-1
 312 645 l 1,2,-1
 280 686 l 1,3,-1
 411 810 l 1,0,-1
233 810 m 1,4,-1
 280 746 l 1,5,-1
 134 645 l 1,6,-1
 102 686 l 1,7,-1
 233 810 l 1,4,-1
EndSplineSet
EndChar

StartChar: zero.noslash
Encoding: 65550 -1 299
Width: 500
Flags: W
LayerCount: 2
Back
Fore
SplineSet
248 627 m 256,0,1
 289 627 289 627 324 604 c 128,-1,2
 359 581 359 581 384.5 539 c 128,-1,3
 410 497 410 497 424 438.5 c 128,-1,4
 438 380 438 380 438 310 c 0,5,6
 438 239 438 239 423.5 180 c 128,-1,7
 409 121 409 121 383.5 78.5 c 128,-1,8
 358 36 358 36 324 12.5 c 128,-1,9
 290 -11 290 -11 250 -11 c 256,10,11
 210 -11 210 -11 176 10 c 128,-1,12
 142 31 142 31 117 70.5 c 128,-1,13
 92 110 92 110 77.5 167.5 c 128,-1,14
 63 225 63 225 63 298 c 0,15,16
 63 370 63 370 76.5 430 c 128,-1,17
 90 490 90 490 115 534 c 128,-1,18
 140 578 140 578 173.5 602.5 c 128,-1,19
 207 627 207 627 248 627 c 256,0,1
363 401 m 0,20,21
 334 566 334 566 251 566 c 0,22,23
 219 566 219 566 196 544 c 128,-1,24
 173 522 173 522 158 486.5 c 128,-1,25
 143 451 143 451 136 405.5 c 128,-1,26
 129 360 129 360 129 313 c 0,27,28
 129 260 129 260 137 213 c 128,-1,29
 145 166 145 166 160 130.5 c 128,-1,30
 175 95 175 95 197 74 c 128,-1,31
 219 53 219 53 248 53 c 0,32,33
 305 53 305 53 339 116 c 128,-1,34
 373 179 373 179 373 296 c 0,35,36
 373 348 373 348 363 401 c 0,20,21
EndSplineSet
EndChar

StartChar: grave
Encoding: 96 96 300
Width: 500
Flags: W
LayerCount: 2
Back
Fore
SplineSet
164 579 m 2,0,-1
 139 646 l 1,1,-1
 191 671 l 1,2,-1
 217 605 l 2,3,4
 229 574 229 574 245.5 556.5 c 128,-1,5
 262 539 262 539 275 526.5 c 128,-1,6
 288 514 288 514 297.5 500.5 c 128,-1,7
 307 487 307 487 307 471 c 0,8,9
 306 451 306 451 293 442.5 c 128,-1,10
 280 434 280 434 269 434 c 256,11,12
 258 434 258 434 249 437.5 c 128,-1,13
 240 441 240 441 226.5 453.5 c 128,-1,14
 213 466 213 466 198 495.5 c 128,-1,15
 183 525 183 525 164 579 c 2,0,-1
EndSplineSet
EndChar

StartChar: afii57929
Encoding: 700 700 301
Width: 500
Flags: W
LayerCount: 2
Back
Fore
SplineSet
309 605 m 0,0,1
 309 540 309 540 224 454 c 1,2,-1
 196 478 l 1,3,4
 219 499 219 499 233.5 523.5 c 128,-1,5
 248 548 248 548 248 563 c 0,6,7
 248 570 248 570 241.5 577 c 128,-1,8
 235 584 235 584 227.5 590.5 c 128,-1,9
 220 597 220 597 213.5 605 c 128,-1,10
 207 613 207 613 207 624 c 0,11,12
 207 644 207 644 220.5 657.5 c 128,-1,13
 234 671 234 671 255 671 c 256,14,15
 276 671 276 671 292.5 652.5 c 128,-1,16
 309 634 309 634 309 605 c 0,0,1
EndSplineSet
EndChar

StartChar: Apostrophe
Encoding: 62474 62474 302
Width: 500
Flags: W
LayerCount: 2
Back
Fore
SplineSet
309 562 m 0,0,1
 309 496 309 496 224 411 c 1,2,-1
 196 435 l 1,3,4
 219 456 219 456 233.5 480.5 c 128,-1,5
 248 505 248 505 248 519 c 0,6,7
 248 527 248 527 241.5 534 c 128,-1,8
 235 541 235 541 227.5 548 c 128,-1,9
 220 555 220 555 213.5 563 c 128,-1,10
 207 571 207 571 207 581 c 0,11,12
 207 601 207 601 220.5 614.5 c 128,-1,13
 234 628 234 628 255 628 c 256,14,15
 276 628 276 628 292.5 609.5 c 128,-1,16
 309 591 309 591 309 562 c 0,0,1
EndSplineSet
EndChar
